<svg xmlns="http://www.w3.org/2000/svg" viewBox="0 0 547.47 547.46"><defs><style>.cls-1,.cls-2,.cls-3{fill:#ffffcf;}.cls-1{opacity:0.2;}.cls-2{opacity:0.3;}.cls-4{fill:#ffe9c2;}</style></defs><title>Alpha Centauri B</title><g id="Capa_2" data-name="Capa 2"><g id="Capa_1-2" data-name="Capa 1"><path class="cls-1" d="M43.45,421.67C-36.28,297.54-3.08,133.26,116.81,49.48q4.42-3.09,9-6C253-38.24,422.31-1.38,504,125.8S548.84,422.31,421.67,504l-1.19.75C293.44,585.47,124.9,548.44,43.45,421.67Z"/><path class="cls-2" d="M67.55,406.19C-3.85,295.05,25.88,148,133.23,72.94q4-2.77,8.05-5.4C255.15-5.61,406.77,27.41,479.92,141.28s40.14,265.49-73.73,338.64l-1.07.67C291.38,552.86,140.47,519.7,67.55,406.19Z"/><path class="cls-3" d="M438.17,430.28c-84.38,88.63-223.31,94.13-314.36,13.95q-3.36-3-6.63-6.06c-90.81-86.46-94.34-230.17-7.89-321s230.17-94.34,321-7.89l.84.81C521.11,196.65,524.36,339.75,438.17,430.28Z"/><path class="cls-4" d="M438.11,430.34C353.73,519,214.8,524.47,123.75,444.29a15.13,15.13,0,0,1,1-19.67h0a15.13,15.13,0,0,1,21.39-.53l7.61,7.25a15.13,15.13,0,0,0,21.39-.52h0a15.13,15.13,0,0,0-.53-21.39l-21.81-20.77a15.13,15.13,0,0,1-.53-21.39h0a15.13,15.13,0,0,1,21.39-.53l50.21,47.81a15.13,15.13,0,0,0,21.39-.52h0a15.13,15.13,0,0,0-.53-21.4L159.09,311A15.13,15.13,0,0,1,180,289.07L308.28,411.23a15.13,15.13,0,0,0,21.39-.52h0a15.13,15.13,0,0,0-.53-21.4L158.23,226.58a15.13,15.13,0,0,1-.53-21.39h0a15.13,15.13,0,0,1,21.39-.53L293.22,313.3a15.13,15.13,0,0,0,21.39-.52h0a15.13,15.13,0,0,0-.53-21.4l-57.31-54.57a15.13,15.13,0,0,1-.53-21.39h0a15.13,15.13,0,0,1,21.39-.53l78.61,74.84a15.13,15.13,0,0,0,21.39-.52h0a15.13,15.13,0,0,0-.53-21.4l-99.92-95.12a15.13,15.13,0,0,1,20.87-21.92l121.22,115.4a15.13,15.13,0,0,0,21.39-.52h0a15.13,15.13,0,0,0-.53-21.4L297.67,108.56a15.13,15.13,0,0,1-.53-21.39h0a15.13,15.13,0,0,1,21.39-.53l71.51,68.08a15.13,15.13,0,0,0,21.39-.52h0a15.13,15.13,0,0,0-.53-21.39l-.51-.49a15.13,15.13,0,0,1-.53-21.39h0a15.13,15.13,0,0,1,21.15-.73C521.06,196.71,524.3,339.82,438.11,430.34Z"/></g></g></svg>