<svg xmlns="http://www.w3.org/2000/svg" viewBox="0 0 637.15 637.14"><defs><style>.cls-1,.cls-3{fill:#f9b52d;}.cls-1{opacity:0.3;}.cls-2{fill:#ffdf97;}</style></defs><title>Alpha Centauri A</title><g id="Capa_2" data-name="Capa 2"><g id="Capa_1-2" data-name="Capa 1"><path class="cls-1" d="M50.57,490.74C-42.23,346.28-3.58,155.08,135.94,57.59q5.14-3.6,10.47-7c148-95.08,345.08-52.17,440.17,95.84s52.17,345.08-95.84,440.17c-.46.3-.93.59-1.38.87C341.51,681.38,145.36,638.28,50.57,490.74Z"/><path class="cls-1" d="M78.61,472.73C-4.48,343.38,30.12,172.19,155,84.89q4.6-3.22,9.37-6.28c132.52-85.13,309-46.71,394.12,85.81s46.71,309-85.81,394.12l-1.24.78C339.11,643.42,163.48,604.84,78.61,472.73Z"/><path class="cls-2" d="M96.26,461.39C19.28,341.56,51.34,183,167.08,102.08q4.27-3,8.68-5.82C298.54,17.39,462,53,540.89,175.76S584.16,462,461.39,540.89l-1.15.72C337.6,619.53,174.89,583.78,96.26,461.39Z"/><path class="cls-3" d="M96.21,461.31C19.23,341.48,51.29,182.87,167,102a17.61,17.61,0,0,1,22,6.57v0a17.61,17.61,0,0,1-5.3,24.33l-10.29,6.61a17.61,17.61,0,0,0-5.31,24.33v0a17.61,17.61,0,0,0,24.34,5.29l29.49-18.94a17.61,17.61,0,0,1,24.33,5.3h0A17.61,17.61,0,0,1,241,179.87L173.1,223.48a17.61,17.61,0,0,0-5.31,24.33h0a17.61,17.61,0,0,0,24.34,5.3L308,178.68a17.61,17.61,0,0,1,19,29.63L153.58,319.76a17.61,17.61,0,0,0-5.31,24.33h0a17.61,17.61,0,0,0,24.34,5.3L403.7,201a17.61,17.61,0,0,1,24.33,5.3h0a17.61,17.61,0,0,1-5.29,24.34L268.46,329.71A17.61,17.61,0,0,0,263.16,354h0a17.61,17.61,0,0,0,24.34,5.3L365,309.58a17.61,17.61,0,0,1,24.33,5.3h0A17.61,17.61,0,0,1,384,339.22L277.75,407.5a17.61,17.61,0,0,0-5.31,24.33h0a17.61,17.61,0,0,0,24.34,5.3l135.08-86.78a17.61,17.61,0,0,1,19,29.63L287,485.27a17.61,17.61,0,0,0-5.31,24.33h0a17.61,17.61,0,0,0,24.34,5.3L498.75,391.14a17.61,17.61,0,0,1,24.33,5.3v0a17.61,17.61,0,0,1-5.3,24.33l-96.69,62.11a17.61,17.61,0,0,0-5.31,24.33v0a17.61,17.61,0,0,0,24.34,5.29l.69-.44a17.61,17.61,0,0,1,24.33,5.3v0a17.6,17.6,0,0,1-5,24.12C337.54,619.45,174.83,583.7,96.21,461.31Z"/></g></g></svg>