<svg xmlns="http://www.w3.org/2000/svg" viewBox="0 0 1400 875"><defs><style>.cls-1{fill:#000015;}.cls-2,.cls-3,.cls-4{fill:#f74c48;}.cls-14,.cls-2{opacity:0.2;}.cls-11,.cls-15,.cls-3,.cls-7{opacity:0.3;}.cls-5{fill:#b21414;}.cls-6{opacity:0.9;}.cls-7,.cls-9{fill:#511a10;}.cls-8{fill:#7f3018;}.cls-10{opacity:0.8;}.cls-11,.cls-13{fill:#f9b52d;}.cls-12{fill:#ffdf97;}.cls-14,.cls-15,.cls-16{fill:#ffffcf;}.cls-17{fill:#ffe9c2;}.cls-18{fill:#ea2c18;}.cls-19{fill:#ed6d15;}.cls-20{fill:#556080;}.cls-21{fill:#bdc3c7;}.cls-22{fill:#ecf0f1;}.cls-23{fill:#8697cb;}.cls-24{fill:#0096e6;}</style></defs><title>Hero-AC</title><g id="Capa_2" data-name="Capa 2"><g id="Capa_1-2" data-name="Capa 1"><rect class="cls-1" width="1400" height="875"/><path class="cls-2" d="M841.31,627.5A141.32,141.32,0,0,1,705.59,768.7q-2.78.11-5.59.11a141.31,141.31,0,1,1,0-282.63h.73A141.32,141.32,0,0,1,841.31,627.5Z"/><path class="cls-3" d="M825.86,627.5A125.86,125.86,0,0,1,705,753.26q-2.48.1-5,.1a125.86,125.86,0,1,1,0-251.72h.65A125.86,125.86,0,0,1,825.86,627.5Z"/><path class="cls-4" d="M804.42,578a115.57,115.57,0,0,1-50.82,151.9q-2,1.06-4.09,2a115.57,115.57,0,1,1-99-208.85l.54-.25A115.57,115.57,0,0,1,804.42,578Z"/><path class="cls-5" d="M804.44,578a115.57,115.57,0,0,1-50.82,151.9,7.7,7.7,0,0,1-9.16-4.08h0a7.7,7.7,0,0,1,3.66-10.26l4.83-2.29A7.7,7.7,0,0,0,756.62,703h0a7.7,7.7,0,0,0-10.26-3.66l-48.77,23.13a7.7,7.7,0,0,1-10.26-3.66h0A7.7,7.7,0,0,1,691,708.57l66.81-31.68a7.7,7.7,0,0,0,3.66-10.26h0A7.7,7.7,0,0,0,751.19,663l-54.43,25.81a7.7,7.7,0,0,1-6.6-13.92l81.49-38.64A7.7,7.7,0,0,0,775.3,626h0A7.7,7.7,0,0,0,765,622.29L656.5,673.76a7.7,7.7,0,0,1-10.26-3.66h0a7.7,7.7,0,0,1,3.66-10.26l72.47-34.36A7.7,7.7,0,0,0,726,615.22h0a7.7,7.7,0,0,0-10.26-3.66l-36.4,17.26a7.7,7.7,0,0,1-10.26-3.66h0a7.7,7.7,0,0,1,3.66-10.26l32.47-15.39a7.7,7.7,0,0,0,3.66-10.26h0a7.7,7.7,0,0,0-10.26-3.66l-63.45,30.09a7.7,7.7,0,0,1-6.6-13.92l82.8-39.26A7.7,7.7,0,0,0,715,552.22h0a7.7,7.7,0,0,0-10.26-3.66l-67.23,31.88a7.7,7.7,0,0,1-10.26-3.66h0a7.7,7.7,0,0,1,3.66-10.26l33.78-16a7.7,7.7,0,0,0,3.66-10.26h0a7.7,7.7,0,0,0-10.26-3.66l-.32.15a7.7,7.7,0,0,1-10.26-3.66h0A7.7,7.7,0,0,1,651,522.87,115.57,115.57,0,0,1,804.44,578Z"/><g class="cls-6"><path class="cls-7" d="M356.34,792.46a75.15,75.15,0,0,1-72.18,75.09q-1.48.06-3,.06a75.15,75.15,0,1,1,0-150.3h.39A75.15,75.15,0,0,1,356.34,792.46Z"/><path class="cls-8" d="M343.54,762.9a69,69,0,0,1-30.34,90.7q-1.2.63-2.44,1.22a69,69,0,1,1-59.13-124.7l.32-.15A69,69,0,0,1,343.54,762.9Z"/><path class="cls-9" d="M343.55,762.92a69,69,0,0,1-30.34,90.7,4.6,4.6,0,0,1-5.47-2.44h0a4.6,4.6,0,0,1,2.18-6.12l2.89-1.37a4.6,4.6,0,0,0,2.19-6.13h0a4.6,4.6,0,0,0-6.13-2.18l-29.12,13.81a4.6,4.6,0,0,1-6.12-2.18h0a4.6,4.6,0,0,1,2.18-6.13L315.69,822a4.6,4.6,0,0,0,2.19-6.13h0a4.6,4.6,0,0,0-6.13-2.19l-32.5,15.41a4.6,4.6,0,0,1-3.94-8.31L324,797.67a4.6,4.6,0,0,0,2.19-6.13h0a4.6,4.6,0,0,0-6.13-2.19l-64.81,30.73a4.6,4.6,0,0,1-6.12-2.18h0a4.6,4.6,0,0,1,2.18-6.13l43.27-20.52a4.6,4.6,0,0,0,2.19-6.13h0a4.6,4.6,0,0,0-6.13-2.19l-21.73,10.3a4.6,4.6,0,0,1-6.12-2.18h0a4.6,4.6,0,0,1,2.18-6.13l19.38-9.19a4.6,4.6,0,0,0,2.19-6.13h0a4.6,4.6,0,0,0-6.13-2.19l-37.89,18a4.6,4.6,0,0,1-3.94-8.31L288,753.64a4.6,4.6,0,0,0,2.19-6.13h0a4.6,4.6,0,0,0-6.13-2.19l-40.14,19a4.6,4.6,0,0,1-6.12-2.18h0A4.6,4.6,0,0,1,240,756l20.17-9.56a4.6,4.6,0,0,0,2.19-6.13h0a4.6,4.6,0,0,0-6.13-2.18l-.19.09a4.6,4.6,0,0,1-6.12-2.18h0A4.6,4.6,0,0,1,252,730,69,69,0,0,1,343.55,762.92Z"/></g><g class="cls-10"><path class="cls-11" d="M165.13,522.6l-1.39.87A317,317,0,0,1,0,573.08V0H184.53A317.78,317.78,0,0,1,261,82.43C356,230.44,313.13,427.51,165.13,522.6Z"/><path class="cls-11" d="M147.11,494.56l-1.24.78A283.8,283.8,0,0,1,0,539.75V0H121.59A283.71,283.71,0,0,1,232.92,100.44C318.06,233,279.64,409.42,147.11,494.56Z"/><path class="cls-12" d="M135.77,476.91c-.38.24-.76.49-1.14.72A263,263,0,0,1,0,518.76V0H63.66A263.19,263.19,0,0,1,215.27,111.78C294.15,234.56,258.55,398,135.77,476.91Z"/><path class="cls-13" d="M1.45,144.34,0,145.27v-31.4A17.41,17.41,0,0,1,6.74,120a17.55,17.55,0,0,1,2.39,13.27A17.53,17.53,0,0,1,1.45,144.34Z"/><path class="cls-13" d="M58.42,275.24,0,312.77V270.9l39.38-25.3a17.6,17.6,0,0,1,24.32,5.29h0A17.61,17.61,0,0,1,58.42,275.24Z"/><path class="cls-13" d="M97.13,166.62,0,229V187.14L78.09,137a17.59,17.59,0,0,1,24.32,5.3h0A17.6,17.6,0,0,1,97.13,166.62Z"/><path class="cls-13" d="M125.3,316,0,396.51V354.65l106.26-68.27a17.61,17.61,0,0,1,19,29.64Z"/><path class="cls-13" d="M192.18,356.8,95.5,418.91a17.62,17.62,0,0,0-5.31,24.34v0a17.62,17.62,0,0,0,24.34,5.29l.69-.45a17.62,17.62,0,0,1,24.33,5.3v0a17.6,17.6,0,0,1-5,24.12A262.94,262.94,0,0,1,0,518.68V438.39L173.14,327.16a17.61,17.61,0,0,1,24.33,5.3v0A17.6,17.6,0,0,1,192.18,356.8Z"/></g><g class="cls-10"><path class="cls-14" d="M1400,68.47V609.31a273,273,0,0,1-187.83-122.46c-79.74-124.12-46.53-288.41,73.36-372.18q4.41-3.09,9-6A272.52,272.52,0,0,1,1400,68.47Z"/><path class="cls-15" d="M1400,97.49V580.27a244.37,244.37,0,0,1-163.74-108.89c-71.39-111.14-41.66-258.24,65.68-333.25q4-2.76,8.05-5.4A244.31,244.31,0,0,1,1400,97.49Z"/><path class="cls-16" d="M1400,115.87V562a225.84,225.84,0,0,1-107.48-52.56l-.29-.26q-3.19-2.83-6.33-5.8c-90.81-86.46-94.34-230.18-7.89-321A226,226,0,0,1,1400,115.87Z"/><path class="cls-17" d="M1400,319.52v41.8l-73-69.55a15.12,15.12,0,0,1-.53-21.38h0a15.12,15.12,0,0,1,21.39-.53Z"/><path class="cls-17" d="M1400,403.12v41.79l-72.19-68.73a15.13,15.13,0,1,1,20.87-21.92Z"/><path class="cls-17" d="M1400,483.56v78.49a225.71,225.71,0,0,1-107.53-52.57l-.24-.32a15.14,15.14,0,0,1,1.26-19.35h0a15.13,15.13,0,0,1,21.39-.53l7.61,7.25a15.13,15.13,0,0,0,21.39-.52h0a15.14,15.14,0,0,0-.54-21.4l-21.81-20.76a15.13,15.13,0,0,1-.52-21.39h0a15.15,15.15,0,0,1,21.4-.53l50.21,47.81A15,15,0,0,0,1400,483.56Z"/></g><g class="cls-6"><circle class="cls-18" cx="1116.3" cy="755.43" r="19.57" transform="translate(25.82 1547.67) rotate(-70.09)"/><path class="cls-18" d="M1173.64,797l-62-22.46a2.14,2.14,0,0,1-1.28-2.74L1122.24,739a2.14,2.14,0,0,1,2.74-1.28l58.86,21.32a2.14,2.14,0,0,1,1.28,2.74v0a2.14,2.14,0,0,1-2.74,1.28l-20.47-7.42a2.14,2.14,0,0,0-2.74,1.28v0a2.14,2.14,0,0,0,1.28,2.74l36.12,13.09a2.14,2.14,0,0,1,1.28,2.74l0,.1a2.14,2.14,0,0,1-2.74,1.28l-26.73-9.68a2.14,2.14,0,0,0-2.74,1.28v0a2.14,2.14,0,0,0,1.28,2.74l18.9,6.85a2.14,2.14,0,0,1,1.28,2.74l0,.1a2.14,2.14,0,0,1-2.74,1.28l-14.21-5.15a2.14,2.14,0,0,0-2.74,1.28v0a2.14,2.14,0,0,0,1.28,2.74l1.68.61a2.14,2.14,0,0,1,1.28,2.74l-.07.2a2.14,2.14,0,0,1-2.74,1.28L1143.58,777a2.14,2.14,0,0,0-2.74,1.28v0a2.14,2.14,0,0,0,1.28,2.74l33,12a2.14,2.14,0,0,1,1.28,2.74v0A2.14,2.14,0,0,1,1173.64,797Z"/><path class="cls-19" d="M1134.66,778.31l-21.54-7.8a2.14,2.14,0,0,1-1.28-2.74l8.94-24.67a2.14,2.14,0,0,1,2.74-1.28l20,7.24a2.14,2.14,0,0,1,1.28,2.74v0a2.14,2.14,0,0,1-2.74,1.28l-2.5-.9a2.14,2.14,0,0,0-2.74,1.28l0,.12a2.14,2.14,0,0,0,1.28,2.74l22.84,8.28a2.14,2.14,0,0,1,1.28,2.74h0a2.14,2.14,0,0,1-2.74,1.28l-19.71-7.14a2.14,2.14,0,0,0-2.74,1.28l0,.11a2.14,2.14,0,0,0,1.28,2.74l13.45,4.87a2.14,2.14,0,0,1,1.28,2.74v0a2.14,2.14,0,0,1-2.74,1.28l-19.56-7.09a2.14,2.14,0,0,0-2.74,1.28l0,.12a2.14,2.14,0,0,0,1.28,2.74l7,2.55a2.14,2.14,0,0,1,1.28,2.74l0,.11A2.14,2.14,0,0,1,1134.66,778.31Z"/><circle class="cls-19" cx="1116.3" cy="755.43" r="15.26" transform="matrix(0.34, -0.94, 0.94, 0.34, 25.82, 1547.67)"/><path class="cls-19" d="M1130.43,761.32a15.57,15.57,0,0,1-19.85,8.46,1,1,0,0,1-.41-1.29h0a1,1,0,0,1,1.36-.55l.66.28a1,1,0,0,0,1.36-.55h0a1,1,0,0,0-.55-1.36l-6.69-2.85a1,1,0,0,1-.55-1.36h0a1,1,0,0,1,1.36-.55l9.17,3.9a1,1,0,0,0,1.36-.55h0a1,1,0,0,0-.55-1.36l-7.47-3.18a1,1,0,0,1,.81-1.91l11.18,4.76a1,1,0,0,0,1.36-.55h0a1,1,0,0,0-.55-1.36L1107.55,755a1,1,0,0,1-.55-1.36h0a1,1,0,0,1,1.36-.55l9.94,4.23a1,1,0,0,0,1.36-.55h0a1,1,0,0,0-.55-1.36l-5-2.12a1,1,0,0,1-.55-1.36h0a1,1,0,0,1,1.36-.55l4.45,1.9a1,1,0,0,0,1.36-.55h0a1,1,0,0,0-.55-1.36l-8.71-3.7a1,1,0,0,1,.81-1.91l11.36,4.83A1,1,0,0,0,1125,750h0a1,1,0,0,0-.55-1.36l-9.22-3.92a1,1,0,0,1-.55-1.36h0a1,1,0,0,1,1.36-.55l4.63,2a1,1,0,0,0,1.36-.55h0a1,1,0,0,0-.55-1.36l0,0a1,1,0,0,1-.55-1.36h0a1,1,0,0,1,1.34-.56A15.57,15.57,0,0,1,1130.43,761.32Z"/><path class="cls-20" d="M1098.47,768.06l-3,8.32a1.75,1.75,0,0,0-.1.68,1.78,1.78,0,0,0,.16.68l10.33,22.1-1,2.64a1.78,1.78,0,0,0,3.35,1.23l3-8.32a1.78,1.78,0,0,0-3.35-1.23l-.36,1L1099,776.92l2.8-7.63a1.78,1.78,0,0,0-3.35-1.23Z"/><path class="cls-20" d="M1137.77,712.62l-1,2.64-22.16,10.2a1.79,1.79,0,0,0-.92,1l-3,8.32A1.78,1.78,0,0,0,1114,736l2.8-7.63,18.27-8.4-.36,1a1.78,1.78,0,0,0,3.35,1.23l3-8.32a1.78,1.78,0,0,0-3.35-1.23Z"/><path class="cls-20" d="M1122.53,754.22l-.61,1.66-11.72-4.29a1.77,1.77,0,1,0-1.22,3.33l11.72,4.29-.61,1.66a1.78,1.78,0,0,0,3.35,1.23l2.44-6.66a1.78,1.78,0,0,0-3.35-1.23Z"/><rect class="cls-21" x="1081.06" y="746.55" width="35.44" height="5.49" transform="translate(17.15 1523.14) rotate(-69.87)"/><path class="cls-22" d="M1025.9,722.59h0a18.41,18.41,0,0,0,.23,13.24h0a37.94,37.94,0,0,0,22.12,21.37l44.43,16.28,2.44-6.66-5-1.84,12.2-33.28,5,1.84,2.44-6.66-44.43-16.28a37.94,37.94,0,0,0-30.69,2h0A18.41,18.41,0,0,0,1025.9,722.59Z"/><polygon class="cls-23" points="1061.22 709.11 1044.15 755.7 1047.49 756.92 1059.08 725.31 1067.45 728.38 1068.67 725.05 1060.3 721.98 1064.57 710.33 1061.22 709.11"/><rect class="cls-23" x="1090.56" y="727.58" width="3.54" height="16.04" transform="translate(25.77 1508.1) rotate(-69.87)"/><ellipse class="cls-24" cx="1083.41" cy="762.54" rx="1.77" ry="1.78" transform="translate(-5.37 1517.39) rotate(-69.87)"/><ellipse class="cls-24" cx="1085.85" cy="755.88" rx="1.77" ry="1.78" transform="translate(2.48 1515.32) rotate(-69.87)"/><ellipse class="cls-24" cx="1088.29" cy="749.23" rx="1.77" ry="1.78" transform="translate(10.33 1513.24) rotate(-69.87)"/><ellipse class="cls-24" cx="1090.73" cy="742.57" rx="1.77" ry="1.78" transform="translate(18.18 1511.17) rotate(-69.87)"/><ellipse class="cls-24" cx="1095.61" cy="729.26" rx="1.77" ry="1.78" transform="translate(33.88 1507.02) rotate(-69.87)"/><polygon class="cls-20" points="1087.66 771.65 1082.94 779.35 1079.59 778.13 1080.97 769.19 1087.66 771.65"/><polygon class="cls-20" points="1098.05 722.6 1102.77 714.89 1106.12 716.12 1104.74 725.05 1098.05 722.6"/><ellipse class="cls-20" cx="1076.43" cy="729.78" rx="8.86" ry="8.91" transform="translate(20.81 1489.35) rotate(-69.87)"/><path class="cls-23" d="M1086.47,733.46a10.7,10.7,0,1,1-6.38-13.66A10.68,10.68,0,0,1,1086.47,733.46Zm-16.74-6.13a7.13,7.13,0,1,0,9.13-4.2A7.12,7.12,0,0,0,1069.73,727.33Z"/><polygon class="cls-21" points="1055.86 759.99 1059.21 761.22 1063.48 749.57 1065.15 750.18 1060.88 761.83 1064.23 763.06 1068.5 751.41 1070.17 752.02 1065.9 763.67 1069.25 764.9 1073.52 753.25 1075.2 753.87 1070.93 765.51 1074.27 766.74 1079.76 751.76 1061.35 745.02 1055.86 759.99"/><rect class="cls-20" x="1087.66" y="747.23" width="35.44" height="8.97" transform="translate(19.21 1530.93) rotate(-69.87)"/></g></g></g></svg>