<svg xmlns="http://www.w3.org/2000/svg" viewBox="0 0 1400 875"><defs><style>.cls-1{fill:#000015;}.cls-2,.cls-3,.cls-4{fill:#f74c48;}.cls-14,.cls-2{opacity:0.2;}.cls-11,.cls-15,.cls-3,.cls-7{opacity:0.3;}.cls-5{fill:#b21414;}.cls-6{opacity:0.9;}.cls-7,.cls-9{fill:#511a10;}.cls-8{fill:#7f3018;}.cls-10{opacity:0.8;}.cls-11,.cls-13{fill:#f9b52d;}.cls-12{fill:#ffdf97;}.cls-14,.cls-15,.cls-16{fill:#ffffcf;}.cls-17{fill:#ffe9c2;}.cls-18{fill:#ea2c18;}.cls-19{fill:#ed6d15;}.cls-20{fill:#556080;}.cls-21{fill:#bdc3c7;}.cls-22{fill:#ecf0f1;}.cls-23{fill:#8697cb;}.cls-24{fill:#0096e6;}</style></defs><title>Hero-AC</title><g id="Capa_2" data-name="Capa 2"><g id="Capa_1-2" data-name="Capa 1"><rect class="cls-1" width="1400" height="875"/><path class="cls-2" d="M815.6,697.5A115.6,115.6,0,0,1,704.57,813q-2.28.09-4.57.09a115.6,115.6,0,1,1,0-231.19h.59A115.6,115.6,0,0,1,815.6,697.5Z"/><path class="cls-3" d="M803,697.5a103,103,0,0,1-98.88,102.87q-2,.08-4.07.08a103,103,0,1,1,0-205.91h.53A103,103,0,0,1,803,697.5Z"/><path class="cls-4" d="M785.42,657a94.54,94.54,0,0,1-41.57,124.26q-1.65.86-3.35,1.67a94.54,94.54,0,1,1-81-170.84l.44-.2A94.54,94.54,0,0,1,785.42,657Z"/><path class="cls-5" d="M785.44,657a94.54,94.54,0,0,1-41.57,124.26,6.3,6.3,0,0,1-7.49-3.34h0a6.3,6.3,0,0,1,3-8.39l4-1.87a6.3,6.3,0,0,0,3-8.39h0a6.3,6.3,0,0,0-8.39-3L698,775.2a6.3,6.3,0,0,1-8.39-3h0a6.3,6.3,0,0,1,3-8.39l54.65-25.91a6.3,6.3,0,0,0,3-8.39h0a6.3,6.3,0,0,0-8.4-3l-44.53,21.11a6.3,6.3,0,0,1-5.4-11.39l66.66-31.61a6.3,6.3,0,0,0,3-8.39h0a6.3,6.3,0,0,0-8.4-3l-88.79,42.1a6.3,6.3,0,0,1-8.39-3h0a6.3,6.3,0,0,1,3-8.39l59.28-28.11a6.3,6.3,0,0,0,3-8.39h0a6.3,6.3,0,0,0-8.4-3l-29.77,14.12a6.3,6.3,0,0,1-8.39-3h0a6.3,6.3,0,0,1,3-8.39l26.56-12.59a6.3,6.3,0,0,0,3-8.39h0a6.3,6.3,0,0,0-8.4-3L647,687.81a6.3,6.3,0,0,1-5.4-11.39l67.73-32.12a6.3,6.3,0,0,0,3-8.39h0a6.3,6.3,0,0,0-8.4-3l-55,26.08a6.3,6.3,0,0,1-8.39-3h0a6.3,6.3,0,0,1,3-8.39l27.63-13.1a6.3,6.3,0,0,0,3-8.39h0a6.3,6.3,0,0,0-8.39-3l-.27.13a6.3,6.3,0,0,1-8.39-3h0a6.3,6.3,0,0,1,2.88-8.33A94.54,94.54,0,0,1,785.44,657Z"/><g class="cls-6"><path class="cls-7" d="M321.61,792.46a40.42,40.42,0,0,1-38.82,40.39q-.8,0-1.6,0a40.42,40.42,0,1,1,0-80.84h.21A40.42,40.42,0,0,1,321.61,792.46Z"/><path class="cls-8" d="M314.72,776.56a37.12,37.12,0,0,1-16.32,48.78q-.65.34-1.31.66a37.11,37.11,0,1,1-31.8-67.07l.17-.08A37.12,37.12,0,0,1,314.72,776.56Z"/><path class="cls-9" d="M314.73,776.58a37.12,37.12,0,0,1-16.32,48.78,2.47,2.47,0,0,1-2.94-1.31h0a2.47,2.47,0,0,1,1.17-3.29l1.55-.74a2.47,2.47,0,0,0,1.18-3.29h0a2.47,2.47,0,0,0-3.3-1.17L280.41,823a2.47,2.47,0,0,1-3.29-1.17h0a2.47,2.47,0,0,1,1.17-3.3l21.45-10.17a2.47,2.47,0,0,0,1.18-3.29h0a2.47,2.47,0,0,0-3.3-1.18l-17.48,8.29a2.47,2.47,0,0,1-2.12-4.47l26.17-12.41a2.47,2.47,0,0,0,1.18-3.29h0a2.47,2.47,0,0,0-3.3-1.18l-34.86,16.53a2.47,2.47,0,0,1-3.29-1.17h0a2.47,2.47,0,0,1,1.17-3.3l23.27-11a2.47,2.47,0,0,0,1.18-3.29h0a2.47,2.47,0,0,0-3.3-1.18l-11.69,5.54a2.47,2.47,0,0,1-3.29-1.17h0a2.47,2.47,0,0,1,1.17-3.3l10.43-4.94a2.47,2.47,0,0,0,1.18-3.29h0a2.47,2.47,0,0,0-3.3-1.18l-20.38,9.66a2.47,2.47,0,0,1-2.12-4.47l26.59-12.61a2.47,2.47,0,0,0,1.18-3.29h0a2.47,2.47,0,0,0-3.3-1.18l-21.59,10.24a2.47,2.47,0,0,1-3.29-1.17h0a2.47,2.47,0,0,1,1.17-3.29l10.85-5.14a2.47,2.47,0,0,0,1.18-3.29h0a2.47,2.47,0,0,0-3.3-1.17l-.1,0a2.47,2.47,0,0,1-3.29-1.17h0a2.47,2.47,0,0,1,1.13-3.27A37.12,37.12,0,0,1,314.73,776.58Z"/></g><g class="cls-10"><path class="cls-11" d="M165.13,522.6l-1.39.87A317,317,0,0,1,0,573.08V0H184.53A317.78,317.78,0,0,1,261,82.43C356,230.44,313.13,427.51,165.13,522.6Z"/><path class="cls-11" d="M147.11,494.56l-1.24.78A283.8,283.8,0,0,1,0,539.75V0H121.59A283.71,283.71,0,0,1,232.92,100.44C318.06,233,279.64,409.42,147.11,494.56Z"/><path class="cls-12" d="M135.77,476.91c-.38.24-.76.49-1.14.72A263,263,0,0,1,0,518.76V0H63.66A263.19,263.19,0,0,1,215.27,111.78C294.15,234.56,258.55,398,135.77,476.91Z"/><path class="cls-13" d="M1.45,144.34,0,145.27v-31.4A17.41,17.41,0,0,1,6.74,120a17.55,17.55,0,0,1,2.39,13.27A17.53,17.53,0,0,1,1.45,144.34Z"/><path class="cls-13" d="M58.42,275.24,0,312.77V270.9l39.38-25.3a17.6,17.6,0,0,1,24.32,5.29h0A17.61,17.61,0,0,1,58.42,275.24Z"/><path class="cls-13" d="M97.13,166.62,0,229V187.14L78.09,137a17.59,17.59,0,0,1,24.32,5.3h0A17.6,17.6,0,0,1,97.13,166.62Z"/><path class="cls-13" d="M125.3,316,0,396.51V354.65l106.26-68.27a17.61,17.61,0,0,1,19,29.64Z"/><path class="cls-13" d="M192.18,356.8,95.5,418.91a17.62,17.62,0,0,0-5.31,24.34v0a17.62,17.62,0,0,0,24.34,5.29l.69-.45a17.62,17.62,0,0,1,24.33,5.3v0a17.6,17.6,0,0,1-5,24.12A262.94,262.94,0,0,1,0,518.68V438.39L173.14,327.16a17.61,17.61,0,0,1,24.33,5.3v0A17.6,17.6,0,0,1,192.18,356.8Z"/></g><g class="cls-10"><path class="cls-14" d="M1400,68.47V609.31a273,273,0,0,1-187.83-122.46c-79.74-124.12-46.53-288.41,73.36-372.18q4.41-3.09,9-6A272.52,272.52,0,0,1,1400,68.47Z"/><path class="cls-15" d="M1400,97.49V580.27a244.37,244.37,0,0,1-163.74-108.89c-71.39-111.14-41.66-258.24,65.68-333.25q4-2.76,8.05-5.4A244.31,244.31,0,0,1,1400,97.49Z"/><path class="cls-16" d="M1400,115.87V562a225.84,225.84,0,0,1-107.48-52.56l-.29-.26q-3.19-2.83-6.33-5.8c-90.81-86.46-94.34-230.18-7.89-321A226,226,0,0,1,1400,115.87Z"/><path class="cls-17" d="M1400,319.52v41.8l-73-69.55a15.12,15.12,0,0,1-.53-21.38h0a15.12,15.12,0,0,1,21.39-.53Z"/><path class="cls-17" d="M1400,403.12v41.79l-72.19-68.73a15.13,15.13,0,1,1,20.87-21.92Z"/><path class="cls-17" d="M1400,483.56v78.49a225.71,225.71,0,0,1-107.53-52.57l-.24-.32a15.14,15.14,0,0,1,1.26-19.35h0a15.13,15.13,0,0,1,21.39-.53l7.61,7.25a15.13,15.13,0,0,0,21.39-.52h0a15.14,15.14,0,0,0-.54-21.4l-21.81-20.76a15.13,15.13,0,0,1-.52-21.39h0a15.15,15.15,0,0,1,21.4-.53l50.21,47.81A15,15,0,0,0,1400,483.56Z"/></g><g class="cls-6"><circle class="cls-18" cx="1116.3" cy="775.43" r="19.57" transform="translate(7.01 1560.86) rotate(-70.09)"/><path class="cls-18" d="M1173.64,817l-62-22.46a2.14,2.14,0,0,1-1.28-2.74L1122.24,759a2.14,2.14,0,0,1,2.74-1.28l58.86,21.32a2.14,2.14,0,0,1,1.28,2.74v0a2.14,2.14,0,0,1-2.74,1.28l-20.47-7.42a2.14,2.14,0,0,0-2.74,1.28v0a2.14,2.14,0,0,0,1.28,2.74l36.12,13.09a2.14,2.14,0,0,1,1.28,2.74l0,.1a2.14,2.14,0,0,1-2.74,1.28l-26.73-9.68a2.14,2.14,0,0,0-2.74,1.28v0a2.14,2.14,0,0,0,1.28,2.74l18.9,6.85a2.14,2.14,0,0,1,1.28,2.74l0,.1a2.14,2.14,0,0,1-2.74,1.28l-14.21-5.15a2.14,2.14,0,0,0-2.74,1.28v0a2.14,2.14,0,0,0,1.28,2.74l1.68.61a2.14,2.14,0,0,1,1.28,2.74l-.07.2a2.14,2.14,0,0,1-2.74,1.28L1143.58,797a2.14,2.14,0,0,0-2.74,1.28v0a2.14,2.14,0,0,0,1.28,2.74l33,12a2.14,2.14,0,0,1,1.28,2.74v0A2.14,2.14,0,0,1,1173.64,817Z"/><path class="cls-19" d="M1134.66,798.31l-21.54-7.8a2.14,2.14,0,0,1-1.28-2.74l8.94-24.67a2.14,2.14,0,0,1,2.74-1.28l20,7.24a2.14,2.14,0,0,1,1.28,2.74v0a2.14,2.14,0,0,1-2.74,1.28l-2.5-.9a2.14,2.14,0,0,0-2.74,1.28l0,.12a2.14,2.14,0,0,0,1.28,2.74l22.84,8.28a2.14,2.14,0,0,1,1.28,2.74h0a2.14,2.14,0,0,1-2.74,1.28l-19.71-7.14a2.14,2.14,0,0,0-2.74,1.28l0,.11a2.14,2.14,0,0,0,1.28,2.74l13.45,4.87a2.14,2.14,0,0,1,1.28,2.74v0a2.14,2.14,0,0,1-2.74,1.28l-19.56-7.09a2.14,2.14,0,0,0-2.74,1.28l0,.12a2.14,2.14,0,0,0,1.28,2.74l7,2.55a2.14,2.14,0,0,1,1.28,2.74l0,.11A2.14,2.14,0,0,1,1134.66,798.31Z"/><circle class="cls-19" cx="1116.3" cy="775.43" r="15.26" transform="translate(7.01 1560.86) rotate(-70.09)"/><path class="cls-19" d="M1130.43,781.32a15.57,15.57,0,0,1-19.85,8.46,1,1,0,0,1-.41-1.29h0a1,1,0,0,1,1.36-.55l.66.28a1,1,0,0,0,1.36-.55h0a1,1,0,0,0-.55-1.36l-6.69-2.85a1,1,0,0,1-.55-1.36h0a1,1,0,0,1,1.36-.55l9.17,3.9a1,1,0,0,0,1.36-.55h0a1,1,0,0,0-.55-1.36l-7.47-3.18a1,1,0,0,1,.81-1.91l11.18,4.76a1,1,0,0,0,1.36-.55h0a1,1,0,0,0-.55-1.36L1107.55,775a1,1,0,0,1-.55-1.36h0a1,1,0,0,1,1.36-.55l9.94,4.23a1,1,0,0,0,1.36-.55h0a1,1,0,0,0-.55-1.36l-5-2.12a1,1,0,0,1-.55-1.36h0a1,1,0,0,1,1.36-.55l4.45,1.9a1,1,0,0,0,1.36-.55h0a1,1,0,0,0-.55-1.36l-8.71-3.7a1,1,0,0,1,.81-1.91l11.36,4.83A1,1,0,0,0,1125,770h0a1,1,0,0,0-.55-1.36l-9.22-3.92a1,1,0,0,1-.55-1.36h0a1,1,0,0,1,1.36-.55l4.63,2a1,1,0,0,0,1.36-.55h0a1,1,0,0,0-.55-1.36l0,0a1,1,0,0,1-.55-1.36h0a1,1,0,0,1,1.34-.56A15.57,15.57,0,0,1,1130.43,781.32Z"/><path class="cls-20" d="M1098.47,788.06l-3,8.32a1.75,1.75,0,0,0-.1.68,1.78,1.78,0,0,0,.16.68l10.33,22.1-1,2.64a1.78,1.78,0,0,0,3.35,1.23l3-8.32a1.78,1.78,0,0,0-3.35-1.23l-.36,1L1099,796.92l2.8-7.63a1.78,1.78,0,0,0-3.35-1.23Z"/><path class="cls-20" d="M1137.77,732.62l-1,2.64-22.16,10.2a1.79,1.79,0,0,0-.92,1l-3,8.32A1.78,1.78,0,0,0,1114,756l2.8-7.63,18.27-8.4-.36,1a1.78,1.78,0,0,0,3.35,1.23l3-8.32a1.78,1.78,0,0,0-3.35-1.23Z"/><path class="cls-20" d="M1122.53,774.22l-.61,1.66-11.72-4.29a1.77,1.77,0,1,0-1.22,3.33l11.72,4.29-.61,1.66a1.78,1.78,0,0,0,3.35,1.23l2.44-6.66a1.78,1.78,0,0,0-3.35-1.23Z"/><rect class="cls-21" x="1081.06" y="766.55" width="35.44" height="5.49" transform="translate(-1.63 1536.26) rotate(-69.87)"/><path class="cls-22" d="M1025.9,742.59h0a18.41,18.41,0,0,0,.23,13.24h0a37.94,37.94,0,0,0,22.12,21.37l44.43,16.28,2.44-6.66-5-1.84,12.2-33.28,5,1.84,2.44-6.66-44.43-16.28a37.94,37.94,0,0,0-30.69,2h0A18.41,18.41,0,0,0,1025.9,742.59Z"/><polygon class="cls-23" points="1061.22 729.11 1044.15 775.7 1047.49 776.92 1059.08 745.31 1067.45 748.38 1068.67 745.05 1060.3 741.98 1064.57 730.33 1061.22 729.11"/><rect class="cls-23" x="1090.56" y="747.58" width="3.54" height="16.04" transform="translate(6.99 1521.22) rotate(-69.87)"/><ellipse class="cls-24" cx="1083.41" cy="782.54" rx="1.77" ry="1.78" transform="translate(-24.14 1530.51) rotate(-69.87)"/><ellipse class="cls-24" cx="1085.85" cy="775.88" rx="1.77" ry="1.78" transform="translate(-16.29 1528.44) rotate(-69.87)"/><ellipse class="cls-24" cx="1088.29" cy="769.23" rx="1.77" ry="1.78" transform="translate(-8.45 1526.36) rotate(-69.87)"/><ellipse class="cls-24" cx="1090.73" cy="762.57" rx="1.77" ry="1.78" transform="translate(-0.6 1524.29) rotate(-69.87)"/><ellipse class="cls-24" cx="1095.61" cy="749.26" rx="1.77" ry="1.78" transform="matrix(0.34, -0.94, 0.94, 0.34, 15.1, 1520.13)"/><polygon class="cls-20" points="1087.66 791.65 1082.94 799.35 1079.59 798.13 1080.97 789.19 1087.66 791.65"/><polygon class="cls-20" points="1098.05 742.6 1102.77 734.89 1106.12 736.12 1104.74 745.05 1098.05 742.6"/><ellipse class="cls-20" cx="1076.43" cy="749.78" rx="8.86" ry="8.91" transform="translate(2.03 1502.47) rotate(-69.87)"/><path class="cls-23" d="M1086.47,753.46a10.7,10.7,0,1,1-6.38-13.66A10.68,10.68,0,0,1,1086.47,753.46Zm-16.74-6.13a7.13,7.13,0,1,0,9.13-4.2A7.12,7.12,0,0,0,1069.73,747.33Z"/><polygon class="cls-21" points="1055.86 779.99 1059.21 781.22 1063.48 769.57 1065.15 770.18 1060.88 781.83 1064.23 783.06 1068.5 771.41 1070.17 772.02 1065.9 783.67 1069.25 784.9 1073.52 773.25 1075.2 773.87 1070.93 785.51 1074.27 786.74 1079.76 771.76 1061.35 765.02 1055.86 779.99"/><rect class="cls-20" x="1087.66" y="767.23" width="35.44" height="8.97" transform="translate(0.43 1544.04) rotate(-69.87)"/></g></g></g></svg>