<svg xmlns="http://www.w3.org/2000/svg" viewBox="0 0 487.16 487.16"><defs><style>.cls-1,.cls-2,.cls-3{fill:#f74c48;}.cls-1{opacity:0.2;}.cls-2{opacity:0.3;}.cls-4{fill:#b21414;}</style></defs><title>Proxima Centauri</title><g id="Capa_2" data-name="Capa 2"><g id="Capa_1-2" data-name="Capa 1"><path class="cls-1" d="M487.16,243.58c0,131.29-103.88,238.33-233.95,243.39q-4.8.19-9.63.19C109.06,487.16,0,378.1,0,243.58S109.06,0,243.58,0h1.25C378.78.68,487.16,109.48,487.16,243.58Z"/><path class="cls-2" d="M460.53,243.58c0,116.94-92.52,212.27-208.36,216.77q-4.27.17-8.58.17c-119.81,0-216.94-97.13-216.94-216.94S123.77,26.64,243.58,26.64h1.11C364,27.25,460.53,124.15,460.53,243.58Z"/><path class="cls-3" d="M423.58,158.23c46,97,6.74,212.52-87.59,261.83q-3.48,1.82-7.05,3.52c-99.41,47.14-218.21,4.76-265.35-94.65S58.83,110.72,158.23,63.59l.93-.43C258.38,16.72,376.59,59.14,423.58,158.23Z"/><path class="cls-4" d="M423.61,158.31c46,97,6.74,212.52-87.59,261.83a13.28,13.28,0,0,1-15.79-7v0a13.27,13.27,0,0,1,6.31-17.68l8.33-4a13.28,13.28,0,0,0,6.31-17.68v0a13.28,13.28,0,0,0-17.69-6.3l-84.06,39.86A13.27,13.27,0,0,1,221.74,401h0a13.28,13.28,0,0,1,6.3-17.69l115.15-54.6A13.28,13.28,0,0,0,349.5,311h0a13.28,13.28,0,0,0-17.69-6.31L238,349.2a13.28,13.28,0,0,1-11.38-24l140.46-66.6a13.28,13.28,0,0,0,6.31-17.68h0a13.28,13.28,0,0,0-17.69-6.31L168.59,323.32A13.27,13.27,0,0,1,150.92,317h0a13.28,13.28,0,0,1,6.3-17.69l124.91-59.23a13.28,13.28,0,0,0,6.31-17.68h0a13.28,13.28,0,0,0-17.69-6.31L208,245.84a13.27,13.27,0,0,1-17.68-6.31h0a13.28,13.28,0,0,1,6.3-17.69l56-26.53a13.28,13.28,0,0,0,6.31-17.68h0a13.28,13.28,0,0,0-17.69-6.31L131.84,223.16a13.28,13.28,0,0,1-11.38-24L263.18,131.5a13.28,13.28,0,0,0,6.31-17.68h0a13.28,13.28,0,0,0-17.69-6.31L135.92,162.44a13.27,13.27,0,0,1-17.68-6.31v0a13.27,13.27,0,0,1,6.31-17.68l58.22-27.61a13.28,13.28,0,0,0,6.31-17.68v0a13.28,13.28,0,0,0-17.69-6.3l-.56.27a13.27,13.27,0,0,1-17.68-6.31v0a13.27,13.27,0,0,1,6.06-17.55C258.41,16.79,376.62,59.21,423.61,158.31Z"/></g></g></svg>