<svg xmlns="http://www.w3.org/2000/svg" viewBox="0 0 433.89 433.89"><defs><style>.cls-1,.cls-3{fill:#511a10;}.cls-1{opacity:0.3;}.cls-2{fill:#7f3018;}</style></defs><title>Proxima B</title><g id="Capa_2" data-name="Capa 2"><g id="Capa_1-2" data-name="Capa 1"><path class="cls-1" d="M433.89,216.94c0,116.94-92.52,212.27-208.36,216.77q-4.27.17-8.58.17C97.13,433.89,0,336.75,0,216.94S97.13,0,216.94,0h1.11C337.35.61,433.89,97.51,433.89,216.94Z"/><path class="cls-2" d="M396.94,131.59c46,97,6.74,212.52-87.59,261.83q-3.48,1.82-7.05,3.52c-99.41,47.14-218.21,4.76-265.35-94.65S32.19,84.08,131.59,36.95l.93-.43C231.74-9.92,350,32.5,396.94,131.59Z"/><path class="cls-3" d="M397,131.67c46,97,6.74,212.52-87.59,261.83a13.28,13.28,0,0,1-15.79-7v0a13.27,13.27,0,0,1,6.31-17.68l8.33-4a13.28,13.28,0,0,0,6.31-17.68v0a13.28,13.28,0,0,0-17.69-6.3l-84.06,39.86a13.27,13.27,0,0,1-17.68-6.31h0a13.28,13.28,0,0,1,6.3-17.69l115.15-54.6a13.28,13.28,0,0,0,6.31-17.68h0a13.28,13.28,0,0,0-17.69-6.31l-93.83,44.49a13.28,13.28,0,0,1-11.38-24L340.43,232a13.28,13.28,0,0,0,6.31-17.68h0A13.28,13.28,0,0,0,329,208L142,296.68a13.27,13.27,0,0,1-17.68-6.31h0a13.28,13.28,0,0,1,6.3-17.69l124.91-59.23a13.28,13.28,0,0,0,6.31-17.68h0a13.28,13.28,0,0,0-17.69-6.31L181.37,219.2a13.27,13.27,0,0,1-17.68-6.31h0A13.28,13.28,0,0,1,170,195.2l56-26.53A13.28,13.28,0,0,0,232.27,151h0a13.28,13.28,0,0,0-17.69-6.31L105.2,196.52a13.28,13.28,0,0,1-11.38-24l142.72-67.67a13.28,13.28,0,0,0,6.31-17.68h0a13.28,13.28,0,0,0-17.69-6.31L109.28,135.8A13.27,13.27,0,0,1,91.6,129.5v0A13.27,13.27,0,0,1,97.9,111.8L156.12,84.2a13.28,13.28,0,0,0,6.31-17.68v0a13.28,13.28,0,0,0-17.69-6.3l-.56.27a13.27,13.27,0,0,1-17.68-6.31v0a13.27,13.27,0,0,1,6.06-17.55C231.77-9.85,350,32.57,397,131.67Z"/></g></g></svg>