<svg xmlns="http://www.w3.org/2000/svg" viewBox="0 0 282.7 282.7"><defs><style>.cls-1,.cls-2,.cls-3{fill:#f46262;}.cls-1{opacity:0.2;}.cls-2{opacity:0.3;}.cls-4{fill:#af3535;}</style></defs><title>Trappist-1</title><g id="Capa_2" data-name="Capa 2"><g id="Capa_1-2" data-name="Capa 1"><path class="cls-1" d="M104,277.63A141.32,141.32,0,0,1,3.69,109.39q.63-2.71,1.37-5.42a141.31,141.31,0,1,1,272.56,74.75c-.06.24-.13.47-.2.7A141.32,141.32,0,0,1,104,277.63Z"/><path class="cls-2" d="M108.06,262.73A125.86,125.86,0,0,1,18.75,112.89q.56-2.42,1.22-4.83a125.86,125.86,0,1,1,242.75,66.58c-.06.21-.12.42-.18.62A125.86,125.86,0,0,1,108.06,262.73Z"/><path class="cls-3" d="M161.48,255.15A115.57,115.57,0,0,1,28.43,166q-.48-2.23-.88-4.49a115.57,115.57,0,1,1,227.61-40.26c0,.2.07.39.1.59A115.57,115.57,0,0,1,161.48,255.15Z"/><path class="cls-4" d="M161.43,255.16A115.57,115.57,0,0,1,28.38,166a7.7,7.7,0,0,1,6.36-7.75h0a7.7,7.7,0,0,1,8.92,6.24l.93,5.27A7.7,7.7,0,0,0,53.53,176h0A7.7,7.7,0,0,0,59.78,167l-9.4-53.15A7.7,7.7,0,0,1,56.62,105h0a7.7,7.7,0,0,1,8.93,6.24L78.43,184a7.7,7.7,0,0,0,8.92,6.25h0a7.7,7.7,0,0,0,6.25-8.93L83.11,122a7.7,7.7,0,0,1,15.17-2.68L114,208.13a7.7,7.7,0,0,0,8.92,6.25h0a7.7,7.7,0,0,0,6.25-8.93L108.24,87.16a7.7,7.7,0,0,1,6.24-8.92h0a7.7,7.7,0,0,1,8.93,6.24l14,79a7.7,7.7,0,0,0,8.92,6.25h0a7.7,7.7,0,0,0,6.25-8.93l-7-39.67a7.7,7.7,0,0,1,6.24-8.92h0a7.7,7.7,0,0,1,8.93,6.24L167,153.8A7.7,7.7,0,0,0,175.9,160h0a7.7,7.7,0,0,0,6.25-8.93L169.92,82a7.7,7.7,0,0,1,15.17-2.68l16,90.23a7.7,7.7,0,0,0,8.92,6.25h0a7.7,7.7,0,0,0,6.25-8.93l-13-73.26a7.7,7.7,0,0,1,6.24-8.92h0a7.7,7.7,0,0,1,8.92,6.24L225,127.69a7.7,7.7,0,0,0,8.92,6.25h0a7.7,7.7,0,0,0,6.24-8.93l-.06-.35a7.7,7.7,0,0,1,6.24-8.92h0a7.7,7.7,0,0,1,8.89,6.08A115.57,115.57,0,0,1,161.43,255.16Z"/></g></g></svg>