<svg xmlns="http://www.w3.org/2000/svg" viewBox="0 0 786.11 786.11"><defs><style>.cls-1,.cls-7{fill:gray;}.cls-1{opacity:0.2;}.cls-2{fill:#666;}.cls-3{fill:#4d4d4d;}.cls-4,.cls-5{fill:#5e594b;}.cls-4{opacity:0.3;}.cls-6{fill:#333029;}.cls-8{fill:#ea2c18;}.cls-9{fill:#ed6d15;}.cls-10{fill:none;}</style></defs><title>Asteroides</title><g id="Capa_2" data-name="Capa 2"><g id="Capa_1-2" data-name="Capa 1"><path class="cls-1" d="M52.92,558,43.34,538.6c-13.71-32.18-17.85-65.92-13.52-97.24a162,162,0,0,1,17.46-54.3,139.85,139.85,0,0,1,56.14-57.2c1.75-1,3.54-1.89,5.35-2.78a138.34,138.34,0,0,1,73-13.56,151.36,151.36,0,0,1,23.43,3.85,164.39,164.39,0,0,1,44.92,18.53c27.15,16.16,50.94,40.4,67.59,71.18q1.81,3.34,3.51,6.79a194,194,0,0,1,7.92,18.42c.47,1.26.93,2.53,1.36,3.79a186.77,186.77,0,0,1,9.86,47.59,176.92,176.92,0,0,1-.68,33.31A161.57,161.57,0,0,1,320,578.38h0a142.83,142.83,0,0,1-28.06,35.21h0A136.31,136.31,0,0,1,260.45,635l-.17.08-.71.34c-26.37,12.77-55.1,16.33-83.09,11.93h0a162.28,162.28,0,0,1-56.64-20.52,176.88,176.88,0,0,1-26.1-18.72,186.75,186.75,0,0,1-34-38.9Q58,566.64,56.44,564,54.63,561.06,52.92,558Z"/><path class="cls-2" d="M58.89,554.17l-9.12-18.5a175.42,175.42,0,0,1-12.88-92.61,154.31,154.31,0,0,1,16.63-51.71A133.19,133.19,0,0,1,107,336.88c1.67-.92,3.37-1.8,5.09-2.65a131.75,131.75,0,0,1,69.57-12.91A144.15,144.15,0,0,1,204,325a156.56,156.56,0,0,1,42.78,17.64,176.07,176.07,0,0,1,64.37,67.79q1.73,3.18,3.34,6.46A184.8,184.8,0,0,1,322,434.42c.45,1.2.88,2.41,1.29,3.61a177.88,177.88,0,0,1,9.39,45.33,168.5,168.5,0,0,1-.65,31.72,153.87,153.87,0,0,1-18.82,58.48h0a136,136,0,0,1-26.72,33.53h0a129.82,129.82,0,0,1-29.94,20.39l-.16.08-.67.32a132.91,132.91,0,0,1-79.13,11.36h0a154.55,154.55,0,0,1-53.94-19.55,168.46,168.46,0,0,1-24.86-17.83,177.85,177.85,0,0,1-32.4-37q-1.6-2.44-3.13-5Q60.52,557.07,58.89,554.17Z"/><path class="cls-3" d="M58.89,554.17l-9.12-18.5a175.42,175.42,0,0,1-12.88-92.61,154.31,154.31,0,0,1,16.63-51.71A133.19,133.19,0,0,1,107,336.88c1.67-.92,3.37-1.8,5.09-2.65a131.75,131.75,0,0,1,69.57-12.91c3.8,8.77.85,18.67-6.85,22.47L97.5,381.93c-8,3.94-10.86,14.42-6.42,23.41h0c4.44,9,14.5,13.09,22.49,9.15l106.84-52.71c8-3.94,18.05.16,22.49,9.15h0c4.44,9,1.56,19.47-6.42,23.41l-72.36,35.7c-8,3.94-10.86,14.42-6.42,23.41h0c4.44,9,14.5,13.09,22.49,9.15l97-47.85c8-3.94,18.05.16,22.49,9.15h0c4.44,9,1.56,19.47-6.42,23.41L176.56,504.93c-8,3.94-10.86,14.42-6.42,23.41h0c4.44,9,14.5,13.09,22.49,9.15l97-47.85c8-3.94,18.05.16,22.49,9.15h0c4.44,9,1.56,19.47-6.42,23.41L169.3,589.52c-8,3.94-10.86,14.42-6.42,23.42h0c4.44,9,14.5,13.09,22.49,9.15L262.66,584c8-3.94,18.05.16,22.49,9.16h0a19.2,19.2,0,0,1,1.33,14h0a129.82,129.82,0,0,1-29.94,20.39l-.16.08-.67.32a132.91,132.91,0,0,1-79.13,11.36h0a154.55,154.55,0,0,1-53.94-19.55,168.46,168.46,0,0,1-24.86-17.83,177.85,177.85,0,0,1-32.4-37q-1.6-2.44-3.13-5Q60.52,557.07,58.89,554.17Z"/><path class="cls-4" d="M501.29,226.18A76.84,76.84,0,0,1,427.49,303q-1.51.06-3,.06a76.83,76.83,0,1,1,0-153.67h.39A76.84,76.84,0,0,1,501.29,226.18Z"/><path class="cls-5" d="M447.25,292.94a70.55,70.55,0,0,1-88.61-41.35q-.5-1.3-1-2.62a70.55,70.55,0,1,1,133.54-45.6l.11.34A70.55,70.55,0,0,1,447.25,292.94Z"/><path class="cls-6" d="M361.12,195.09A70.55,70.55,0,0,1,453,161.66a4.7,4.7,0,0,1,1.53,5.93h0a4.7,4.7,0,0,1-6.29,2.15l-2.93-1.44a4.7,4.7,0,0,0-6.29,2.15h0a4.7,4.7,0,0,0,2.15,6.29l29.58,14.52a4.7,4.7,0,0,1,2.15,6.29h0a4.7,4.7,0,0,1-6.29,2.15l-40.52-19.89A4.7,4.7,0,0,0,419.8,182h0a4.7,4.7,0,0,0,2.15,6.3l33,16.21a4.7,4.7,0,0,1-4.14,8.44l-49.42-24.26a4.7,4.7,0,0,0-6.29,2.15h0a4.7,4.7,0,0,0,2.15,6.3l65.83,32.32a4.7,4.7,0,0,1,2.15,6.29h0a4.7,4.7,0,0,1-6.29,2.15l-44-21.58a4.7,4.7,0,0,0-6.29,2.15h0a4.7,4.7,0,0,0,2.15,6.3l22.07,10.84a4.7,4.7,0,0,1,2.15,6.29h0a4.7,4.7,0,0,1-6.29,2.15l-19.69-9.67a4.7,4.7,0,0,0-6.29,2.15h0a4.7,4.7,0,0,0,2.15,6.3l38.48,18.89a4.7,4.7,0,0,1-4.14,8.44L389,245.47a4.7,4.7,0,0,0-6.29,2.15h0a4.7,4.7,0,0,0,2.15,6.3l40.77,20a4.7,4.7,0,0,1,2.15,6.29h0a4.7,4.7,0,0,1-6.29,2.15L401,272.32a4.7,4.7,0,0,0-6.29,2.15h0a4.7,4.7,0,0,0,2.15,6.29l.2.1a4.7,4.7,0,0,1,2.15,6.29h0a4.7,4.7,0,0,1-6.2,2.19A70.55,70.55,0,0,1,361.12,195.09Z"/><path class="cls-1" d="M614.73,521.16l6.05-7.09a73.51,73.51,0,0,1,37.44-20.77,74.39,74.39,0,0,1,26.08-.91,73.46,73.46,0,0,1,35.29,15.16q1.14.9,2.26,1.85A73.85,73.85,0,0,1,732,611q-1,1.29-2.08,2.55a74.24,74.24,0,0,1-6,6.22c-.43.39-.85.79-1.29,1.16a73.44,73.44,0,0,1-31.58,16.4,74.18,74.18,0,0,1-29.5,1h0a73.48,73.48,0,0,1-20.38-6.56h0a73.9,73.9,0,0,1-15.36-10.13l-.07-.06-.29-.25a73.57,73.57,0,0,1-22.13-33.65h0a74.14,74.14,0,0,1-.88-41.4,73.36,73.36,0,0,1,9.06-20.53q.71-1.11,1.47-2.21T614.73,521.16Z"/><path class="cls-7" d="M617.56,523.12l5.76-6.75A70,70,0,0,1,659,496.59a70.84,70.84,0,0,1,24.84-.87,70,70,0,0,1,33.61,14.44q1.09.86,2.15,1.77a70.33,70.33,0,0,1,9.66,96.77q-1,1.23-2,2.42a70.71,70.71,0,0,1-5.7,5.93c-.4.38-.81.75-1.23,1.11a69.94,69.94,0,0,1-30.07,15.62,70.64,70.64,0,0,1-28.09,1h0a70,70,0,0,1-19.4-6.24h0a70.38,70.38,0,0,1-14.63-9.65l-.06-.06-.27-.24a70.06,70.06,0,0,1-21.08-32h0a70.61,70.61,0,0,1-.84-39.43,69.86,69.86,0,0,1,8.62-19.55q.68-1.06,1.4-2.1T617.56,523.12Z"/><path class="cls-3" d="M617.56,523.12l5.76-6.75A70,70,0,0,1,659,496.59a70.84,70.84,0,0,1,24.84-.87,70,70,0,0,1,33.61,14.44q1.09.86,2.15,1.77a70,70,0,0,1,19.74,27.72,7.81,7.81,0,0,1-10.72.54l-31.77-27.13a7.81,7.81,0,0,0-11,.87h0a7.81,7.81,0,0,0,.87,11l43.92,37.51a7.81,7.81,0,0,1,.87,11h0a7.81,7.81,0,0,1-11,.87l-29.75-25.41a7.81,7.81,0,0,0-11,.87h0a7.81,7.81,0,0,0,.87,11l39.87,34.05a7.81,7.81,0,0,1,.87,11h0a7.81,7.81,0,0,1-11,.87l-48-41a7.81,7.81,0,0,0-11,.87h0a7.81,7.81,0,0,0,.87,11L692,611.73a7.81,7.81,0,0,1,.87,11h0a7.81,7.81,0,0,1-11,.87l-56.07-47.88a7.81,7.81,0,0,0-11,.87h0a7.81,7.81,0,0,0,.87,11l31.77,27.13a7.81,7.81,0,0,1,.87,11h0a7.77,7.77,0,0,1-5.51,2.72h0a70.38,70.38,0,0,1-14.63-9.65l-.06-.06-.27-.24a70.06,70.06,0,0,1-21.08-32h0a70.61,70.61,0,0,1-.84-39.43,69.86,69.86,0,0,1,8.62-19.55q.68-1.06,1.4-2.1T617.56,523.12Z"/><circle class="cls-8" cx="545.7" cy="388.08" r="59.1" transform="translate(-119.02 307.22) rotate(-28.48)"/><path class="cls-8" d="M754.56,342l-175,94.94a6.46,6.46,0,0,1-8.77-2.6L520.6,341.81a6.46,6.46,0,0,1,2.6-8.77L689.35,242.9a6.46,6.46,0,0,1,8.77,2.6l0,.08a6.46,6.46,0,0,1-2.6,8.77l-57.78,31.35a6.46,6.46,0,0,0-2.6,8.77l0,.08a6.46,6.46,0,0,0,8.77,2.6l102-55.32a6.46,6.46,0,0,1,8.77,2.6l.15.28a6.46,6.46,0,0,1-2.6,8.77L676.82,294.4a6.46,6.46,0,0,0-2.6,8.77l0,.08a6.46,6.46,0,0,0,8.77,2.6l53.36-29a6.46,6.46,0,0,1,8.77,2.6l.15.28a6.46,6.46,0,0,1-2.6,8.77l-40.1,21.76a6.46,6.46,0,0,0-2.6,8.77l0,.08a6.46,6.46,0,0,0,8.77,2.6l4.75-2.58a6.46,6.46,0,0,1,8.77,2.6l.31.57a6.46,6.46,0,0,1-2.6,8.77l-71,38.54a6.46,6.46,0,0,0-2.6,8.77l0,.08a6.46,6.46,0,0,0,8.77,2.6l93.12-50.53a6.46,6.46,0,0,1,8.77,2.6l0,.08A6.46,6.46,0,0,1,754.56,342Z"/><path class="cls-9" d="M634.16,392.51l-60.8,33a6.46,6.46,0,0,1-8.77-2.6l-37.79-69.64a6.46,6.46,0,0,1,2.6-8.77l56.38-30.59a6.46,6.46,0,0,1,8.77,2.6l0,.08a6.46,6.46,0,0,1-2.6,8.77l-7,3.82a6.46,6.46,0,0,0-2.6,8.77l.18.33a6.46,6.46,0,0,0,8.77,2.6l64.48-35a6.46,6.46,0,0,1,8.77,2.6h0a6.46,6.46,0,0,1-2.6,8.77L606.3,347.42a6.46,6.46,0,0,0-2.6,8.77l.18.32a6.46,6.46,0,0,0,8.77,2.6l38-20.6a6.46,6.46,0,0,1,8.77,2.6l0,.08a6.46,6.46,0,0,1-2.6,8.77l-55.2,30a6.46,6.46,0,0,0-2.6,8.77l.18.33a6.46,6.46,0,0,0,8.77,2.6l19.86-10.77a6.46,6.46,0,0,1,8.77,2.6l.18.32A6.46,6.46,0,0,1,634.16,392.51Z"/><circle class="cls-7" cx="545.7" cy="388.08" r="46.08" transform="translate(-119.02 307.22) rotate(-28.48)"/><path class="cls-3" d="M587.31,368a47,47,0,0,1-20.69,61.79,3.13,3.13,0,0,1-3.73-1.66h0a3.13,3.13,0,0,1,1.49-4.17l2-.93a3.13,3.13,0,0,0,1.49-4.17h0a3.13,3.13,0,0,0-4.17-1.49l-19.84,9.4a3.13,3.13,0,0,1-4.17-1.49h0a3.13,3.13,0,0,1,1.49-4.17l27.18-12.88a3.13,3.13,0,0,0,1.49-4.17h0a3.13,3.13,0,0,0-4.17-1.49L543.49,413a3.13,3.13,0,0,1-2.68-5.66L574,391.66a3.13,3.13,0,0,0,1.49-4.17h0a3.13,3.13,0,0,0-4.17-1.49l-44.16,20.92a3.13,3.13,0,0,1-4.17-1.49h0a3.13,3.13,0,0,1,1.49-4.17l29.49-14a3.13,3.13,0,0,0,1.49-4.17h0a3.13,3.13,0,0,0-4.17-1.49l-14.81,7a3.13,3.13,0,0,1-4.17-1.49h0a3.13,3.13,0,0,1,1.49-4.17l13.21-6.26a3.13,3.13,0,0,0,1.49-4.17h0a3.13,3.13,0,0,0-4.17-1.49l-25.82,12.23a3.13,3.13,0,0,1-2.68-5.66l33.69-16a3.13,3.13,0,0,0,1.49-4.17h0a3.13,3.13,0,0,0-4.17-1.49l-27.35,13a3.13,3.13,0,0,1-4.17-1.49h0a3.13,3.13,0,0,1,1.49-4.17l13.74-6.51a3.13,3.13,0,0,0,1.49-4.17h0a3.13,3.13,0,0,0-4.17-1.49l-.13.06a3.13,3.13,0,0,1-4.17-1.49h0a3.13,3.13,0,0,1,1.43-4.14A47,47,0,0,1,587.31,368Z"/><rect class="cls-10" width="786.11" height="786.11"/></g></g></svg>