<svg xmlns="http://www.w3.org/2000/svg" viewBox="0 0 341.45 341.45"><defs><style>.cls-1,.cls-2{fill:#5e594b;}.cls-1{opacity:0.3;}.cls-3{fill:#333029;}</style></defs><title>Ceres</title><g id="Capa_2" data-name="Capa 2"><g id="Capa_1-2" data-name="Capa 1"><path class="cls-1" d="M341.45,170.72a170.73,170.73,0,0,1-164,170.59q-3.36.13-6.75.13A170.72,170.72,0,1,1,170.72,0h.88A170.72,170.72,0,0,1,341.45,170.72Z"/><path class="cls-2" d="M221.38,319.08A156.77,156.77,0,0,1,24.49,227.21q-1.11-2.88-2.12-5.83A156.77,156.77,0,1,1,319.08,120.07c.09.26.17.51.25.76A156.77,156.77,0,0,1,221.38,319.08Z"/><path class="cls-3" d="M30,101.64A156.77,156.77,0,0,1,234.19,27.38a10.45,10.45,0,0,1,3.4,13.17h0a10.45,10.45,0,0,1-14,4.77l-6.51-3.2a10.45,10.45,0,0,0-14,4.77h0a10.45,10.45,0,0,0,4.78,14L273.6,93.16a10.45,10.45,0,0,1,4.77,14h0a10.45,10.45,0,0,1-14,4.78l-90-44.2a10.45,10.45,0,0,0-14,4.77h0a10.45,10.45,0,0,0,4.78,14l73.35,36a10.45,10.45,0,0,1-9.21,18.76L119.48,87.35a10.45,10.45,0,0,0-14,4.77h0a10.45,10.45,0,0,0,4.78,14l146.27,71.81a10.45,10.45,0,0,1,4.77,14h0a10.45,10.45,0,0,1-14,4.78l-97.66-47.94a10.45,10.45,0,0,0-14,4.77h0a10.45,10.45,0,0,0,4.78,14l49,24.08a10.45,10.45,0,0,1,4.77,14h0a10.45,10.45,0,0,1-14,4.78l-43.75-21.48a10.45,10.45,0,0,0-14,4.77h0a10.45,10.45,0,0,0,4.78,14l85.51,42a10.45,10.45,0,0,1-9.21,18.76L92.05,213.6a10.45,10.45,0,0,0-14,4.77h0a10.45,10.45,0,0,0,4.78,14l90.59,44.47a10.45,10.45,0,0,1,4.77,14h0a10.45,10.45,0,0,1-14,4.77l-45.52-22.34a10.45,10.45,0,0,0-14,4.77h0a10.45,10.45,0,0,0,4.78,14l.44.21a10.45,10.45,0,0,1,4.77,14h0a10.44,10.44,0,0,1-13.78,4.86A156.77,156.77,0,0,1,30,101.64Z"/></g></g></svg>