<svg xmlns="http://www.w3.org/2000/svg" viewBox="0 0 512.51 512.54"><defs><style>.cls-1,.cls-3{fill:#707070;}.cls-1{opacity:0.3;}.cls-2{fill:#848484;}</style></defs><title>Eris</title><g id="Capa_2" data-name="Capa 2"><g id="Capa_1-2" data-name="Capa 1"><path class="cls-1" d="M376.89,30.21l27.51,17a255,255,0,0,1,91.1,117.29,258,258,0,0,1,17,88.91,254.81,254.81,0,0,1-33.21,129q-2.48,4.4-5.16,8.73a256.17,256.17,0,0,1-342.9,88.79q-5-2.77-9.83-5.78a257.52,257.52,0,0,1-24.51-17.2c-1.58-1.25-3.15-2.51-4.68-3.8a254.73,254.73,0,0,1-73-99.52A257.3,257.3,0,0,1,0,253.05H0a254.88,254.88,0,0,1,11.64-73.33h0a256.34,256.34,0,0,1,26.55-58l.16-.26c.23-.38.46-.75.7-1.12A255.18,255.18,0,0,1,142.68,26.54h0a257.18,257.18,0,0,1,141.43-25A254.46,254.46,0,0,1,359.3,21.63q4.19,1.85,8.34,3.87Q372.3,27.74,376.89,30.21Z"/><path class="cls-2" d="M371.69,40.94l26.2,16.17a242.84,242.84,0,0,1,86.76,111.7,245.73,245.73,0,0,1,16.18,84.68A242.67,242.67,0,0,1,469.2,376.36q-2.36,4.19-4.91,8.31a244,244,0,0,1-326.57,84.56q-4.72-2.64-9.36-5.51A245.26,245.26,0,0,1,105,447.34c-1.5-1.19-3-2.39-4.45-3.62a242.6,242.6,0,0,1-69.51-94.78,245,245,0,0,1-18.29-95.77h0a242.74,242.74,0,0,1,11.09-69.83h0A244.13,244.13,0,0,1,49.15,128l.16-.25c.22-.36.44-.72.67-1.06a243,243,0,0,1,98.66-89.28h0A244.93,244.93,0,0,1,283.33,13.6a242.34,242.34,0,0,1,71.61,19.17q4,1.76,7.95,3.69Q367.31,38.59,371.69,40.94Z"/><path class="cls-3" d="M371.69,40.94l26.2,16.17a242.84,242.84,0,0,1,86.76,111.7,245.73,245.73,0,0,1,16.18,84.68A242.67,242.67,0,0,1,469.2,376.36q-2.36,4.19-4.91,8.31a242.86,242.86,0,0,1-84.54,82.39,27.1,27.1,0,0,1-7.54-36.45l76.12-123.33A27.11,27.11,0,0,0,439.5,270h0a27.11,27.11,0,0,0-37.3,8.83L297,449.28a27.11,27.11,0,0,1-37.3,8.83h0a27.11,27.11,0,0,1-8.83-37.3l71.27-115.47a27.11,27.11,0,0,0-8.83-37.3h0a27.11,27.11,0,0,0-37.3,8.83L180.41,431.61a27.11,27.11,0,0,1-37.3,8.83h0a27.11,27.11,0,0,1-8.83-37.3l114.93-186.2a27.11,27.11,0,0,0-8.83-37.3h0a27.11,27.11,0,0,0-37.3,8.83L107.52,343.21A27.11,27.11,0,0,1,70.21,352h0a27.11,27.11,0,0,1-8.83-37.3L195.71,97.09a27.11,27.11,0,0,0-8.84-37.31h0a27.11,27.11,0,0,0-37.3,8.83L73.44,191.94a27.11,27.11,0,0,1-37.31,8.82h0a27,27,0,0,1-12.26-17.42h0A244.13,244.13,0,0,1,49.15,128l.16-.25c.22-.36.44-.72.67-1.06a243,243,0,0,1,98.66-89.28h0A244.93,244.93,0,0,1,283.33,13.6a242.34,242.34,0,0,1,71.61,19.17q4,1.76,7.95,3.69Q367.31,38.59,371.69,40.94Z"/></g></g></svg>