<svg xmlns="http://www.w3.org/2000/svg" viewBox="0 0 487.34 473.31"><defs><style>.cls-1{fill:#3636ce;}.cls-2{fill:#b237cc;}.cls-3{fill:#fff;}</style></defs><title>Halley</title><g id="Capa_2" data-name="Capa 2"><g id="Capa_1-2" data-name="Capa 1"><path class="cls-1" d="M382.89,220.39,164,439.28a10.05,10.05,0,0,1-14.22,0L34,323.53a10.05,10.05,0,0,1,0-14.22L241.87,101.47a10.05,10.05,0,0,1,14.22,0l.1.1a10.05,10.05,0,0,1,0,14.22l-72.27,72.27a10.05,10.05,0,0,0,0,14.22l.1.1a10.05,10.05,0,0,0,14.22,0L325.77,74.83a10.05,10.05,0,0,1,14.22,0l.35.35a10.05,10.05,0,0,1,0,14.22L246,183.78A10.05,10.05,0,0,0,246,198l.1.1a10.05,10.05,0,0,0,14.22,0L327,131.36a10.05,10.05,0,0,1,14.22,0l.35.35a10.05,10.05,0,0,1,0,14.22l-50.17,50.17a10.05,10.05,0,0,0,0,14.22l.1.1a10.05,10.05,0,0,0,14.22,0l5.95-5.95a10.05,10.05,0,0,1,14.22,0l.71.71a10.05,10.05,0,0,1,0,14.22l-88.86,88.86a10.05,10.05,0,0,0,0,14.22l.1.1a10.05,10.05,0,0,0,14.22,0L368.57,206.07a10.05,10.05,0,0,1,14.22,0l.1.1A10.05,10.05,0,0,1,382.89,220.39Z"/><circle class="cls-1" cx="91.9" cy="381.41" r="91.9" transform="translate(-242.78 176.69) rotate(-45)"/><path class="cls-2" d="M225.74,348.9,149.68,425a10.05,10.05,0,0,1-14.22,0L48.34,337.84a10.05,10.05,0,0,1,0-14.22l70.53-70.53a10.05,10.05,0,0,1,14.22,0l.1.1a10.05,10.05,0,0,1,0,14.22l-8.81,8.81a10.05,10.05,0,0,0,0,14.22l.41.41a10.05,10.05,0,0,0,14.22,0l80.66-80.66a10.05,10.05,0,0,1,14.22,0h0a10.05,10.05,0,0,1,0,14.22L164.27,294a10.05,10.05,0,0,0,0,14.22l.4.4a10.05,10.05,0,0,0,14.22,0l47.5-47.5a10.05,10.05,0,0,1,14.22,0l.1.1a10.05,10.05,0,0,1,0,14.22L171.65,344.5a10.05,10.05,0,0,0,0,14.22l.41.41a10.05,10.05,0,0,0,14.22,0l24.84-24.84a10.05,10.05,0,0,1,14.22,0l.4.4A10.05,10.05,0,0,1,225.74,348.9Z"/><rect class="cls-2" x="149.28" y="206.69" width="20.25" height="40.39" rx="10.12" ry="10.12" transform="translate(207.12 -46.26) rotate(45)"/><circle class="cls-3" cx="91.9" cy="381.4" r="71.66" transform="translate(-242.78 176.7) rotate(-45)"/><rect class="cls-2" x="255.05" y="216.69" width="20.25" height="39.94" rx="10.12" ry="10.12" transform="translate(245.01 -118.19) rotate(45)"/><rect class="cls-1" x="429.31" y="85.97" width="20.25" height="127.11" rx="10.12" ry="10.12" transform="translate(234.44 -266.93) rotate(45)"/><rect class="cls-1" x="349.19" y="43.98" width="20.25" height="23.26" rx="10.12" ry="10.12" transform="translate(144.56 -237.79) rotate(45)"/><rect class="cls-1" x="385.22" y="-3.92" width="20.25" height="46.99" rx="10.12" ry="10.12" transform="translate(129.64 -273.81) rotate(45)"/><rect class="cls-1" x="273.55" y="50.49" width="20.25" height="46.99" rx="10.12" ry="10.12" transform="translate(135.4 -178.91) rotate(45)"/></g></g></svg>