<svg xmlns="http://www.w3.org/2000/svg" viewBox="0 0 376.43 383.49"><defs><style>.cls-1{fill:gray;opacity:0.2;}.cls-2{fill:#666;}.cls-3{fill:#4d4d4d;}</style></defs><title>Haumea</title><g id="Capa_2" data-name="Capa 2"><g id="Capa_1-2" data-name="Capa 1"><path class="cls-1" d="M44.65,85.72,61.11,66.44C89.39,36.82,123.78,16.78,159.47,7A189.69,189.69,0,0,1,225.94.67c31.58,2.74,61.85,13.91,87.47,34q2.78,2.16,5.46,4.47a162,162,0,0,1,48.33,72.31,177.2,177.2,0,0,1,6.69,27,192.45,192.45,0,0,1,.83,56.88c-4.84,36.67-19.93,73.46-45.34,105.59q-2.76,3.49-5.68,6.91a227.17,227.17,0,0,1-16.15,17c-1.14,1.09-2.29,2.16-3.45,3.21a218.65,218.65,0,0,1-46.64,32.6,207.13,207.13,0,0,1-36.14,14.65,189.15,189.15,0,0,1-75.18,7.11h0a167.21,167.21,0,0,1-50.84-13.92h0a159.58,159.58,0,0,1-37.55-23.93l-.16-.14-.69-.6c-25.92-22.47-43-51.73-51.22-83.87h0A190,190,0,0,1,1.55,189.5a207.08,207.08,0,0,1,8.08-36.73A218.63,218.63,0,0,1,35.76,98.2q2-3,4.08-5.94Q42.16,89,44.65,85.72Z"/><path class="cls-2" d="M51.54,90.36,67.22,72c26.93-28.21,59.68-47.29,93.67-56.64a180.65,180.65,0,0,1,63.31-6c30.08,2.61,58.91,13.24,83.3,32.35q2.64,2.06,5.2,4.25a154.24,154.24,0,0,1,46,68.87,168.76,168.76,0,0,1,6.37,25.7,183.29,183.29,0,0,1,.79,54.17c-4.61,34.92-19,70-43.18,100.56q-2.63,3.33-5.41,6.58a216.35,216.35,0,0,1-15.38,16.21c-1.09,1-2.18,2.06-3.29,3.06a208.24,208.24,0,0,1-44.42,31,197.26,197.26,0,0,1-34.42,14,180.14,180.14,0,0,1-71.6,6.77h0a159.24,159.24,0,0,1-48.42-13.25h0A152,152,0,0,1,64,336.84l-.16-.13-.66-.57c-24.69-21.4-41-49.27-48.78-79.87h0A180.93,180.93,0,0,1,10.5,189.2a197.22,197.22,0,0,1,7.7-35,208.21,208.21,0,0,1,24.88-52Q45,99.41,47,96.6,49.18,93.45,51.54,90.36Z"/><path class="cls-3" d="M51.54,90.36,67.22,72c26.93-28.21,59.68-47.29,93.67-56.64a180.65,180.65,0,0,1,63.31-6c30.08,2.61,58.91,13.24,83.3,32.35q2.64,2.06,5.2,4.25a154.24,154.24,0,0,1,46,68.87c-7.68,8.14-19.69,9.54-27.34,3L254.66,52.32c-7.93-6.77-20.53-5-28.15,3.91h0c-7.62,8.93-7.38,21.65.55,28.42l106.06,90.58c7.93,6.77,8.17,19.49.55,28.42h0c-7.62,8.93-20.23,10.68-28.15,3.91l-71.83-61.35c-7.93-6.77-20.53-5-28.15,3.91h0c-7.62,8.93-7.38,21.65.55,28.42l96.28,82.22c7.93,6.77,8.17,19.49.55,28.42h0c-7.62,8.93-20.23,10.68-28.15,3.91L158.87,194.19c-7.93-6.77-20.53-5-28.15,3.91h0c-7.62,8.93-7.38,21.65.55,28.42l96.28,82.22c7.93,6.77,8.17,19.49.55,28.42h0c-7.62,8.93-20.23,10.68-28.15,3.91L64.53,225.46c-7.93-6.77-20.53-5-28.16,3.91h0c-7.62,8.93-7.38,21.65.55,28.42l76.72,65.52c7.93,6.77,8.17,19.49.54,28.42h0a22.48,22.48,0,0,1-14.41,7.89h0A152,152,0,0,1,64,336.84l-.16-.13-.66-.57c-24.69-21.4-41-49.27-48.78-79.87h0A180.93,180.93,0,0,1,10.5,189.2a197.22,197.22,0,0,1,7.7-35,208.21,208.21,0,0,1,24.88-52Q45,99.41,47,96.6,49.18,93.45,51.54,90.36Z"/></g></g></svg>