<svg xmlns="http://www.w3.org/2000/svg" viewBox="0 0 1400 875"><defs><style>.cls-1{fill:#000015;}.cls-2{opacity:0.9;}.cls-3{fill:#ea2c18;}.cls-4{fill:#ed6d15;}.cls-11,.cls-5{fill:gray;}.cls-6{fill:#4d4d4d;}.cls-7{fill:#9cb3e8;}.cls-11,.cls-7{opacity:0.2;}.cls-8{fill:#2463d3;}.cls-9{fill:#1dee3a;}.cls-10{fill:#fff;}.cls-12{opacity:0.7;}.cls-13{fill:#556080;}.cls-14{fill:#bdc3c7;}.cls-15{fill:#ecf0f1;}.cls-16{fill:#8697cb;}.cls-17{fill:#0096e6;}</style></defs><title>Hero-SS</title><g id="Capa_2" data-name="Capa 2"><g id="Capa_1-2" data-name="Capa 1"><rect class="cls-1" width="1400" height="875"/><g class="cls-2"><circle class="cls-3" cx="1140.94" cy="270.6" r="86.16" transform="translate(56.79 717.35) rotate(-35.74)"/><path class="cls-3" d="M1311.17,124.14l.08.11a9.42,9.42,0,0,0,13.15,2.15l71.84-51.69A9.19,9.19,0,0,1,1400,73.1V95.8l-46.47,33.44a9.42,9.42,0,0,0-2.14,13.15l.07.11a9.44,9.44,0,0,0,13.16,2.14l6.4-4.6a9.42,9.42,0,0,1,13.15,2.14l.56.77a9.42,9.42,0,0,1-2.15,13.15L1287,224.92a9.42,9.42,0,0,0-2.14,13.15l.07.11a9.43,9.43,0,0,0,13.16,2.14l102-73.37v23.39L1198.92,335a9.08,9.08,0,0,1-2.07,1.12,9.42,9.42,0,0,1-11.09-3.26l-5.12-7.11-.46-.65-4.78-6.64-.7-1,0,0-4.62-6.42-5.34-7.43-5.35-7.43-5.35-7.43-5.34-7.43-5.35-7.43-5.34-7.42-5.35-7.43-5.34-7.44-5.35-7.42-5.34-7.43-5.35-7.43-4-5.62-1.78-2.47-3.73-5.18-.49-.69-5.09-7.07a9.44,9.44,0,0,1,.42-11.56,9.67,9.67,0,0,1,1.72-1.59L1322,34.2a9.42,9.42,0,0,1,13.15,2.15l.08.1A9.43,9.43,0,0,1,1333,49.61l-77.79,56a9.42,9.42,0,0,0-2.14,13.15l.07.11a9.43,9.43,0,0,0,13.16,2.15L1400,24.81V48.6L1313.31,111A9.43,9.43,0,0,0,1311.17,124.14Z"/><path class="cls-4" d="M1269.69,260.72l-81.86,58.9a9.42,9.42,0,0,1-13.15-2.15l-67.47-93.76a9.42,9.42,0,0,1,2.15-13.15l75.91-54.62a9.42,9.42,0,0,1,13.15,2.15l.08.11a9.42,9.42,0,0,1-2.15,13.15l-9.48,6.82a9.42,9.42,0,0,0-2.15,13.15l.32.44a9.42,9.42,0,0,0,13.15,2.15L1285,131.44a9.42,9.42,0,0,1,13.15,2.15h0a9.42,9.42,0,0,1-2.15,13.15l-74.92,53.91a9.42,9.42,0,0,0-2.15,13.15l.31.43a9.42,9.42,0,0,0,13.15,2.15l51.12-36.79a9.42,9.42,0,0,1,13.15,2.15l.08.11a9.42,9.42,0,0,1-2.15,13.15l-74.32,53.48a9.42,9.42,0,0,0-2.15,13.15l.32.44a9.42,9.42,0,0,0,13.15,2.15L1258.37,245a9.42,9.42,0,0,1,13.15,2.15l.31.43A9.42,9.42,0,0,1,1269.69,260.72Z"/><circle class="cls-5" cx="1140.94" cy="270.6" r="67.18" transform="translate(56.79 717.35) rotate(-35.74)"/><path class="cls-6" d="M1197.42,233.89a68.54,68.54,0,0,1-18.55,93.17,4.57,4.57,0,0,1-5.69-1.72h0a4.57,4.57,0,0,1,1.39-6.31l2.67-1.71a4.57,4.57,0,0,0,1.39-6.31h0a4.57,4.57,0,0,0-6.31-1.38l-27,17.25a4.57,4.57,0,0,1-6.31-1.39h0a4.57,4.57,0,0,1,1.38-6.31l36.94-23.63a4.57,4.57,0,0,0,1.39-6.31h0a4.57,4.57,0,0,0-6.31-1.39l-30.1,19.25a4.57,4.57,0,0,1-4.92-7.7l45.06-28.82a4.57,4.57,0,0,0,1.39-6.31h0a4.57,4.57,0,0,0-6.31-1.39l-60,38.39a4.57,4.57,0,0,1-6.31-1.39h0a4.57,4.57,0,0,1,1.38-6.31l40.07-25.63a4.57,4.57,0,0,0,1.39-6.31h0a4.57,4.57,0,0,0-6.31-1.39l-20.12,12.87a4.57,4.57,0,0,1-6.31-1.39h0a4.57,4.57,0,0,1,1.38-6.31l18-11.48a4.57,4.57,0,0,0,1.39-6.31h0a4.57,4.57,0,0,0-6.31-1.39l-35.08,22.44a4.57,4.57,0,0,1-4.92-7.7l45.78-29.28a4.57,4.57,0,0,0,1.39-6.31h0a4.57,4.57,0,0,0-6.31-1.39l-37.17,23.78a4.57,4.57,0,0,1-6.31-1.39h0a4.57,4.57,0,0,1,1.39-6.31l18.68-11.95a4.57,4.57,0,0,0,1.39-6.31h0a4.57,4.57,0,0,0-6.31-1.38l-.18.11a4.57,4.57,0,0,1-6.31-1.39h0a4.57,4.57,0,0,1,1.31-6.25A68.54,68.54,0,0,1,1197.42,233.89Z"/></g><path class="cls-7" d="M955.05,872.93H2.6V668.57a570.47,570.47,0,0,1,252-152.46c.95-.28,1.9-.56,2.84-.81C549.37,431.47,854.09,590.16,955.05,872.93Z"/><path class="cls-8" d="M905.07,872.93H2.6v-133A524.84,524.84,0,0,1,309.39,550.71c.89-.18,1.79-.36,2.66-.52,5.37-1.08,10.77-2.07,16.14-3h0C576,505.37,815.41,644.94,905.07,872.93Z"/><path class="cls-9" d="M905.07,872.93H598.75A35.07,35.07,0,0,0,562,857.18l-77.1,15.75H293.06a35.08,35.08,0,0,1,27.86-38.13l318-64.94a35.07,35.07,0,1,0-14-68.73l-408.9,83.52a35.09,35.09,0,0,1-41.4-27.35,33.86,33.86,0,0,1-.58-4,35.07,35.07,0,0,1,27.93-37.36l60.4-12.34,189.36-38.68a35.08,35.08,0,1,0-14-68.75L347,614.64a35.09,35.09,0,0,1-18.82-67.42h0C576,505.37,815.41,644.94,905.07,872.93Z"/><path class="cls-9" d="M30.95,787.47l.06.32A34.94,34.94,0,0,0,72.22,815a34.89,34.89,0,0,1,41.2,27.23l.06.29a34.84,34.84,0,0,1-8.28,30.39H2.6v-133a527.71,527.71,0,0,1,62.77-66.69l24.23-5a34.92,34.92,0,0,1,41.21,27.23l.06.32A34.91,34.91,0,0,1,103.64,737l-45.47,9.29A34.9,34.9,0,0,0,30.95,787.47Z"/><rect class="cls-10" x="203.26" y="647.84" width="282.24" height="70.17" rx="35.08" ry="35.08" transform="translate(-129.7 82.73) rotate(-11.54)"/><path class="cls-11" d="M1079.18,581.51l10-11.76a122,122,0,0,1,62.12-34.47,123.43,123.43,0,0,1,43.28-1.52,121.89,121.89,0,0,1,58.55,25.16q1.9,1.49,3.75,3.08a122.54,122.54,0,0,1,16.84,168.6q-1.67,2.14-3.45,4.22a123.19,123.19,0,0,1-9.93,10.32c-.71.65-1.42,1.3-2.14,1.93a121.86,121.86,0,0,1-52.4,27.21A123.08,123.08,0,0,1,1156.9,776h0a121.93,121.93,0,0,1-33.81-10.88h0a122.63,122.63,0,0,1-25.49-16.81l-.11-.1-.48-.41A122.07,122.07,0,0,1,1060.28,692h0a123,123,0,0,1-1.47-68.69,121.73,121.73,0,0,1,15-34.07q1.18-1.85,2.44-3.66Q1077.68,583.5,1079.18,581.51Z"/><path class="cls-5" d="M1083.87,584.76l9.57-11.2a116.17,116.17,0,0,1,59.16-32.83,117.55,117.55,0,0,1,41.22-1.44,116.09,116.09,0,0,1,55.76,24q1.81,1.42,3.57,2.93a116.71,116.71,0,0,1,16,160.57q-1.59,2-3.29,4a117.32,117.32,0,0,1-9.45,9.83c-.67.62-1.35,1.24-2,1.84a116.05,116.05,0,0,1-49.9,25.91,117.22,117.22,0,0,1-46.61,1.63h0a116.12,116.12,0,0,1-32.2-10.36h0a116.79,116.79,0,0,1-24.28-16l-.11-.09-.45-.39a116.25,116.25,0,0,1-35-53.18h0a117.17,117.17,0,0,1-1.4-65.42,115.93,115.93,0,0,1,14.31-32.44q1.13-1.76,2.33-3.49Q1082.44,586.66,1083.87,584.76Z"/><path class="cls-6" d="M1083.87,584.76l9.57-11.2a116.17,116.17,0,0,1,59.16-32.83,117.55,117.55,0,0,1,41.22-1.44,116.09,116.09,0,0,1,55.76,24q1.81,1.42,3.57,2.93a116.17,116.17,0,0,1,32.75,46,13,13,0,0,1-17.79.89l-52.72-45a13,13,0,0,0-18.28,1.44h0a13,13,0,0,0,1.44,18.28L1271.42,650a13,13,0,0,1,1.44,18.28h0a13,13,0,0,1-18.28,1.44l-49.36-42.16a13,13,0,0,0-18.28,1.44h0a13,13,0,0,0,1.44,18.28l66.16,56.5A13,13,0,0,1,1256,722.1h0a13,13,0,0,1-18.28,1.44l-79.6-68a13,13,0,0,0-18.28,1.44h0a13,13,0,0,0,1.44,18.28l66.16,56.5a13,13,0,0,1,1.44,18.28h0a13,13,0,0,1-18.28,1.44l-93-79.45a13,13,0,0,0-18.28,1.44h0a13,13,0,0,0,1.44,18.28l52.72,45a13,13,0,0,1,1.44,18.28h0a12.89,12.89,0,0,1-9.14,4.52h0a116.79,116.79,0,0,1-24.28-16l-.11-.09-.45-.39a116.25,116.25,0,0,1-35-53.18h0a117.17,117.17,0,0,1-1.4-65.42,115.93,115.93,0,0,1,14.31-32.44q1.13-1.76,2.33-3.49Q1082.44,586.66,1083.87,584.76Z"/><g class="cls-12"><circle class="cls-3" cx="119.18" cy="380.85" r="19.57" transform="translate(-122.76 63.49) rotate(-19.94)"/><path class="cls-3" d="M124,451.52l-22.49-62a2.14,2.14,0,0,1,1.28-2.74l32.78-11.89a2.14,2.14,0,0,1,2.74,1.28L159.67,435a2.14,2.14,0,0,1-1.28,2.74h0a2.14,2.14,0,0,1-2.74-1.28L148.19,416a2.14,2.14,0,0,0-2.74-1.28h0a2.14,2.14,0,0,0-1.28,2.74l13.1,36.12a2.14,2.14,0,0,1-1.28,2.74l-.1,0a2.14,2.14,0,0,1-2.74-1.28l-9.7-26.73a2.14,2.14,0,0,0-2.74-1.28h0a2.14,2.14,0,0,0-1.28,2.74l6.86,18.9a2.14,2.14,0,0,1-1.28,2.74l-.1,0a2.14,2.14,0,0,1-2.74-1.28l-5.15-14.2a2.14,2.14,0,0,0-2.74-1.28h0a2.14,2.14,0,0,0-1.28,2.74l.61,1.68a2.14,2.14,0,0,1-1.28,2.74l-.2.07a2.14,2.14,0,0,1-2.74-1.28l-9.13-25.16a2.14,2.14,0,0,0-2.74-1.28h0a2.14,2.14,0,0,0-1.28,2.74l12,33a2.14,2.14,0,0,1-1.28,2.74h0A2.14,2.14,0,0,1,124,451.52Z"/><path class="cls-4" d="M113.38,409.61l-7.81-21.54a2.14,2.14,0,0,1,1.28-2.74l24.67-9a2.14,2.14,0,0,1,2.74,1.28l7.25,20a2.14,2.14,0,0,1-1.28,2.74h0a2.14,2.14,0,0,1-2.74-1.28l-.91-2.49a2.14,2.14,0,0,0-2.74-1.28l-.12,0a2.14,2.14,0,0,0-1.28,2.74l8.29,22.84a2.14,2.14,0,0,1-1.28,2.74h0a2.14,2.14,0,0,1-2.74-1.28l-7.15-19.71a2.14,2.14,0,0,0-2.74-1.28l-.11,0a2.14,2.14,0,0,0-1.28,2.74l4.88,13.45a2.14,2.14,0,0,1-1.28,2.74h0a2.14,2.14,0,0,1-2.74-1.28l-7.1-19.55a2.14,2.14,0,0,0-2.74-1.28l-.12,0a2.14,2.14,0,0,0-1.28,2.74l2.55,7a2.14,2.14,0,0,1-1.28,2.74l-.11,0A2.14,2.14,0,0,1,113.38,409.61Z"/><circle class="cls-4" cx="119.18" cy="380.85" r="15.26" transform="translate(-122.76 63.49) rotate(-19.94)"/><path class="cls-4" d="M123.72,395.47a15.57,15.57,0,0,1-19.22-9.82,1,1,0,0,1,.73-1.14h0a1,1,0,0,1,1.29.69l.21.69a1,1,0,0,0,1.29.69h0a1,1,0,0,0,.69-1.29l-2.1-7a1,1,0,0,1,.69-1.29h0a1,1,0,0,1,1.29.69l2.88,9.54a1,1,0,0,0,1.29.69h0a1,1,0,0,0,.69-1.29l-2.35-7.77a1,1,0,0,1,2-.6l3.51,11.63a1,1,0,0,0,1.29.69h0a1,1,0,0,0,.69-1.29l-4.68-15.49a1,1,0,0,1,.69-1.29h0a1,1,0,0,1,1.29.69L119,383.58a1,1,0,0,0,1.29.69h0A1,1,0,0,0,121,383l-1.57-5.2a1,1,0,0,1,.69-1.29h0a1,1,0,0,1,1.29.69l1.4,4.63a1,1,0,0,0,1.29.69h0a1,1,0,0,0,.69-1.29l-2.74-9.06a1,1,0,0,1,2-.6l3.57,11.82a1,1,0,0,0,1.29.69h0a1,1,0,0,0,.69-1.29l-2.9-9.6a1,1,0,0,1,.69-1.29h0a1,1,0,0,1,1.29.69l1.46,4.82a1,1,0,0,0,1.29.69h0a1,1,0,0,0,.69-1.29v0a1,1,0,0,1,.69-1.29h0a1,1,0,0,1,1.29.67A15.57,15.57,0,0,1,123.72,395.47Z"/><path class="cls-13" d="M98.07,375.26l-8.34,3a1.75,1.75,0,0,0-.59.36,1.78,1.78,0,0,0-.41.56L78.37,401.26l-2.65.95a1.78,1.78,0,0,0,1.2,3.36l8.34-3a1.78,1.78,0,0,0-1.2-3.36l-1,.35,8.53-18.21,7.65-2.74a1.78,1.78,0,0,0-1.2-3.36Z"/><path class="cls-13" d="M165.81,369.9l-2.65.95-22-10.48a1.79,1.79,0,0,0-1.36-.07l-8.34,3a1.78,1.78,0,0,0,1.2,3.36l7.65-2.74,18.16,8.64-1,.35a1.78,1.78,0,0,0,1.2,3.36l8.34-3a1.78,1.78,0,0,0-1.2-3.36Z"/><path class="cls-13" d="M124.1,384.86l-1.67.6-4.21-11.75a1.77,1.77,0,1,0-3.34,1.2l4.21,11.75-1.67.6a1.78,1.78,0,0,0,1.2,3.36l6.67-2.39a1.78,1.78,0,0,0-1.2-3.36Z"/><rect class="cls-14" x="94.94" y="360.72" width="35.44" height="5.49" transform="translate(-116.09 59.37) rotate(-19.73)"/><path class="cls-15" d="M86.46,290.41h0a18.41,18.41,0,0,0-10,8.66h0a37.94,37.94,0,0,0-2.23,30.68l16,44.54,6.67-2.39-1.81-5,33.36-12,1.81,5,6.67-2.39-16-44.54A37.94,37.94,0,0,0,99.7,290.73h0A18.41,18.41,0,0,0,86.46,290.41Z"/><polygon class="cls-16" points="119.44 308.88 72.74 325.63 73.94 328.99 105.64 317.62 108.64 326.01 111.98 324.81 108.97 316.43 120.65 312.24 119.44 308.88"/><rect class="cls-16" x="117.27" y="341.72" width="3.54" height="16.04" transform="translate(-111.08 60.72) rotate(-19.73)"/><ellipse class="cls-17" cx="92.65" cy="360.16" rx="1.77" ry="1.78" transform="translate(-116.15 52.42) rotate(-19.73)"/><ellipse class="cls-17" cx="99.32" cy="357.76" rx="1.77" ry="1.78" transform="translate(-114.95 54.54) rotate(-19.73)"/><ellipse class="cls-17" cx="105.99" cy="355.37" rx="1.77" ry="1.78" transform="translate(-113.75 56.65) rotate(-19.73)"/><ellipse class="cls-17" cx="112.67" cy="352.98" rx="1.77" ry="1.78" transform="translate(-112.55 58.76) rotate(-19.73)"/><ellipse class="cls-17" cx="126.01" cy="348.19" rx="1.77" ry="1.78" transform="translate(-110.15 62.98) rotate(-19.73)"/><polygon class="cls-13" points="88.38 369.26 79.44 370.57 78.24 367.22 85.98 362.55 88.38 369.26"/><polygon class="cls-13" points="132.69 345.8 141.63 344.48 142.83 347.84 135.09 352.51 132.69 345.8"/><ellipse class="cls-13" cx="113.32" cy="333.8" rx="8.86" ry="8.91" transform="translate(-106.04 57.85) rotate(-19.73)"/><path class="cls-16" d="M116.93,343.87a10.7,10.7,0,1,1,6.4-13.66A10.68,10.68,0,0,1,116.93,343.87Zm-6-16.78a7.13,7.13,0,1,0,9.08,4.32A7.12,7.12,0,0,0,110.91,327.09Z"/><polygon class="cls-14" points="76.95 337.38 78.15 340.74 89.83 336.55 90.43 338.23 78.75 342.41 79.96 345.77 91.64 341.58 92.24 343.26 80.56 347.45 81.76 350.8 93.44 346.62 94.04 348.29 82.36 352.48 83.57 355.84 98.58 350.45 91.96 332 76.95 337.38"/><rect class="cls-13" x="97.32" y="365.6" width="35.44" height="8.97" transform="translate(-118.19 60.56) rotate(-19.73)"/></g></g></g></svg>