<svg xmlns="http://www.w3.org/2000/svg" viewBox="0 0 575.52 575.52"><defs><style>.cls-1,.cls-4{fill:#f68f54;}.cls-1{opacity:0.3;}.cls-2{fill:#feffdd;}.cls-3{fill:#fde88d;}</style></defs><title>Júpiter</title><g id="Capa_2" data-name="Capa 2"><g id="Capa_1-2" data-name="Capa 1"><path class="cls-1" d="M575.52,287.76c0,155.11-122.73,281.56-276.38,287.53q-5.67.22-11.38.22C128.84,575.52,0,446.68,0,287.76S128.84,0,287.76,0h1.48C447.47.81,575.52,129.34,575.52,287.76Z"/><path class="cls-2" d="M548.82,331.23q-.79,5.05-1.76,10A263,263,0,0,1,470.88,481a265.76,265.76,0,0,1-77.66,51.79,262.7,262.7,0,0,1-135.88,20.17q-5.18-.6-10.36-1.41A264.18,264.18,0,0,1,25.14,261.32q.65-5.82,1.56-11.66a266,266,0,0,1,6.52-30.19c.56-2,1.13-4,1.73-6a262.84,262.84,0,0,1,65.29-109.24,265.48,265.48,0,0,1,87.84-58.56h0A262.92,262.92,0,0,1,328.54,29.38l1.34.22a263.08,263.08,0,0,1,130.6,60.84h0A265.25,265.25,0,0,1,541,214.79a262.17,262.17,0,0,1,11,79.5q-.07,4.73-.33,9.47A264.49,264.49,0,0,1,548.82,331.23Z"/><path class="cls-3" d="M548.82,331.23q-.79,5.05-1.76,10l-49.47-8.59L354.26,316.07,264,296.76,134.79,279.67,25.14,261.32q.65-5.82,1.56-11.66a266,266,0,0,1,6.52-30.19c.56-2,1.13-4,1.73-6l517,80.77q-.07,4.73-.33,9.47A264.49,264.49,0,0,1,548.82,331.23Z"/><path class="cls-4" d="M407.58,276.72c-5.56-4-98.15-15.38-106.35-10.25-8,5-191-39.09-197.47-40.79,0,.25-37.88-3.2-70.55-6.2.56-2,1.13-4,1.73-6a262.19,262.19,0,0,1,32-68.33l67.61,13.28,53.22.19,91.3,19.14,213.4,28.46L541,214.79a262.17,262.17,0,0,1,11,79.5q-.07,4.73-.33,9.47C501,296.2,439,287.13,439,288,444.71,290.36,413.15,280.72,407.58,276.72Z"/><path class="cls-4" d="M521.74,167.65,424.14,156,298.22,124.52,135.85,112.76l-35.62-8.49a265.48,265.48,0,0,1,87.84-58.56h0L244,52.36,369.87,83.89l90.6,6.55h0A265.92,265.92,0,0,1,521.74,167.65Z"/><path class="cls-4" d="M470.88,481a265.76,265.76,0,0,1-77.66,51.79l-41.63.66L205.31,499.74l-106-24a265.39,265.39,0,0,1-46.39-64L145.24,420l103,33.41,99.22,23.08,109.67,4.68Z"/></g></g></svg>