<svg xmlns="http://www.w3.org/2000/svg" viewBox="0 0 103.4 103.4"><defs><style>.cls-1,.cls-2{fill:gray;}.cls-1{opacity:0.2;}.cls-3{fill:#4d4d4d;}</style></defs><title>Luna</title><g id="Capa_2" data-name="Capa 2"><g id="Capa_1-2" data-name="Capa 1"><path class="cls-1" d="M20.74,10.3,26.2,6.73A51.44,51.44,0,0,1,55.43.14a52.06,52.06,0,0,1,17.7,4.51A51.41,51.41,0,0,1,93.85,21.77q.59.83,1.15,1.69A51.68,51.68,0,0,1,81.85,93.7q-.93.67-1.9,1.3a52,52,0,0,1-5.24,3l-1.09.53a51.39,51.39,0,0,1-24.43,4.81,51.91,51.91,0,0,1-20-5.11h0a51.42,51.42,0,0,1-12.4-8.41h0A51.72,51.72,0,0,1,8.44,80l0-.05-.14-.22A51.48,51.48,0,0,1,0,52.77H0a51.89,51.89,0,0,1,7.54-28,51.34,51.34,0,0,1,10.12-12q.7-.61,1.42-1.19T20.74,10.3Z"/><path class="cls-2" d="M22.26,12.17l5.2-3.4A49,49,0,0,1,55.29,2.49a49.58,49.58,0,0,1,16.85,4.3,49,49,0,0,1,19.73,16.3q.56.79,1.1,1.61A49.22,49.22,0,0,1,80.45,91.6q-.89.64-1.81,1.24a49.48,49.48,0,0,1-5,2.86l-1,.5a48.94,48.94,0,0,1-23.27,4.58,49.44,49.44,0,0,1-19.06-4.86h0a49,49,0,0,1-11.81-8h0a49.25,49.25,0,0,1-7.93-9.35l0,0-.14-.21A49,49,0,0,1,2.51,52.62h0A49.41,49.41,0,0,1,9.69,26a48.89,48.89,0,0,1,9.64-11.44Q20,14,20.68,13.4T22.26,12.17Z"/><path class="cls-3" d="M22.26,12.17l5.2-3.4A49,49,0,0,1,55.29,2.49a49.58,49.58,0,0,1,16.85,4.3,49,49,0,0,1,19.73,16.3q.56.79,1.1,1.61a49,49,0,0,1,7.81,22.5,5.47,5.47,0,0,1-7.3-1.75L77.47,21A5.47,5.47,0,0,0,69.9,19.4h0A5.47,5.47,0,0,0,68.32,27L90.44,60.8a5.47,5.47,0,0,1-1.58,7.57h0a5.47,5.47,0,0,1-7.57-1.58l-15-22.91a5.47,5.47,0,0,0-7.57-1.58h0a5.47,5.47,0,0,0-1.58,7.57L77.23,80.58a5.47,5.47,0,0,1-1.58,7.57h0a5.47,5.47,0,0,1-7.57-1.58L43.91,49.62A5.47,5.47,0,0,0,36.34,48h0a5.47,5.47,0,0,0-1.58,7.57L54.84,86.32a5.47,5.47,0,0,1-1.58,7.57h0a5.47,5.47,0,0,1-7.57-1.58L17.44,49.13a5.47,5.47,0,0,0-7.57-1.58h0a5.47,5.47,0,0,0-1.58,7.57l16,24.47a5.47,5.47,0,0,1-1.58,7.57h0a5.44,5.44,0,0,1-4.23.75h0a49.25,49.25,0,0,1-7.93-9.35l0,0-.14-.21A49,49,0,0,1,2.51,52.62h0A49.41,49.41,0,0,1,9.69,26a48.89,48.89,0,0,1,9.64-11.44Q20,14,20.68,13.4T22.26,12.17Z"/></g></g></svg>