<svg xmlns="http://www.w3.org/2000/svg" viewBox="0 0 397.95 397.97"><defs><style>.cls-1,.cls-3{fill:#662929;}.cls-1{opacity:0.3;}.cls-2{fill:#994d4d;}</style></defs><title>Makemake</title><g id="Capa_2" data-name="Capa 2"><g id="Capa_1-2" data-name="Capa 1"><path class="cls-1" d="M292.64,23.45,314,36.64a198,198,0,0,1,70.74,91.07,200.34,200.34,0,0,1,13.19,69,197.85,197.85,0,0,1-25.79,100.17q-1.92,3.42-4,6.77a198.91,198.91,0,0,1-266.25,68.94q-3.85-2.15-7.63-4.49a200,200,0,0,1-19-13.35c-1.23-1-2.44-1.95-3.63-2.95a197.79,197.79,0,0,1-56.67-77.27A199.78,199.78,0,0,1,0,196.49H0a197.9,197.9,0,0,1,9-56.93h0A199,199,0,0,1,29.68,94.47l.13-.21.54-.87a198.14,198.14,0,0,1,80.44-72.79h0A199.69,199.69,0,0,1,220.6,1.16,197.58,197.58,0,0,1,279,16.79q3.25,1.44,6.48,3Q289.08,21.54,292.64,23.45Z"/><path class="cls-2" d="M288.6,31.79l20.34,12.56a188.56,188.56,0,0,1,67.37,86.73,190.8,190.8,0,0,1,12.57,65.75,188.42,188.42,0,0,1-24.56,95.4q-1.83,3.26-3.81,6.45a189.43,189.43,0,0,1-253.57,65.66q-3.67-2-7.27-4.28a190.43,190.43,0,0,1-18.12-12.72c-1.17-.92-2.33-1.86-3.46-2.81a188.37,188.37,0,0,1-54-73.59,190.27,190.27,0,0,1-14.2-74.36h0a188.48,188.48,0,0,1,8.61-54.22h0A189.56,189.56,0,0,1,38.16,99.42l.12-.2.52-.83a188.7,188.7,0,0,1,76.6-69.32h0A190.18,190.18,0,0,1,220,10.56a188.17,188.17,0,0,1,55.6,14.88q3.1,1.37,6.17,2.86Q285.2,30,288.6,31.79Z"/><path class="cls-3" d="M288.6,31.79l20.34,12.56a188.56,188.56,0,0,1,67.37,86.73,190.8,190.8,0,0,1,12.57,65.75,188.42,188.42,0,0,1-24.56,95.4q-1.83,3.26-3.81,6.45a188.57,188.57,0,0,1-65.65,64,21,21,0,0,1-5.86-28.3l59.11-95.76a21,21,0,0,0-6.86-29h0a21,21,0,0,0-29,6.86L230.57,348.85a21,21,0,0,1-29,6.86h0a21,21,0,0,1-6.86-29l55.34-89.66a21,21,0,0,0-6.86-29h0a21,21,0,0,0-29,6.86L140.08,335.13a21,21,0,0,1-29,6.86h0a21,21,0,0,1-6.86-29l89.24-144.58a21,21,0,0,0-6.86-29h0a21,21,0,0,0-29,6.86L83.48,266.49a21,21,0,0,1-29,6.86h0a21,21,0,0,1-6.86-29L152,75.39a21,21,0,0,0-6.86-29h0a21,21,0,0,0-29,6.86L57,149a21,21,0,0,1-29,6.85h0a20.93,20.93,0,0,1-9.52-13.53h0A189.56,189.56,0,0,1,38.16,99.42l.12-.2.52-.83a188.7,188.7,0,0,1,76.6-69.32h0A190.18,190.18,0,0,1,220,10.56a188.17,188.17,0,0,1,55.6,14.88q3.1,1.37,6.17,2.86Q285.2,30,288.6,31.79Z"/></g></g></svg>