<svg xmlns="http://www.w3.org/2000/svg" viewBox="0 0 470.23 470.23"><defs><style>.cls-1{fill:#ed4d15;opacity:0.3;}.cls-2{fill:#f76548;}.cls-3{fill:#f74c48;}</style></defs><title>Marte</title><g id="Capa_2" data-name="Capa 2"><g id="Capa_1-2" data-name="Capa 1"><path class="cls-1" d="M470.23,235.11c0,126.73-100.27,230-225.81,234.93q-4.63.18-9.3.18C105.27,470.23,0,365,0,235.11S105.27,0,235.11,0h1.21C365.61.66,470.23,105.67,470.23,235.11Z"/><path class="cls-2" d="M430.19,142.62c49.86,105.15,7.31,230.32-94.93,283.76q-3.77,2-7.64,3.81C219.88,481.27,91.12,435.34,40,327.61S34.88,91.12,142.62,40l1-.47C251.15-10.75,379.26,35.22,430.19,142.62Z"/><path class="cls-3" d="M430.22,142.69c49.86,105.15,7.31,230.32-94.93,283.76a14.39,14.39,0,0,1-17.11-7.62v0A14.39,14.39,0,0,1,325,399.66l9-4.28a14.39,14.39,0,0,0,6.84-19.16v0a14.39,14.39,0,0,0-19.17-6.83l-91.1,43.2a14.39,14.39,0,0,1-19.16-6.83h0a14.39,14.39,0,0,1,6.83-19.17l124.8-59.18a14.39,14.39,0,0,0,6.84-19.16h0a14.39,14.39,0,0,0-19.17-6.84L229,349.58a14.39,14.39,0,0,1-12.33-26L368.94,251.4a14.39,14.39,0,0,0,6.84-19.16h0a14.39,14.39,0,0,0-19.17-6.84L153.84,321.53a14.39,14.39,0,0,1-19.16-6.83h0a14.39,14.39,0,0,1,6.83-19.17l135.38-64.19a14.39,14.39,0,0,0,6.84-19.16h0a14.39,14.39,0,0,0-19.17-6.84l-68,32.24a14.39,14.39,0,0,1-19.16-6.83h0a14.39,14.39,0,0,1,6.83-19.17l60.65-28.76a14.39,14.39,0,0,0,6.84-19.16h0a14.39,14.39,0,0,0-19.17-6.84L114,213a14.39,14.39,0,0,1-12.33-26l154.67-73.34a14.39,14.39,0,0,0,6.84-19.16h0A14.39,14.39,0,0,0,244,87.63L118.44,147.18a14.39,14.39,0,0,1-19.16-6.83v0a14.39,14.39,0,0,1,6.83-19.16l63.1-29.92A14.39,14.39,0,0,0,176,72.09v0a14.39,14.39,0,0,0-19.17-6.83l-.61.29a14.39,14.39,0,0,1-19.16-6.83v0a14.38,14.38,0,0,1,6.57-19C251.18-10.67,379.3,35.3,430.22,142.69Z"/></g></g></svg>