<svg xmlns="http://www.w3.org/2000/svg" viewBox="0 0 390.82 390.82"><defs><style>.cls-1,.cls-3{fill:#4d4d4d;}.cls-1{opacity:0.3;}.cls-2{fill:gray;}</style></defs><title>Mercurio</title><g id="Capa_2" data-name="Capa 2"><g id="Capa_1-2" data-name="Capa 1"><path class="cls-1" d="M390.82,195.41c0,105.33-83.34,191.2-187.68,195.26q-3.85.15-7.73.15C87.49,390.82,0,303.33,0,195.41S87.49,0,195.41,0h1C303.87.55,390.82,87.83,390.82,195.41Z"/><path class="cls-2" d="M351.4,106.73a179.44,179.44,0,0,1-61.21,241q-3,1.87-6.1,3.63a179.44,179.44,0,1,1-177.35-312l.81-.45A179.44,179.44,0,0,1,351.4,106.73Z"/><path class="cls-3" d="M351.44,106.79a179.44,179.44,0,0,1-61.21,241,12,12,0,0,1-14.65-5.26h0a12,12,0,0,1,4.48-16.3l7.22-4.1a12,12,0,0,0,4.49-16.31h0a12,12,0,0,0-16.31-4.48l-72.85,41.41a12,12,0,0,1-16.3-4.48h0A12,12,0,0,1,190.77,322l99.8-56.73a12,12,0,0,0,4.49-16.31h0a12,12,0,0,0-16.31-4.49l-81.31,46.22a12,12,0,0,1-11.82-20.79l121.73-69.2a12,12,0,0,0,4.49-16.31h0a12,12,0,0,0-16.31-4.49L133.37,272a12,12,0,0,1-16.3-4.48h0a12,12,0,0,1,4.48-16.31L229.8,189.7a12,12,0,0,0,4.49-16.31h0A12,12,0,0,0,218,168.9l-54.37,30.91a12,12,0,0,1-16.3-4.48h0A12,12,0,0,1,151.78,179l48.5-27.57a12,12,0,0,0,4.49-16.31h0a12,12,0,0,0-16.31-4.49L93.67,184.52a12,12,0,0,1-11.82-20.79L205.54,93.42A12,12,0,0,0,210,77.11h0a12,12,0,0,0-16.31-4.49L93.29,129.71A12,12,0,0,1,77,125.22h0a12,12,0,0,1,4.48-16.3l50.46-28.68a12,12,0,0,0,4.49-16.31h0a12,12,0,0,0-16.31-4.48l-.48.28a12,12,0,0,1-16.3-4.48h0A12,12,0,0,1,107.57,39,179.44,179.44,0,0,1,351.44,106.79Z"/></g></g></svg>