<svg xmlns="http://www.w3.org/2000/svg" viewBox="0 0 290.82 290.82"><defs><style>.cls-1,.cls-2{fill:#feffdd;}.cls-1{opacity:0.1;}.cls-3{fill:#f74c48;}</style></defs><title>Pluton</title><g id="Capa_2" data-name="Capa 2"><g id="Capa_1-2" data-name="Capa 1"><path class="cls-1" d="M290.82,145.41a145.41,145.41,0,0,1-139.66,145.3q-2.86.11-5.75.11A145.41,145.41,0,1,1,145.41,0h.75A145.41,145.41,0,0,1,290.82,145.41Z"/><path class="cls-2" d="M51.15,240a133.53,133.53,0,0,1-4-185Q49,53,50.84,51.15A133.52,133.52,0,1,1,240,239.67l-.49.48A133.52,133.52,0,0,1,51.15,240Z"/><path class="cls-3" d="M51.15,240a133.53,133.53,0,0,1-4-185,8.9,8.9,0,0,1,11.55.87h0a8.9,8.9,0,0,1,0,12.58L54.4,72.79a8.9,8.9,0,0,0,0,12.58h0a8.9,8.9,0,0,0,12.58,0L111,41.2a8.9,8.9,0,0,1,12.58,0h0a8.9,8.9,0,0,1,0,12.58l-60.3,60.5a8.9,8.9,0,0,0,0,12.58h0a8.9,8.9,0,0,0,12.59,0l49.13-49.29A8.9,8.9,0,0,1,137.69,90.1L64.14,163.9a8.9,8.9,0,0,0,0,12.58h0a8.9,8.9,0,0,0,12.59,0l98-98.3a8.9,8.9,0,0,1,12.58,0h0a8.9,8.9,0,0,1,0,12.58l-65.42,65.63a8.9,8.9,0,0,0,0,12.58h0a8.9,8.9,0,0,0,12.59,0l32.85-33A8.9,8.9,0,0,1,180,136h0a8.9,8.9,0,0,1,0,12.58l-29.31,29.4a8.9,8.9,0,0,0,0,12.58h0a8.9,8.9,0,0,0,12.59,0l57.28-57.46a8.9,8.9,0,0,1,12.61,12.56l-74.74,75a8.9,8.9,0,0,0,0,12.58h0a8.9,8.9,0,0,0,12.59,0l60.68-60.88a8.9,8.9,0,0,1,12.58,0h0a8.9,8.9,0,0,1,0,12.58l-30.49,30.59a8.9,8.9,0,0,0,0,12.58h0a8.9,8.9,0,0,0,12.58,0l.29-.29a8.9,8.9,0,0,1,12.58,0h0a8.9,8.9,0,0,1,.15,12.45A133.52,133.52,0,0,1,51.15,240Z"/></g></g></svg>