<svg xmlns="http://www.w3.org/2000/svg" viewBox="0 0 741.75 741.75"><defs><style>.cls-1{fill:#db842e;opacity:0.2;}.cls-2,.cls-4{fill:#d19869;}.cls-3{fill:#e2c888;}.cls-4{opacity:0.6;}.cls-5{fill:none;}</style></defs><title>Saturno</title><g id="Capa_2" data-name="Capa 2"><g id="Capa_1-2" data-name="Capa 1"><path class="cls-1" d="M521.89,252.1l13.94,20.38a194.78,194.78,0,0,1,27.24,110.12,197.09,197.09,0,0,1-15.7,67.34,194.64,194.64,0,0,1-63.18,79.77q-3.09,2.31-6.31,4.49A195.68,195.68,0,0,1,211,489.9q-2.6-3.47-5.07-7.09a196.71,196.71,0,0,1-11.78-19.6c-.71-1.36-1.42-2.73-2.09-4.1a194.58,194.58,0,0,1-20.1-92.1,196.54,196.54,0,0,1,17.76-76.16h0a194.69,194.69,0,0,1,30.86-47.58h0A195.81,195.81,0,0,1,257.1,211l.2-.13.84-.56a194.92,194.92,0,0,1,101.38-33.33h0A196.45,196.45,0,0,1,466,203.3a194.37,194.37,0,0,1,46.25,37.36q2.35,2.59,4.62,5.29Q519.44,249,521.89,252.1Z"/><path class="cls-2" d="M514.92,258l13.28,19.41a185.5,185.5,0,0,1,25.94,104.88,187.7,187.7,0,0,1-15,64.13,185.37,185.37,0,0,1-60.17,76q-2.95,2.2-6,4.28a186.36,186.36,0,0,1-254.2-42.2q-2.48-3.3-4.83-6.75A187.34,187.34,0,0,1,202.77,459c-.68-1.3-1.35-2.6-2-3.91a185.31,185.31,0,0,1-19.15-87.72,187.18,187.18,0,0,1,16.92-72.53h0A185.42,185.42,0,0,1,228,249.56h0a186.49,186.49,0,0,1,34.79-30.76l.19-.13.8-.54a185.64,185.64,0,0,1,96.55-31.74h0A187.09,187.09,0,0,1,461.72,211.5a185.12,185.12,0,0,1,44,35.58q2.24,2.47,4.4,5Q512.6,255,514.92,258Z"/><path class="cls-3" d="M514.92,258l13.28,19.41a185.5,185.5,0,0,1,25.94,104.88,187.7,187.7,0,0,1-15,64.13,185.37,185.37,0,0,1-60.17,76q-2.95,2.2-6,4.28A185.51,185.51,0,0,1,388.45,558a20.7,20.7,0,0,1,6-27.79l91.38-62.5a20.7,20.7,0,0,0,5.4-28.78h0a20.7,20.7,0,0,0-28.78-5.4l-126.31,86.4a20.7,20.7,0,0,1-28.78-5.4h0a20.7,20.7,0,0,1,5.4-28.78l85.55-58.52a20.7,20.7,0,0,0,5.4-28.78h0a20.7,20.7,0,0,0-28.78-5.4L260.28,471.42A20.7,20.7,0,0,1,231.5,466h0a20.7,20.7,0,0,1,5.4-28.78l138-94.37a20.7,20.7,0,0,0,5.4-28.78h0a20.7,20.7,0,0,0-28.78-5.4L236.8,387.11a20.7,20.7,0,0,1-28.78-5.4h0a20.7,20.7,0,0,1,5.4-28.78l161.25-110.3a20.71,20.71,0,0,0,5.4-28.79h0a20.7,20.7,0,0,0-28.78-5.4l-91.38,62.5a20.71,20.71,0,0,1-28.78-5.41h0a20.59,20.59,0,0,1-3.16-16h0a186.49,186.49,0,0,1,34.79-30.76l.19-.13.8-.54a185.64,185.64,0,0,1,96.55-31.74h0A187.09,187.09,0,0,1,461.72,211.5a185.12,185.12,0,0,1,44,35.58q2.24,2.47,4.4,5Q512.6,255,514.92,258Z"/><path class="cls-4" d="M187.93,421.06S12,581,37.7,614.36C86.82,678,752.15,252.93,704.15,125.4c0,0-34.81-34.66-237.32,89.28L496,237.3s97.58-46,99.82-29.29c0,0-2.89,48.75-59.5,84.66S259.64,498.37,238.78,507.09,156,544,149.33,530.63s50.82-76.71,50.82-76.71Z"/><rect class="cls-5" width="741.75" height="741.75"/></g></g></svg>