<svg xmlns="http://www.w3.org/2000/svg" viewBox="0 0 493.97 493.97"><defs><style>.cls-1{fill:#9cb3e8;opacity:0.2;}.cls-2{fill:#2463d3;}.cls-3{fill:#1dee3a;}.cls-4{fill:#fff;}</style></defs><title>Tierra</title><g id="Capa_2" data-name="Capa 2"><g id="Capa_1-2" data-name="Capa 1"><path class="cls-1" d="M494,247c0,133.13-105.34,241.66-237.21,246.79q-4.86.19-9.77.19C110.58,494,0,383.38,0,247S110.58,0,247,0h1.27C384.07.69,494,111,494,247Z"/><path class="cls-2" d="M473,265.47c-10,121.84-114.49,213.28-235.57,208.1l-1.36-.06q-3.79-.18-7.6-.49a226.79,226.79,0,1,1,37-452.07l1.17.11c2.36.21,4.72.44,7.05.73C394.36,36,483,143.39,473,265.47Z"/><path class="cls-3" d="M473,265.47c-10,121.84-114.49,213.28-235.57,208.1l-1.35-.06h0a15.12,15.12,0,0,1,4.55-29.82l89.55,7.46A15.12,15.12,0,1,0,332.7,421L173.4,407.74a15.12,15.12,0,1,1,2.51-30.14l139.38,11.62a15.12,15.12,0,1,0,2.51-30.13l-99.51-8.3a15.12,15.12,0,1,1,2.51-30.14l119.45,10a15.12,15.12,0,1,0,2.51-30.14L203.37,288.87a15.12,15.12,0,1,1,2.51-30.14L415,276.16A15.12,15.12,0,1,0,417.53,246L148.61,223.61a15.12,15.12,0,1,1,2.51-30.14l179.24,14.94a15.12,15.12,0,1,0,2.51-30.14L233.35,170a15.12,15.12,0,1,1,2.51-30.14l139.38,11.62a15.11,15.11,0,1,0,2.51-30.13L198.51,106.4A15.12,15.12,0,1,1,201,76.27l109.48,9.13A15.12,15.12,0,1,0,313,55.26L273.3,51.95a15.12,15.12,0,0,1,.38-30.16h0C394.36,36,483,143.39,473,265.47Z"/><path class="cls-3" d="M121.65,85.18v.14a15.06,15.06,0,0,0,13.75,16.25,15,15,0,0,1,13.75,16.25v.13a15,15,0,0,1-16.25,13.75L83,127.54A15.05,15.05,0,0,0,66.8,141.29v.14a15,15,0,0,0,13.75,16.25l29.9,2.49a15,15,0,0,1,13.75,16.25v.14a15,15,0,0,1-16.25,13.75l-49.83-4.15A15.05,15.05,0,0,0,41.85,199.9V200a15.05,15.05,0,0,0,13.75,16.25l19.93,1.66A15,15,0,0,1,89.26,234.2v.14A15,15,0,0,1,73,248.08l-29.9-2.49a15.05,15.05,0,0,0-16.25,13.75v.14a15.05,15.05,0,0,0,13.75,16.25l89.69,7.48A15,15,0,0,1,144,299.45v.14a15,15,0,0,1-16.25,13.75l-19.93-1.66a15,15,0,0,0-16.25,13.75v.14a15.06,15.06,0,0,0,13.75,16.25,15,15,0,0,1,13.75,16.25v.13a15,15,0,0,1-16.25,13.75,15.05,15.05,0,0,0-16.25,13.75v.14a15,15,0,0,0,13.75,16.25l29.9,2.49a15,15,0,0,1,13.75,16.25V421a15,15,0,0,1-16.25,13.75l-9.13-.76A226.85,226.85,0,0,1,149.72,42.08l10.62.89a15,15,0,0,1,13.75,16.25v.14A15,15,0,0,1,157.83,73.1L137.9,71.43A15,15,0,0,0,121.65,85.18Z"/><rect class="cls-4" x="172.91" y="59.45" width="54.91" height="30.24" rx="15.12" ry="15.12" transform="translate(6.89 -16.39) rotate(4.77)"/><rect class="cls-4" x="163.6" y="243.48" width="126.99" height="30.24" rx="15.12" ry="15.12" transform="translate(22.27 -17.97) rotate(4.77)"/><rect class="cls-4" x="78.37" y="148.99" width="82.29" height="25.67" rx="12.83" ry="12.83" transform="translate(13.86 -9.37) rotate(4.77)"/><rect class="cls-4" x="183.54" y="426.17" width="121.48" height="26.87" rx="12.83" ry="12.83" transform="translate(37.36 -18.77) rotate(4.77)"/></g></g></svg>