<svg xmlns="http://www.w3.org/2000/svg" viewBox="0 0 581.67 502.39"><defs><style>.cls-1{fill:#9cb3e8;}.cls-1,.cls-5{opacity:0.2;}.cls-2{fill:#2463d3;}.cls-3{fill:#1dee3a;}.cls-4{fill:#fff;}.cls-5,.cls-6{fill:gray;}.cls-7{fill:#4d4d4d;}</style></defs><title>Tierra-Luna</title><g id="Capa_2" data-name="Capa 2"><g id="Capa_1-2" data-name="Capa 1"><path class="cls-1" d="M494,255.41c0,133.13-105.34,241.66-237.21,246.79q-4.86.19-9.77.19c-136.4,0-247-110.58-247-247s110.58-247,247-247h1.27C384.07,9.12,494,119.44,494,255.41Z"/><path class="cls-2" d="M473,273.9c-10,121.84-114.49,213.28-235.57,208.1l-1.36-.06q-3.79-.18-7.6-.49a226.79,226.79,0,1,1,37-452.07l1.17.11c2.36.21,4.72.44,7.05.73C394.36,44.44,483,151.82,473,273.9Z"/><path class="cls-3" d="M473,273.9c-10,121.84-114.49,213.28-235.57,208.1l-1.35-.06h0a15.12,15.12,0,0,1,4.55-29.82l89.55,7.46a15.12,15.12,0,1,0,2.51-30.14L173.4,416.16A15.12,15.12,0,1,1,175.91,386l139.38,11.62a15.12,15.12,0,1,0,2.51-30.13l-99.51-8.3a15.12,15.12,0,1,1,2.51-30.14l119.45,10a15.12,15.12,0,1,0,2.51-30.14L203.37,297.29a15.12,15.12,0,1,1,2.51-30.14L415,284.59a15.12,15.12,0,1,0,2.51-30.14L148.61,232a15.12,15.12,0,1,1,2.51-30.14l179.24,14.94a15.12,15.12,0,1,0,2.51-30.14l-99.51-8.3a15.12,15.12,0,1,1,2.51-30.14L375.24,159.9a15.11,15.11,0,1,0,2.51-30.13L198.51,114.83A15.12,15.12,0,1,1,201,84.69l109.48,9.13A15.12,15.12,0,1,0,313,63.68L273.3,60.37a15.12,15.12,0,0,1,.38-30.16h0C394.36,44.44,483,151.82,473,273.9Z"/><path class="cls-3" d="M121.65,93.61v.14A15.06,15.06,0,0,0,135.39,110a15,15,0,0,1,13.75,16.25v.13a15,15,0,0,1-16.25,13.75L83,136A15.05,15.05,0,0,0,66.8,149.72v.14a15,15,0,0,0,13.75,16.25l29.9,2.49a15,15,0,0,1,13.75,16.25V185a15,15,0,0,1-16.25,13.75l-49.83-4.15a15.05,15.05,0,0,0-16.25,13.75v.14a15.05,15.05,0,0,0,13.75,16.25l19.93,1.66a15,15,0,0,1,13.75,16.25v.14A15,15,0,0,1,73,256.51L43.1,254a15.05,15.05,0,0,0-16.25,13.75v.14a15.05,15.05,0,0,0,13.75,16.25l89.69,7.48A15,15,0,0,1,144,307.88V308a15,15,0,0,1-16.25,13.75l-19.93-1.66a15,15,0,0,0-16.25,13.75V334a15.06,15.06,0,0,0,13.75,16.25,15,15,0,0,1,13.75,16.25v.13a15,15,0,0,1-16.25,13.75,15.05,15.05,0,0,0-16.25,13.75v.14A15,15,0,0,0,100.3,410.5L130.2,413a15,15,0,0,1,13.75,16.25v.14a15,15,0,0,1-16.25,13.75l-9.13-.76A226.85,226.85,0,0,1,149.72,50.5l10.62.89a15,15,0,0,1,13.75,16.25v.14a15,15,0,0,1-16.25,13.75L137.9,79.86A15,15,0,0,0,121.65,93.61Z"/><rect class="cls-4" x="172.91" y="67.88" width="54.91" height="30.24" rx="15.12" ry="15.12" transform="translate(7.59 -16.36) rotate(4.77)"/><rect class="cls-4" x="163.6" y="251.91" width="126.99" height="30.24" rx="15.12" ry="15.12" transform="translate(22.97 -17.94) rotate(4.77)"/><rect class="cls-4" x="78.37" y="157.42" width="82.29" height="25.67" rx="12.83" ry="12.83" transform="translate(14.56 -9.34) rotate(4.77)"/><rect class="cls-4" x="183.54" y="434.6" width="121.48" height="26.87" rx="12.83" ry="12.83" transform="translate(38.06 -18.74) rotate(4.77)"/><path class="cls-5" d="M499,10.3l5.46-3.57A51.44,51.44,0,0,1,533.69.14a52.06,52.06,0,0,1,17.7,4.51,51.41,51.41,0,0,1,20.72,17.12q.59.83,1.15,1.69A51.68,51.68,0,0,1,560.11,93.7q-.93.67-1.9,1.3A52,52,0,0,1,553,98l-1.09.53a51.39,51.39,0,0,1-24.43,4.81,51.91,51.91,0,0,1-20-5.11h0A51.42,51.42,0,0,1,495,89.82h0A51.72,51.72,0,0,1,486.7,80l0-.05-.14-.22a51.48,51.48,0,0,1-8.25-27h0a51.89,51.89,0,0,1,7.54-28,51.34,51.34,0,0,1,10.12-12q.7-.61,1.42-1.19T499,10.3Z"/><path class="cls-6" d="M500.52,12.17l5.2-3.4a49,49,0,0,1,27.84-6.28,49.58,49.58,0,0,1,16.85,4.3,49,49,0,0,1,19.73,16.3q.56.79,1.1,1.61a49.22,49.22,0,0,1-12.53,66.9q-.89.64-1.81,1.24a49.48,49.48,0,0,1-5,2.86l-1,.5a48.94,48.94,0,0,1-23.27,4.58,49.44,49.44,0,0,1-19.06-4.86h0a49,49,0,0,1-11.81-8h0a49.25,49.25,0,0,1-7.93-9.35l0,0-.14-.21a49,49,0,0,1-7.86-25.67h0A49.41,49.41,0,0,1,488,26a48.89,48.89,0,0,1,9.64-11.44q.66-.58,1.35-1.14T500.52,12.17Z"/><path class="cls-7" d="M500.52,12.17l5.2-3.4a49,49,0,0,1,27.84-6.28,49.58,49.58,0,0,1,16.85,4.3,49,49,0,0,1,19.73,16.3q.56.79,1.1,1.61A49,49,0,0,1,579,47.2a5.47,5.47,0,0,1-7.3-1.75L555.74,21a5.47,5.47,0,0,0-7.57-1.58h0A5.47,5.47,0,0,0,546.58,27L568.71,60.8a5.47,5.47,0,0,1-1.58,7.57h0a5.47,5.47,0,0,1-7.57-1.58l-15-22.91A5.47,5.47,0,0,0,537,42.3h0a5.47,5.47,0,0,0-1.58,7.57L555.5,80.58a5.47,5.47,0,0,1-1.58,7.57h0a5.47,5.47,0,0,1-7.57-1.58L522.18,49.62A5.47,5.47,0,0,0,514.61,48h0A5.47,5.47,0,0,0,513,55.61l20.09,30.71a5.47,5.47,0,0,1-1.58,7.57h0A5.47,5.47,0,0,1,524,92.31L495.71,49.13a5.47,5.47,0,0,0-7.57-1.58h0a5.47,5.47,0,0,0-1.58,7.57l16,24.47A5.47,5.47,0,0,1,501,87.16h0a5.44,5.44,0,0,1-4.23.75h0a49.25,49.25,0,0,1-7.93-9.35l0,0-.14-.21a49,49,0,0,1-7.86-25.67h0A49.41,49.41,0,0,1,488,26a48.89,48.89,0,0,1,9.64-11.44q.66-.58,1.35-1.14T500.52,12.17Z"/></g></g></svg>