<svg xmlns="http://www.w3.org/2000/svg" viewBox="0 0 462.59 462.59"><defs><style>.cls-1{fill:#ed4d15;opacity:0.3;}.cls-2{fill:#ed6d15;}.cls-3{fill:#ea2c18;}</style></defs><title>Venus</title><g id="Capa_2" data-name="Capa 2"><g id="Capa_1-2" data-name="Capa 1"><path class="cls-1" d="M462.59,231.29c0,124.67-98.64,226.31-222.15,231.11q-4.55.18-9.15.18C103.56,462.59,0,359,0,231.29S103.56,0,231.29,0h1.19C359.67.65,462.59,104,462.59,231.29Z"/><path class="cls-2" d="M381.7,381.24c-80.82,81.07-210.86,83.22-294.29,6.27q-3.08-2.84-6.07-5.81C-1.72,298.89-1.93,164.41,80.89,81.35s217.29-83.27,300.36-.46l.77.78C464.3,164.53,464.26,298.44,381.7,381.24Z"/><path class="cls-3" d="M381.65,381.3c-80.82,81.07-210.86,83.22-294.29,6.27a14.16,14.16,0,0,1,1.38-18.37h0a14.15,14.15,0,0,1,20,0l7,6.94a14.15,14.15,0,0,0,20,0h0a14.15,14.15,0,0,0,0-20L65.47,286a14.15,14.15,0,0,1,0-20h0a14.15,14.15,0,0,1,20,0l96.22,95.93a14.15,14.15,0,0,0,20,0h0a14.16,14.16,0,0,0,0-20l-78.4-78.16a14.16,14.16,0,0,1,20-20l117.37,117a14.15,14.15,0,0,0,20,0h0a14.16,14.16,0,0,0,0-20L124.29,184.71a14.15,14.15,0,0,1,0-20h0a14.15,14.15,0,0,1,20,0L248.67,268.72a14.15,14.15,0,0,0,20,0h0a14.16,14.16,0,0,0,0-20L216.24,196.4a14.15,14.15,0,0,1,0-20h0a14.15,14.15,0,0,1,20,0L283,223a14.15,14.15,0,0,0,20,0h0a14.16,14.16,0,0,0,0-20L211.6,111.8a14.16,14.16,0,0,1,20-20L350.84,210.64a14.15,14.15,0,0,0,20,0h0a14.16,14.16,0,0,0,0-20L274,94.05a14.15,14.15,0,0,1,0-20h0a14.15,14.15,0,0,1,20,0l48.65,48.5a14.15,14.15,0,0,0,20,0h0a14.15,14.15,0,0,0,0-20l-.47-.47a14.15,14.15,0,0,1,0-20h0a14.15,14.15,0,0,1,19.8-.23C464.25,164.59,464.2,298.49,381.65,381.3Z"/></g></g></svg>