<?xml version="1.0" encoding="iso-8859-1"?>
<!-- Generator: Adobe Illustrator 19.0.0, SVG Export Plug-In . SVG Version: 6.00 Build 0)  -->
<svg version="1.1" id="Capa_1" xmlns="http://www.w3.org/2000/svg" xmlns:xlink="http://www.w3.org/1999/xlink" x="0px" y="0px"
	 viewBox="0 0 512.005 512.005" style="enable-background:new 0 0 512.005 512.005;" xml:space="preserve">
<g>
	<path style="fill:none;" d="M295.759,502.058c0.135,0.536,0.212,1.076,0.235,1.614
		C295.972,503.138,295.895,502.598,295.759,502.058z"/>
	<path style="fill:#B6B8BE;" d="M208.002,248c3.336,0,6.32,2.07,7.492,5.191l16.508,44.02L226.456,312h11.092h36.909h11.09
		l-5.545-14.787l-16.508-44.022c-1.172-3.121-4.156-5.191-7.492-5.191v-64h-56v70.548l0.509-1.356
		C201.682,250.07,204.666,248,208.002,248z"/>
	<path style="fill:#E3E6E9;" d="M256.001,248c3.336,0,6.32,2.07,7.492,5.191l16.508,44.022l16.508-44.022
		c1.172-3.121,4.156-5.191,7.492-5.191s6.32,2.07,7.492,5.191l0.507,1.352V184h-56V248z"/>
	<path style="fill:#52798F;" d="M256.001,72v24c2.559,0,5.118,0.488,7.526,1.464c1.806,0.732,3.526,1.739,5.097,3.021
		c0.524,0.427,1.031,0.885,1.519,1.373c2.563,2.563,4.285,5.648,5.166,8.913c0.126,0.466,0.235,0.937,0.326,1.409
		c0.244,1.26,0.366,2.54,0.366,3.82c0,5.118-1.953,10.237-5.858,14.142S261.12,136,256.001,136v24h55.264
		c-0.966-10.88-2.914-21.66-5.982-32.18L271.392,11.602L289.005,72H256.001z"/>
	<path style="fill:#5D647F;" d="M256.001,136c-5.119,0-10.237-1.953-14.142-5.858c-7.81-7.811-7.81-20.474,0-28.284
		c3.417-3.417,7.763-5.339,12.225-5.766c0.637-0.062,1.277-0.092,1.917-0.092V72H223l-16.28,55.82
		c-3.068,10.52-5.017,21.299-5.982,32.18h55.264V136z"/>
	<polygon style="fill:#E3E6E9;" points="288.001,448 336.001,448 336.001,472 336.247,472 336.002,471.019 336.002,328 288.001,328 
			"/>
	<path style="fill:#D5D9DE;" d="M304.002,248c-3.336,0-6.32,2.07-7.492,5.191l-16.508,44.022L285.547,312h48.001l-21.546-57.457
		l-0.507-1.352C310.323,250.07,307.338,248,304.002,248z"/>
	<path style="fill:#B6B8BE;" d="M287.494,317.191c0.336,0.898,0.508,1.848,0.508,2.809v8h48.001v-8c0-0.961-0.172-1.91-0.508-2.809
		L333.548,312h-48.001L287.494,317.191z"/>
	<path style="fill:#B6B8BE;" d="M278.296,512h10.512C287.012,511.981,283.205,511.929,278.296,512z"/>
	<path style="fill:#B6B8BE;" d="M343.76,502.058L336.247,472h-0.246l0,0h-47.755l7.513,30.059c0.135,0.54,0.212,1.08,0.235,1.614
		c0.164,3.764-2.302,7.384-6.056,8.324c-0.006,0.001-0.03,0.002-0.047,0.003h36.404c6.772-0.098,11.47-0.194,11.643-0.238
		C342.229,510.687,344.838,506.347,343.76,502.058z"/>
	<polygon style="fill:#B6B8BE;" points="224.001,448 224.001,328 176.002,328 176.002,448 224.001,448 	"/>
	<polygon style="fill:#B6B8BE;" points="176.001,471.023 175.757,472 176.001,472 	"/>
	<path style="fill:#888693;" d="M226.456,312l5.546-14.789l-16.508-44.02c-1.172-3.121-4.156-5.191-7.492-5.191
		s-6.32,2.07-7.492,5.191l-0.509,1.356l-23.491,62.644l1.947-5.191H226.456z"/>
	<path style="fill:#5C546A;" d="M224.001,320c0-0.961,0.172-1.91,0.508-2.809l1.947-5.191h-47.999l-1.947,5.191
		c-0.336,0.898-0.508,1.848-0.508,2.809v8h47.999V320z"/>
	<path style="fill:#5C546A;" d="M216.244,502.058L223.756,472h-47.755l0,0h-0.244l-7.513,30.059
		c-1.078,4.289,1.531,8.629,5.82,9.703c0.385,0.097,1.389,0.172,2.646,0.238h47.999c-1.257-0.066-2.26-0.142-2.646-0.238
		C217.775,510.687,215.166,506.347,216.244,502.058z"/>
	<polygon style="fill:#D5D9DE;" points="288.001,448 288.001,328 272.002,328 240.002,328 224.001,328 224.001,448 288.001,448 	"/>
	<path style="fill:#888693;" d="M272.002,328h15.999v-8c0-0.961-0.172-1.91-0.508-2.809L285.547,312h-11.09h-36.909h-11.092
		l-1.947,5.191c-0.336,0.898-0.508,1.848-0.508,2.809v8h16.001H272.002z"/>
	<path style="fill:#888693;" d="M295.995,503.672c-0.023-0.538-0.101-1.078-0.235-1.614L288.247,472h-0.245h-64h-0.245
		l-7.513,30.059c-1.078,4.289,1.531,8.629,5.82,9.703c0.385,0.097,1.389,0.172,2.646,0.238c0,0,62.303-0.018,64.099,0
		c0.597,0.006,0.968,0.008,1.084,0c0.016-0.001,0.041-0.002,0.047-0.003C293.692,511.056,296.159,507.436,295.995,503.672z"/>
	<path style="fill:#B6B8BE;" d="M256.001,184h56v-9.145c0-4.968-0.298-9.919-0.736-14.855h-55.264V184z"/>
	<path style="fill:#888693;" d="M256.001,160h-55.264c-0.438,4.937-0.736,9.887-0.736,14.855V184h56V160z"/>
	<path style="fill:#5C546A;" d="M289.005,72l-17.613-60.398C269.408,4.664,263.22,0,256.001,0c-7.219,0-13.406,4.664-15.375,11.563
		L223,72h33.001H289.005z"/>
	<path style="fill:#FFCF00;" d="M241.859,101.858c3.417-3.417,7.763-5.339,12.225-5.766
		C249.622,96.519,245.276,98.441,241.859,101.858c-7.811,7.811-7.811,20.474,0,28.284c3.905,3.905,9.024,5.858,14.142,5.858
		c5.118,0,10.237-1.953,14.142-5.858L241.859,101.858z"/>
	<path style="fill:#FFCF00;" d="M263.527,97.464c1.806,0.732,3.526,1.739,5.097,3.021C267.053,99.204,265.333,98.197,263.527,97.464
		z"/>
	<path style="fill:#FFCF00;" d="M270.144,101.858c2.563,2.563,4.285,5.648,5.166,8.913
		C274.428,107.506,272.707,104.42,270.144,101.858z"/>
	<path style="fill:#FFCF00;" d="M256.001,96c2.559,0,5.118,0.488,7.526,1.464C261.12,96.488,258.561,96,256.001,96z"/>
	<path style="fill:#FFEDB9;" d="M270.144,130.142c3.905-3.905,5.858-9.024,5.858-14.142c0-1.28-0.122-2.56-0.366-3.82
		c-0.092-0.473-0.2-0.943-0.326-1.409c-0.881-3.265-2.603-6.351-5.166-8.913c-0.488-0.488-0.995-0.946-1.519-1.373
		c-1.571-1.281-3.292-2.288-5.097-3.021C261.12,96.488,258.561,96,256.001,96c-0.64,0-1.28,0.03-1.917,0.092
		c-4.462,0.427-8.808,2.349-12.225,5.766L270.144,130.142z"/>
	<polygon style="fill:#5D647F;" points="176.001,472 223.756,472 224.001,472 224.001,448 176.002,448 176.001,448 176.001,471.023 
		176.001,472 	"/>
	<polygon style="fill:#52798F;" points="288.001,448 224.001,448 224.001,448 224.001,472 288.001,472 	"/>
	<polygon style="fill:#6E8FA9;" points="288.001,448 288.001,448 288.001,472 288.247,472 336.001,472 336.001,472 336.001,448 	"/>
</g>
<g>
</g>
<g>
</g>
<g>
</g>
<g>
</g>
<g>
</g>
<g>
</g>
<g>
</g>
<g>
</g>
<g>
</g>
<g>
</g>
<g>
</g>
<g>
</g>
<g>
</g>
<g>
</g>
<g>
</g>
</svg>
