<?xml version="1.0" encoding="iso-8859-1"?>
<!-- Generator: Adobe Illustrator 19.0.0, SVG Export Plug-In . SVG Version: 6.00 Build 0)  -->
<svg version="1.1" id="Capa_1" xmlns="http://www.w3.org/2000/svg" xmlns:xlink="http://www.w3.org/1999/xlink" x="0px" y="0px"
	 viewBox="0 0 512.002 512.002" style="enable-background:new 0 0 512.002 512.002;" xml:space="preserve">
<g>
	<polygon style="fill:none;" points="208,224.282 192,213.615 192,258.386 208,247.72 	"/>
	<polygon style="fill:none;" points="104,204.001 88,204.001 88,212.001 88,260.001 88,268.001 104,268.001 	"/>
	<polygon style="fill:none;" points="19.313,236.001 40,256.688 40,215.313 	"/>
	<path style="fill:#B6B8BE;" d="M208,224.282v23.438l-16,10.667V276c0.003,0,0.005,0,0.008,0c1.523,0,3.063-0.438,4.43-1.344
		L208,266.949v1.052c0,4.422,3.578,8,8,8s8-3.578,8-8v-24h10.158c-1.364-2.355-2.158-5.082-2.158-8s0.794-5.645,2.158-8H224v-24
		c0-4.422-3.578-8-8-8s-8,3.578-8,8v1.052l-11.563-7.708c-1.368-0.91-2.912-1.344-4.438-1.344v17.615L208,224.282z"/>
	<path style="fill:#888693;" d="M88,180.001v3.313l8.969-8.969c4.531-4.531,7.031-10.563,7.031-16.969v-17.375H88v17.375
		c0,2.102-0.852,4.164-2.344,5.656l-8.969,8.969H80C84.422,172.001,88,175.579,88,180.001z"/>
	<path style="fill:#888693;" d="M104,108.001c0-5.905-3.226-11.062-8-13.834v5.834c0,4.422-3.578,8-8,8v16h16V108.001z"/>
	<path style="fill:#5C546A;" d="M69.376,314.759c1.161-2.871,3.074-5.204,5.408-6.902c-1.734-1.493-2.784-3.672-2.784-6.051v-1.805
		H56v1.805c0,8.828,4.762,16.761,12.343,20.964C68.007,320.14,68.312,317.392,69.376,314.759z"/>
	<path style="fill:#5C546A;" d="M68.91,325.42c-0.312,1.136-0.385,2.355-0.152,3.589L80,388.73v-0.729
		c0-7.855,5.699-14.394,13.175-15.735l-6.239-33.145l-8.724-3.527C73.554,333.711,70.271,329.88,68.91,325.42z"/>
	<path style="fill:#888693;" d="M40,260.001v-3.313l-20.688-20.687L40,215.313v-3.313v-24H8c-4.422,0-8,3.578-8,8s3.578,8,8,8
		h20.688L2.344,230.345c-3.125,3.125-3.125,8.188,0,11.313l26.344,26.344H8c-4.422,0-8,3.578-8,8s3.578,8,8,8h32V260.001z"/>
	<rect x="88" y="268.001" style="fill:#888693;" width="16" height="16"/>
	<rect x="88" y="188.001" style="fill:#888693;" width="16" height="16"/>
	<path style="fill:#FFCF00;" d="M40,212.001h48v-8v-16v-4.688v-3.313c0-4.422-3.578-8-8-8h-3.313H48c-4.422,0-8,3.578-8,8v8V212.001
		z"/>
	<polygon style="fill:#FF9300;" points="40,212.001 40,215.313 40,256.688 40,260.001 88,260.001 88,212.001 	"/>
	<path style="fill:#FF7400;" d="M80,300.001c4.422,0,8-3.578,8-8v-8v-16v-8H40v24v8c0,4.422,3.578,8,8,8h8h16H80z"/>
	<path style="fill:#B6B8BE;" d="M104,268.001v16c0,8.82,7.18,16,16,16h12.688l-2.344-2.344c-1.5-1.5-2.344-3.531-2.344-5.656v-112
		c0-2.125,0.844-4.156,2.344-5.656l2.344-2.344H120c-8.82,0-16,7.18-16,16v16V268.001z"/>
	<path style="fill:#888693;" d="M128,180.001v112c0,2.125,0.844,4.156,2.344,5.656l2.344,2.344l45.656,45.656
		c1.531,1.531,3.578,2.344,5.656,2.344c1.031,0,2.07-0.195,3.063-0.609c2.992-1.234,4.937-4.156,4.937-7.391v-64v-17.614v-44.771
		V196v-64c0-3.234-1.945-6.156-4.937-7.391c-2.984-1.25-6.43-0.555-8.719,1.734l-45.656,45.656l-2.344,2.344
		C128.844,175.845,128,177.876,128,180.001z"/>
	<path style="fill:#E3E6E9;" d="M234.158,244.001c2.768,4.778,7.923,8,13.842,8c8.837,0,16-7.163,16-16s-7.163-16-16-16
		c-5.919,0-11.074,3.222-13.842,8c-1.364,2.355-2.158,5.082-2.158,8S232.793,241.646,234.158,244.001z"/>
	<path style="fill:#FF9300;" d="M506.883,476.54l-379.02-146.559c0.336,2.63,0.031,5.379-1.033,8.012
		c-1.121,2.775-2.935,5.06-5.159,6.745l379.447,146.724c0.945,0.367,1.922,0.539,2.883,0.539c3.211,0,6.234-1.945,7.461-5.117
		C513.054,482.766,511.008,478.134,506.883,476.54z"/>
	<path style="fill:#888693;" d="M126.829,337.993c1.064-2.633,1.369-5.382,1.033-8.012c-0.71-5.555-4.31-10.576-9.869-12.824
		l-27.789-11.234c-5.309-2.136-11.099-1.21-15.421,1.934c-2.334,1.698-4.246,4.031-5.408,6.902
		c-1.064,2.633-1.369,5.381-1.033,8.011c0.115,0.901,0.304,1.787,0.567,2.65c1.361,4.46,4.644,8.291,9.302,10.174l8.724,3.527
		l19.065,7.707c1.965,0.789,3.992,1.172,5.992,1.172c3.508,0,6.91-1.166,9.677-3.263
		C123.894,343.053,125.708,340.768,126.829,337.993z"/>
	<path style="fill:#888693;" d="M80,388.001v0.729v63.271h24v-80h-8c-0.965,0-1.906,0.101-2.825,0.265
		C85.699,373.606,80,380.146,80,388.001z"/>
	<path style="fill:#FF9300;" d="M96,100.001v-5.834V68.001H56v32c0,4.422,3.578,8,8,8h24C92.422,108.001,96,104.423,96,100.001z"/>
	<path style="fill:#FF9300;" d="M120,140.001c4.422,0,8-3.578,8-8c0-4.422-3.578-8-8-8h-16H88H64c-4.422,0-8,3.578-8,8
		c0,4.422,3.578,8,8,8h24h16H120z"/>
	<path style="fill:#B6B8BE;" d="M128,452.001v-64c0-8.82-7.18-16-16-16h-8v80H128z"/>
	<path style="fill:#5C546A;" d="M80,452.001c-4.422,0-8,3.578-8,8s3.578,8,8,8h48c4.422,0,8-3.578,8-8s-3.578-8-8-8h-24H80z"/>
	<path style="fill:#FFCF00;" d="M112,68.001c8.82,0,16-7.18,16-16v-16c0-8.82-7.18-16-16-16H48c-8.82,0-16,7.18-16,16v16
		c0,8.82,7.18,16,16,16h8h40H112z"/>
</g>
<g>
</g>
<g>
</g>
<g>
</g>
<g>
</g>
<g>
</g>
<g>
</g>
<g>
</g>
<g>
</g>
<g>
</g>
<g>
</g>
<g>
</g>
<g>
</g>
<g>
</g>
<g>
</g>
<g>
</g>
</svg>
