<?xml version="1.0" encoding="iso-8859-1"?>
<!-- Generator: Adobe Illustrator 19.0.0, SVG Export Plug-In . SVG Version: 6.00 Build 0)  -->
<svg version="1.1" id="Capa_1" xmlns="http://www.w3.org/2000/svg" xmlns:xlink="http://www.w3.org/1999/xlink" x="0px" y="0px"
	 viewBox="0 0 512 512" style="enable-background:new 0 0 512 512;" xml:space="preserve">
<g>
	<path style="fill:#888693;" d="M176,488c-1.242,0-2.469-0.289-3.578-0.844L168,484.945V496c0,8.82,7.18,16,16,16h72v-24H176z"/>
	<path style="fill:#B6B8BE;" d="M336,488h-80v24h72c8.82,0,16-7.18,16-16v-11.055l-4.422,2.211C338.469,487.711,337.242,488,336,488
		z"/>
	<path style="fill:#888693;" d="M176,24h80V0h-72c-8.82,0-16,7.18-16,16v11.055l4.422-2.211C173.531,24.289,174.758,24,176,24z"/>
	<path style="fill:#B6B8BE;" d="M336,24c1.242,0,2.469,0.289,3.578,0.844L344,27.055V16c0-8.82-7.18-16-16-16h-72v24H336z"/>
	<path style="fill:#E3E6E9;" d="M420.594,446.545c-0.086,0.06-0.173,0.118-0.261,0.175
		C420.421,446.663,420.508,446.605,420.594,446.545z"/>
	<path style="fill:#E3E6E9;" d="M420.001,446.922c-0.107,0.062-0.214,0.123-0.324,0.18
		C419.787,447.044,419.894,446.984,420.001,446.922z"/>
	<path style="fill:#E3E6E9;" d="M420.332,65.279c0.089,0.057,0.177,0.116,0.262,0.176C420.508,65.394,420.42,65.336,420.332,65.279z
		"/>
	<path style="fill:#E3E6E9;" d="M419.677,64.898c0.111,0.057,0.218,0.118,0.325,0.18C419.894,65.016,419.787,64.955,419.677,64.898z
		"/>
	<path style="fill:#E3E6E9;" d="M421.553,66.247c0.045,0.043,0.091,0.084,0.135,0.128C421.645,66.331,421.598,66.29,421.553,66.247z
		"/>
	<path style="fill:#E3E6E9;" d="M420.958,65.727c0.067,0.053,0.135,0.105,0.2,0.16C421.093,65.833,421.025,65.78,420.958,65.727z"/>
	<path style="fill:#E3E6E9;" d="M424,72c0-0.011-0.002-0.022-0.002-0.034c0,0.011,0,0.022,0,0.034H424z"/>
	<path style="fill:#E3E6E9;" d="M422.159,66.893c0.005,0.007,0.011,0.013,0.017,0.019C422.17,66.906,422.164,66.9,422.159,66.893z"
		/>
	<path style="fill:#E3E6E9;" d="M422.159,445.107c0.005-0.007,0.011-0.013,0.017-0.019
		C422.17,445.094,422.164,445.1,422.159,445.107z"/>
	<polygon style="fill:#E3E6E9;" points="376,400 136,400 136,416 256,416 424,416 424,400 424,384 376,384 	"/>
	<path style="fill:#E3E6E9;" d="M421.688,445.625c-0.043,0.044-0.09,0.085-0.135,0.128
		C421.598,445.71,421.645,445.669,421.688,445.625z"/>
	<rect x="376" y="144" style="fill:#E3E6E9;" width="48" height="224"/>
	<path style="fill:#E3E6E9;" d="M421.158,446.112c-0.065,0.055-0.132,0.107-0.199,0.16
		C421.026,446.219,421.093,446.167,421.158,446.112z"/>
	<path style="fill:#E3E6E9;" d="M423.664,442.288c-0.025,0.084-0.054,0.168-0.082,0.251
		C423.61,442.455,423.639,442.372,423.664,442.288z"/>
	<path style="fill:#E3E6E9;" d="M423.424,442.971c-0.036,0.09-0.073,0.179-0.112,0.268
		C423.352,443.15,423.388,443.061,423.424,442.971z"/>
	<path style="fill:#E3E6E9;" d="M423.842,441.586c-0.01,0.046-0.022,0.092-0.032,0.138
		C423.819,441.678,423.832,441.633,423.842,441.586z"/>
	<path style="fill:#E3E6E9;" d="M423.998,440.033c0-0.011,0.002-0.022,0.002-0.034h-0.002
		C423.998,440.011,423.998,440.022,423.998,440.033z"/>
	<path style="fill:#E3E6E9;" d="M423.809,70.275c0.01,0.046,0.023,0.092,0.033,0.138C423.832,70.367,423.819,70.322,423.809,70.275z
		"/>
	<path style="fill:#E3E6E9;" d="M422.707,444.355c-0.03,0.047-0.057,0.095-0.088,0.141
		C422.65,444.45,422.677,444.401,422.707,444.355z"/>
	<path style="fill:#E3E6E9;" d="M423.115,443.648c-0.041,0.08-0.08,0.16-0.124,0.238
		C423.035,443.808,423.074,443.727,423.115,443.648z"/>
	<path style="fill:#E3E6E9;" d="M422.618,67.504c0.031,0.047,0.059,0.095,0.09,0.143C422.677,67.6,422.65,67.55,422.618,67.504z"/>
	<path style="fill:#E3E6E9;" d="M423.583,69.461c0.028,0.083,0.056,0.167,0.082,0.251C423.639,69.628,423.61,69.545,423.583,69.461z
		"/>
	<path style="fill:#E3E6E9;" d="M423.312,68.761c0.039,0.088,0.076,0.178,0.112,0.268C423.388,68.939,423.352,68.85,423.312,68.761z
		"/>
	<path style="fill:#E3E6E9;" d="M422.992,68.114c0.043,0.078,0.083,0.159,0.124,0.239C423.074,68.272,423.035,68.192,422.992,68.114
		z"/>
	<path style="fill:#888693;" d="M91.999,65.078c0.107-0.062,0.214-0.123,0.325-0.18C92.213,64.955,92.105,65.016,91.999,65.078z"/>
	<rect x="88" y="112" style="fill:#888693;" width="48" height="16"/>
	<path style="fill:#888693;" d="M88.002,71.965C88.001,71.977,88,71.988,88,72h0.002C88.002,71.989,88.001,71.977,88.002,71.965z"/>
	<path style="fill:#888693;" d="M89.824,66.912c0.005-0.007,0.011-0.013,0.017-0.019C89.835,66.9,89.829,66.906,89.824,66.912z"/>
	<rect x="88" y="144" style="fill:#888693;" width="48" height="224"/>
	<path style="fill:#888693;" d="M88.191,441.724c-0.01-0.046-0.023-0.092-0.033-0.138C88.167,441.633,88.181,441.678,88.191,441.724
		z"/>
	<path style="fill:#888693;" d="M88.417,442.539c-0.028-0.084-0.057-0.167-0.082-0.252
		C88.361,442.372,88.389,442.455,88.417,442.539z"/>
	<path style="fill:#888693;" d="M88.158,70.414c0.009-0.047,0.022-0.092,0.033-0.139C88.181,70.321,88.167,70.367,88.158,70.414z"/>
	<rect x="88" y="384" style="fill:#888693;" width="48" height="16"/>
	<path style="fill:#888693;" d="M89.381,444.495c-0.031-0.046-0.059-0.095-0.089-0.141C89.323,444.401,89.35,444.449,89.381,444.495
		z"/>
	<path style="fill:#888693;" d="M89.008,443.886c-0.044-0.079-0.083-0.159-0.124-0.24C88.925,443.727,88.965,443.808,89.008,443.886
		z"/>
	<path style="fill:#888693;" d="M89.292,67.647c0.031-0.047,0.058-0.096,0.09-0.143C89.35,67.551,89.322,67.6,89.292,67.647z"/>
	<path style="fill:#888693;" d="M88.335,69.713c0.025-0.085,0.054-0.168,0.082-0.252C88.389,69.545,88.361,69.628,88.335,69.713z"/>
	<path style="fill:#888693;" d="M88.884,68.353c0.041-0.08,0.081-0.161,0.124-0.24C88.965,68.192,88.925,68.273,88.884,68.353z"/>
	<path style="fill:#888693;" d="M88.575,69.029c0.036-0.09,0.073-0.179,0.112-0.268C88.648,68.85,88.611,68.939,88.575,69.029z"/>
	<path style="fill:#888693;" d="M88.688,443.238c-0.039-0.088-0.076-0.178-0.112-0.268C88.611,443.061,88.648,443.15,88.688,443.238
		z"/>
	<path style="fill:#888693;" d="M91.406,65.455c0.086-0.06,0.173-0.119,0.262-0.176C91.579,65.336,91.492,65.394,91.406,65.455z"/>
	<path style="fill:#888693;" d="M90.312,66.375c0.043-0.044,0.09-0.085,0.135-0.128C90.401,66.29,90.355,66.331,90.312,66.375z"/>
	<path style="fill:#888693;" d="M90.841,65.888c0.065-0.055,0.133-0.108,0.2-0.161C90.974,65.78,90.907,65.833,90.841,65.888z"/>
	<path style="fill:#888693;" d="M88,440c0,0.012,0.001,0.023,0.002,0.035c0-0.011,0-0.023,0-0.035H88z"/>
	<path style="fill:#888693;" d="M89.841,445.107c-0.006-0.007-0.012-0.013-0.017-0.019C89.829,445.094,89.835,445.1,89.841,445.107z
		"/>
	<path style="fill:#888693;" d="M90.446,445.753c-0.045-0.043-0.091-0.084-0.135-0.128C90.355,445.669,90.401,445.71,90.446,445.753
		z"/>
	<path style="fill:#888693;" d="M92.323,447.101c-0.11-0.057-0.218-0.118-0.324-0.179C92.106,446.984,92.213,447.044,92.323,447.101
		z"/>
	<path style="fill:#888693;" d="M91.041,446.272c-0.067-0.053-0.135-0.105-0.2-0.16C90.906,446.167,90.974,446.219,91.041,446.272z"
		/>
	<path style="fill:#888693;" d="M91.667,446.72c-0.088-0.057-0.175-0.115-0.26-0.175C91.492,446.605,91.579,446.663,91.667,446.72z"
		/>
	<rect x="136" y="384" style="fill:#B6B8BE;" width="240" height="16"/>
	<path style="fill:#B6B8BE;" d="M376,368V144h-69.398C329.22,159.925,344,186.235,344,216c0,48.601-39.399,88-88,88
		c-48.601,0-88-39.399-88-88c0-29.764,14.779-56.074,37.397-72H136v224H376z"/>
	<polygon style="fill:#B6B8BE;" points="256,128 376,128 376,112 136,112 136,128 	"/>
	<path style="fill:#888693;" d="M336,24h-80v8v40v8v16h168V72h-0.002c0-0.011,0-0.022,0-0.034c-0.002-0.526-0.054-1.045-0.156-1.553
		c-0.01-0.047-0.022-0.092-0.033-0.138c-0.042-0.19-0.089-0.378-0.145-0.563c-0.025-0.084-0.054-0.167-0.082-0.251
		c-0.049-0.146-0.101-0.29-0.158-0.432c-0.036-0.09-0.073-0.179-0.112-0.268c-0.061-0.138-0.128-0.274-0.197-0.409
		c-0.041-0.08-0.08-0.16-0.124-0.239c-0.089-0.159-0.185-0.314-0.284-0.467c-0.031-0.047-0.058-0.096-0.09-0.143
		c-0.138-0.204-0.285-0.401-0.442-0.592c-0.006-0.007-0.012-0.013-0.017-0.019c-0.149-0.179-0.306-0.351-0.471-0.518
		c-0.043-0.044-0.09-0.085-0.135-0.128c-0.128-0.123-0.259-0.244-0.395-0.359c-0.065-0.055-0.133-0.107-0.2-0.16
		c-0.119-0.094-0.24-0.185-0.364-0.272c-0.086-0.06-0.173-0.119-0.262-0.176c-0.108-0.07-0.219-0.136-0.331-0.201
		c-0.107-0.062-0.214-0.123-0.325-0.18c-0.033-0.017-0.065-0.038-0.099-0.055L344,27.055l-4.422-2.211
		C338.469,24.289,337.242,24,336,24z"/>
	<path style="fill:#5C546A;" d="M256,96V80v-8V32v-8h-80c-1.242,0-2.469,0.289-3.578,0.844L168,27.055L92.422,64.844
		c-0.034,0.017-0.065,0.037-0.099,0.055c-0.111,0.057-0.218,0.118-0.325,0.18c-0.112,0.065-0.223,0.131-0.331,0.201
		c-0.089,0.057-0.176,0.116-0.262,0.176c-0.125,0.087-0.245,0.178-0.364,0.272c-0.067,0.053-0.135,0.106-0.2,0.161
		c-0.137,0.115-0.267,0.236-0.395,0.359c-0.045,0.043-0.091,0.084-0.135,0.128c-0.165,0.166-0.322,0.339-0.471,0.518
		c-0.006,0.007-0.012,0.013-0.017,0.019c-0.157,0.191-0.304,0.388-0.442,0.592c-0.032,0.047-0.059,0.096-0.09,0.143
		c-0.099,0.153-0.195,0.307-0.283,0.466c-0.044,0.079-0.083,0.16-0.124,0.24c-0.069,0.135-0.135,0.27-0.197,0.408
		c-0.039,0.088-0.076,0.178-0.112,0.268c-0.057,0.142-0.109,0.286-0.158,0.432c-0.028,0.084-0.057,0.167-0.082,0.252
		c-0.055,0.185-0.103,0.373-0.145,0.562c-0.01,0.046-0.023,0.092-0.033,0.139c-0.103,0.507-0.154,1.026-0.156,1.552
		c0,0.012,0,0.023,0,0.035H88v24h48H256z"/>
	<path style="fill:#5C546A;" d="M176,488h80v-8v-40v-8v-16H136H88v24h0.002c0,0.012-0.001,0.023,0,0.035
		c0.002,0.525,0.054,1.045,0.156,1.552c0.009,0.046,0.022,0.092,0.033,0.138c0.042,0.19,0.089,0.377,0.145,0.563
		c0.025,0.085,0.054,0.168,0.082,0.252c0.049,0.146,0.101,0.289,0.158,0.432c0.036,0.09,0.073,0.179,0.112,0.268
		c0.061,0.138,0.127,0.274,0.197,0.408c0.041,0.08,0.081,0.161,0.124,0.24c0.089,0.159,0.185,0.314,0.284,0.468
		c0.03,0.047,0.058,0.095,0.089,0.141c0.138,0.204,0.285,0.401,0.443,0.592c0.005,0.007,0.011,0.013,0.017,0.019
		c0.148,0.179,0.306,0.351,0.471,0.518c0.043,0.044,0.09,0.085,0.135,0.128c0.128,0.123,0.259,0.244,0.395,0.359
		c0.065,0.055,0.133,0.107,0.2,0.16c0.119,0.094,0.24,0.185,0.365,0.273c0.085,0.06,0.172,0.118,0.26,0.175
		c0.109,0.07,0.219,0.137,0.332,0.202c0.106,0.062,0.214,0.122,0.324,0.179c0.033,0.017,0.065,0.038,0.099,0.055L168,484.945
		l4.422,2.211C173.531,487.711,174.758,488,176,488z"/>
	<path style="fill:#888693;" d="M422.619,444.495c0.031-0.046,0.058-0.094,0.088-0.141c0.1-0.154,0.196-0.309,0.285-0.469
		c0.043-0.078,0.083-0.159,0.124-0.238c0.069-0.135,0.136-0.271,0.197-0.409c0.039-0.088,0.076-0.178,0.112-0.268
		c0.057-0.143,0.109-0.287,0.158-0.432c0.028-0.083,0.056-0.167,0.082-0.251c0.056-0.186,0.103-0.374,0.145-0.564
		c0.01-0.046,0.023-0.091,0.032-0.138c0.103-0.507,0.154-1.027,0.156-1.553c0-0.011,0-0.022,0-0.034H424v-24H256v16v8v40v8h80
		c1.242,0,2.469-0.289,3.578-0.844l4.422-2.211l75.578-37.789c0.034-0.017,0.065-0.037,0.099-0.055
		c0.11-0.057,0.218-0.118,0.324-0.18c0.113-0.065,0.223-0.132,0.332-0.201c0.089-0.057,0.176-0.115,0.261-0.175
		c0.125-0.088,0.246-0.179,0.365-0.273c0.067-0.053,0.135-0.105,0.199-0.16c0.137-0.115,0.268-0.236,0.395-0.359
		c0.045-0.043,0.091-0.084,0.135-0.128c0.165-0.166,0.322-0.339,0.471-0.518c0.005-0.007,0.011-0.013,0.017-0.019
		C422.333,444.897,422.48,444.699,422.619,444.495z"/>
	<rect x="88" y="400" style="fill:#B6B8BE;" width="48" height="16"/>
	<polygon style="fill:#E3E6E9;" points="256,96 136,96 136,112 376,112 376,128 424,128 424,112 424,96 	"/>
	<rect x="88" y="96" style="fill:#B6B8BE;" width="48" height="16"/>
	<rect x="136" y="368" style="fill:#888693;" width="240" height="16"/>
	<rect x="376" y="368" style="fill:#B6B8BE;" width="48" height="16"/>
	<rect x="88" y="368" style="fill:#5C546A;" width="48" height="16"/>
	<path style="fill:#888693;" d="M306.602,144H376v-16H256C274.836,128,292.288,133.921,306.602,144z"/>
	<path style="fill:#888693;" d="M205.397,144c14.314-10.079,31.766-16,50.602-16H136v16H205.397z"/>
	<rect x="376" y="128" style="fill:#B6B8BE;" width="48" height="16"/>
	<rect x="88" y="128" style="fill:#5C546A;" width="48" height="16"/>
	<path style="fill:#5C546A;" d="M264,128.404V152c0,4.422-3.578,8-8,8s-8-3.578-8-8v-23.596c2.639-0.238,5.299-0.404,8-0.404
		c-18.836,0-36.288,5.921-50.602,16C182.779,159.925,168,186.235,168,216c0-2.701,0.166-5.361,0.404-8H192c4.422,0,8,3.578,8,8
		s-3.578,8-8,8h-23.596c-0.238-2.639-0.404-5.299-0.404-8c0,48.601,39.399,88,88,88c-2.701,0-5.361-0.166-8-0.404V280
		c0-4.422,3.578-8,8-8s8,3.578,8,8v23.596c-2.639,0.238-5.299,0.404-8,0.404c48.601,0,88-39.399,88-88c0,2.701-0.166,5.361-0.404,8
		H320c-4.422,0-8-3.578-8-8s3.578-8,8-8h23.596c0.238,2.639,0.404,5.299,0.404,8c0-29.764-14.78-56.074-37.398-72
		c-14.314-10.079-31.766-16-50.602-16C258.7,128,261.361,128.165,264,128.404z M304,232c0,17.648-14.352,32-32,32h-32
		c-17.648,0-32-14.352-32-32v-32c0-17.648,14.352-32,32-32h32c17.648,0,32,14.352,32,32V232z"/>
	<path style="fill:#B6B8BE;" d="M272,168h-32c-17.648,0-32,14.352-32,32v32c0,17.648,14.352,32,32,32h32c17.648,0,32-14.352,32-32
		v-32C304,182.352,289.648,168,272,168z M256,240c-13.255,0-24-10.745-24-24s10.745-24,24-24c13.255,0,24,10.745,24,24
		S269.255,240,256,240z"/>
	<circle style="fill:#888693;" cx="256" cy="216" r="24"/>
	<path style="fill:#888693;" d="M320,208c-4.422,0-8,3.578-8,8s3.578,8,8,8h23.596c0.238-2.639,0.404-5.299,0.404-8
		s-0.166-5.361-0.404-8H320z"/>
	<path style="fill:#888693;" d="M248,152c0,4.422,3.578,8,8,8s8-3.578,8-8v-23.596c-2.639-0.238-5.299-0.404-8-0.404
		s-5.361,0.166-8,0.404V152z"/>
	<path style="fill:#888693;" d="M192,224c4.422,0,8-3.578,8-8s-3.578-8-8-8h-23.596c-0.238,2.639-0.404,5.299-0.404,8
		s0.166,5.361,0.404,8H192z"/>
	<path style="fill:#888693;" d="M264,280c0-4.422-3.578-8-8-8s-8,3.578-8,8v23.596c2.639,0.238,5.299,0.404,8,0.404
		s5.361-0.166,8-0.404V280z"/>
</g>
<g>
</g>
<g>
</g>
<g>
</g>
<g>
</g>
<g>
</g>
<g>
</g>
<g>
</g>
<g>
</g>
<g>
</g>
<g>
</g>
<g>
</g>
<g>
</g>
<g>
</g>
<g>
</g>
<g>
</g>
</svg>
