<svg xmlns="http://www.w3.org/2000/svg" viewBox="0 0 464.71 464.71"><defs><style>.cls-1,.cls-2{fill:#1951dd;}.cls-1{opacity:0.3;}.cls-3{fill:#134099;}</style></defs><title>Neptuno</title><g id="Capa_2" data-name="Capa 2"><g id="Capa_1-2" data-name="Capa 1"><path class="cls-1" d="M464.71,232.36c0,125.24-99.1,227.35-223.17,232.17q-4.57.18-9.19.18C104,464.71,0,360.68,0,232.36S104,0,232.36,0h1.19C361.32.65,464.71,104.43,464.71,232.36Z"/><path class="cls-2" d="M315.56,35.89C421.46,80.73,472.31,201.09,432,307.72q-1.49,3.93-3.14,7.84c-46,108.5-171.17,159.22-279.67,113.27S-10.06,257.66,35.89,149.15c.14-.34.29-.68.44-1C82.62,40.34,207.39-9.92,315.56,35.89Z"/><path class="cls-3" d="M315.56,35.89C421.46,80.73,472.31,201.09,432,307.72a14.22,14.22,0,0,1-17.64,5.62h0a14.22,14.22,0,0,1-7.55-18.63l3.85-9.09A14.22,14.22,0,0,0,403.07,267h0a14.22,14.22,0,0,0-18.64,7.55l-38.86,91.76a14.22,14.22,0,0,1-18.63,7.55h0a14.22,14.22,0,0,1-7.55-18.64l53.23-125.69A14.22,14.22,0,0,0,365,210.84h0a14.22,14.22,0,0,0-18.65,7.55L303,320.8a14.22,14.22,0,0,1-26.19-11.09L341.76,156.4a14.22,14.22,0,0,0-7.54-18.64h0a14.22,14.22,0,0,0-18.65,7.55L229.08,349.52a14.22,14.22,0,0,1-18.63,7.55h0a14.22,14.22,0,0,1-7.55-18.64l57.74-136.35a14.22,14.22,0,0,0-7.54-18.64h0A14.22,14.22,0,0,0,234.43,191l-29,68.48A14.22,14.22,0,0,1,186.8,267h0a14.22,14.22,0,0,1-7.55-18.64l25.87-61.08a14.22,14.22,0,0,0-7.54-18.64h0a14.22,14.22,0,0,0-18.65,7.55L128.35,295.57a14.22,14.22,0,0,1-26.19-11.09l66-155.78a14.22,14.22,0,0,0-7.54-18.64h0a14.22,14.22,0,0,0-18.65,7.55L88.37,244.09a14.22,14.22,0,0,1-18.63,7.55h0A14.22,14.22,0,0,1,62.17,233l26.91-63.55a14.22,14.22,0,0,0-7.54-18.64h0a14.22,14.22,0,0,0-18.64,7.55l-.26.61A14.22,14.22,0,0,1,44,166.51h0a14.22,14.22,0,0,1-7.65-18.36C82.62,40.34,207.39-9.92,315.56,35.89Z"/></g></g></svg>