<svg xmlns="http://www.w3.org/2000/svg" viewBox="0 0 627.05 627.05"><defs><style>.cls-1,.cls-2,.cls-4{fill:#ea8000;}.cls-1{opacity:0.2;}.cls-2{opacity:0.3;}.cls-3{fill:#f2b200;}</style></defs><title>Sol</title><g id="Capa_2" data-name="Capa 2"><g id="Capa_1-2" data-name="Capa 1"><path class="cls-1" d="M627,313.52c0,169-133.71,306.77-301.12,313.28q-6.17.24-12.4.24C140.37,627,0,486.67,0,313.52S140.37,0,313.52,0h1.61C487.54.88,627,140.92,627,313.52Z"/><path class="cls-2" d="M601.28,313.52c0,155.11-122.73,281.56-276.38,287.53q-5.67.22-11.38.22c-158.92,0-287.76-128.84-287.76-287.76S154.6,25.77,313.52,25.77H315C473.24,26.57,601.28,155.1,601.28,313.52Z"/><path class="cls-3" d="M577.76,313.52c0,142.42-112.69,258.54-253.78,264q-5.2.21-10.45.21c-145.93,0-264.23-118.3-264.23-264.23S167.6,49.29,313.52,49.29h1.36C460.18,50,577.76,168.05,577.76,313.52Z"/><path class="cls-4" d="M577.76,313.62c0,142.42-112.69,258.54-253.78,264a17.61,17.61,0,0,1-14.92-17.4v0a17.61,17.61,0,0,1,17.6-17.6h12.23A17.61,17.61,0,0,0,356.5,525v0a17.61,17.61,0,0,0-17.62-17.6h-35a17.61,17.61,0,0,1-17.6-17.6h0a17.61,17.61,0,0,1,17.6-17.62h80.69a17.61,17.61,0,0,0,17.62-17.6h0a17.61,17.61,0,0,0-17.62-17.62H246.79a17.61,17.61,0,0,1,0-35.22H453a17.61,17.61,0,0,0,17.62-17.6h0A17.61,17.61,0,0,0,453,366.47H178.33a17.61,17.61,0,0,1-17.6-17.6h0a17.61,17.61,0,0,1,17.6-17.62H361.71a17.61,17.61,0,0,0,17.62-17.6h0A17.61,17.61,0,0,0,361.71,296h-92.1A17.61,17.61,0,0,1,252,278.4h0a17.61,17.61,0,0,1,17.6-17.62H395.94a17.61,17.61,0,0,0,17.62-17.6h0a17.61,17.61,0,0,0-17.62-17.62H235.38a17.61,17.61,0,0,1,0-35.22H430.16a17.61,17.61,0,0,0,17.62-17.6h0a17.61,17.61,0,0,0-17.62-17.62h-229a17.61,17.61,0,0,1-17.6-17.6v0a17.61,17.61,0,0,1,17.6-17.6H316.07a17.61,17.61,0,0,0,17.62-17.6v0a17.61,17.61,0,0,0-17.62-17.6h-.82A17.61,17.61,0,0,1,297.64,67v0A17.6,17.6,0,0,1,314.88,49.4C460.18,50.13,577.76,168.15,577.76,313.62Z"/></g></g></svg>