<svg xmlns="http://www.w3.org/2000/svg" viewBox="0 0 410.37 410.38"><defs><style>.cls-1{fill:#5234e2;opacity:0.3;}.cls-2{fill:#719dea;}.cls-3{fill:#346ae2;}</style></defs><title>Urano</title><g id="Capa_2" data-name="Capa 2"><g id="Capa_1-2" data-name="Capa 1"><path class="cls-1" d="M82.32,40.89,104,26.72A204.17,204.17,0,0,1,220,.54a206.6,206.6,0,0,1,70.23,17.91,204,204,0,0,1,82.24,67.94q2.35,3.29,4.57,6.71a205.11,205.11,0,0,1-52.2,278.77q-3.69,2.65-7.53,5.16a206.2,206.2,0,0,1-20.8,11.92c-1.44.72-2.89,1.43-4.34,2.1a204,204,0,0,1-97,19.08,206,206,0,0,1-79.43-20.26h0a204.08,204.08,0,0,1-49.2-33.37h0a205.25,205.25,0,0,1-33.06-39l-.14-.21-.57-.89A204.32,204.32,0,0,1,0,209.43H0A205.92,205.92,0,0,1,30,98.39,203.75,203.75,0,0,1,70.12,50.72q2.77-2.41,5.64-4.73Q79,43.38,82.32,40.89Z"/><path class="cls-2" d="M88.33,48.31,109,34.81A194.44,194.44,0,0,1,219.43,9.89a196.75,196.75,0,0,1,66.89,17.05,194.3,194.3,0,0,1,78.32,64.7Q366.88,94.78,369,98a195.34,195.34,0,0,1-49.71,265.49q-3.52,2.53-7.18,4.92a196.38,196.38,0,0,1-19.81,11.35c-1.37.69-2.75,1.36-4.14,2A194.25,194.25,0,0,1,195.82,400a196.2,196.2,0,0,1-75.65-19.3h0a194.36,194.36,0,0,1-46.86-31.78h0a195.48,195.48,0,0,1-31.48-37.13l-.13-.2-.54-.85A194.59,194.59,0,0,1,10,208.83h0A196.11,196.11,0,0,1,38.47,103.07,194,194,0,0,1,76.71,57.68q2.63-2.29,5.38-4.51Q85.14,50.68,88.33,48.31Z"/><path class="cls-3" d="M88.33,48.31,109,34.81A194.44,194.44,0,0,1,219.43,9.89a196.75,196.75,0,0,1,66.89,17.05,194.3,194.3,0,0,1,78.32,64.7Q366.88,94.78,369,98a194.45,194.45,0,0,1,31,89.3,21.7,21.7,0,0,1-29-6.93L307.46,83.29a21.7,21.7,0,0,0-30-6.28h0a21.7,21.7,0,0,0-6.28,30L358.95,241.3a21.7,21.7,0,0,1-6.28,30h0a21.7,21.7,0,0,1-30-6.28l-59.48-90.92a21.7,21.7,0,0,0-30-6.28h0a21.7,21.7,0,0,0-6.28,30l79.72,121.86a21.7,21.7,0,0,1-6.28,30h0a21.7,21.7,0,0,1-30-6.28L174.27,196.94a21.7,21.7,0,0,0-30-6.28h0a21.7,21.7,0,0,0-6.28,30l79.72,121.86a21.7,21.7,0,0,1-6.28,30h0a21.7,21.7,0,0,1-30-6.28L69.21,195a21.7,21.7,0,0,0-30.05-6.28h0a21.7,21.7,0,0,0-6.28,30l63.53,97.11a21.7,21.7,0,0,1-6.29,30h0a21.58,21.58,0,0,1-16.8,3h0a195.48,195.48,0,0,1-31.48-37.13l-.13-.2-.54-.85A194.59,194.59,0,0,1,10,208.83h0A196.11,196.11,0,0,1,38.47,103.07,194,194,0,0,1,76.71,57.68q2.63-2.29,5.38-4.51Q85.14,50.68,88.33,48.31Z"/></g></g></svg>