<svg xmlns="http://www.w3.org/2000/svg" viewBox="0 0 1400 875"><defs><style>.cls-1{fill:#000015;}.cls-2{opacity:0.9;}.cls-3{fill:#9cb3e8;}.cls-10,.cls-25,.cls-3,.cls-7{opacity:0.2;}.cls-4{fill:#2463d3;}.cls-5{fill:#1dee3a;}.cls-6{fill:#fff;}.cls-7,.cls-8{fill:gray;}.cls-9{fill:#4d4d4d;}.cls-10,.cls-16{fill:#f74c48;}.cls-11{fill:#556080;}.cls-12{fill:#bdc3c7;}.cls-13{fill:#ecf0f1;}.cls-14{fill:#8697cb;}.cls-15{fill:#0096e6;}.cls-17{fill:#e3e6e9;}.cls-18{fill:#b6b8be;}.cls-19{fill:#134099;}.cls-20{fill:#1951dd;}.cls-21{fill:#888693;}.cls-22{fill:#5c546a;}.cls-23{fill:#3636ce;}.cls-24{fill:#b237cc;}.cls-25,.cls-26{fill:#5b5340;}.cls-27{fill:#332e24;}</style></defs><title>Hero</title><g id="Capa_2" data-name="Capa 2"><g id="Capa_1-2" data-name="Capa 1"><rect class="cls-1" width="1400" height="875"/><g class="cls-2"><path class="cls-3" d="M222.08,377.93a94.66,94.66,0,0,1-60.7,116.31q-1.77.59-3.57,1.12a94.66,94.66,0,1,1-53.16-181.7l.47-.13A94.66,94.66,0,0,1,222.08,377.93Z"/><path class="cls-4" d="M216.37,387a86.92,86.92,0,0,1-64.26,101.9l-.51.12q-1.41.34-2.85.64A86.92,86.92,0,1,1,113.7,319.37l.44-.09c.89-.18,1.78-.34,2.67-.49A86.92,86.92,0,0,1,216.37,387Z"/><path class="cls-5" d="M216.37,387a86.92,86.92,0,0,1-64.26,101.9l-.5.12h0a5.8,5.8,0,0,1-1.54-11.46l33.74-6.89a5.79,5.79,0,1,0-2.32-11.36l-60,12.26a5.79,5.79,0,1,1-2.32-11.36l52.52-10.73a5.79,5.79,0,1,0-2.32-11.35l-37.5,7.66a5.79,5.79,0,1,1-2.32-11.36l45-9.19a5.79,5.79,0,1,0-2.32-11.36L119.7,424.61a5.79,5.79,0,1,1-2.32-11.36l78.8-16.1a5.79,5.79,0,1,0-2.32-11.36L92.53,406.5a5.79,5.79,0,1,1-2.32-11.36l67.54-13.8A5.79,5.79,0,1,0,155.43,370l-37.5,7.66a5.79,5.79,0,1,1-2.32-11.36l52.52-10.73a5.79,5.79,0,1,0-2.32-11.35L98.27,358A5.79,5.79,0,1,1,96,346.66l41.25-8.43a5.79,5.79,0,1,0-2.32-11.36l-15,3.06a5.8,5.8,0,0,1-3.11-11.14h0A86.92,86.92,0,0,1,216.37,387Z"/><path class="cls-5" d="M67.71,358.48v.05a5.77,5.77,0,0,0,6.81,4.5,5.76,5.76,0,0,1,6.81,4.5v0a5.76,5.76,0,0,1-4.5,6.81l-18.78,3.83a5.77,5.77,0,0,0-4.5,6.81v.05a5.77,5.77,0,0,0,6.81,4.5l11.27-2.3a5.77,5.77,0,0,1,6.81,4.5v.05a5.77,5.77,0,0,1-4.5,6.81L55.2,402.46a5.77,5.77,0,0,0-4.5,6.81v.05a5.77,5.77,0,0,0,6.81,4.5L65,412.28a5.77,5.77,0,0,1,6.81,4.5v.05a5.77,5.77,0,0,1-4.5,6.81l-11.27,2.3a5.77,5.77,0,0,0-4.5,6.81v.05a5.77,5.77,0,0,0,6.81,4.5l33.8-6.9a5.77,5.77,0,0,1,6.81,4.5v.05a5.77,5.77,0,0,1-4.5,6.81L87,443.28a5.77,5.77,0,0,0-4.5,6.81v.05a5.77,5.77,0,0,0,6.81,4.5,5.76,5.76,0,0,1,6.81,4.5v0a5.76,5.76,0,0,1-4.5,6.81,5.77,5.77,0,0,0-4.5,6.81v.05a5.77,5.77,0,0,0,6.81,4.5l11.27-2.3a5.77,5.77,0,0,1,6.81,4.5v.05a5.77,5.77,0,0,1-4.5,6.81l-3.44.7A86.94,86.94,0,0,1,73.4,339.6l4-.82a5.77,5.77,0,0,1,6.81,4.5v.05a5.77,5.77,0,0,1-4.5,6.81l-7.51,1.53A5.77,5.77,0,0,0,67.71,358.48Z"/><rect class="cls-6" x="85" y="340.31" width="21.05" height="11.59" rx="4.4" ry="4.4" transform="translate(-67.33 26.12) rotate(-11.54)"/><rect class="cls-6" x="100.83" y="405.13" width="48.67" height="11.59" rx="4.4" ry="4.4" transform="translate(-79.7 33.36) rotate(-11.54)"/><rect class="cls-6" x="59.41" y="381.98" width="31.54" height="9.84" rx="3.74" ry="3.74" transform="translate(-75.91 22.87) rotate(-11.54)"/><rect class="cls-6" x="127.69" y="470.5" width="46.56" height="10.3" rx="3.91" ry="3.91" transform="translate(-92.13 39.83) rotate(-11.54)"/><path class="cls-7" d="M197.55,287.22l1.62-1.9a19.72,19.72,0,0,1,10-5.57,20,20,0,0,1,7-.24,19.7,19.7,0,0,1,9.46,4.07l.61.5A19.81,19.81,0,0,1,229,311.32q-.27.35-.56.68a19.91,19.91,0,0,1-1.6,1.67l-.35.31a19.7,19.7,0,0,1-8.47,4.4,19.9,19.9,0,0,1-7.91.28h0a19.71,19.71,0,0,1-5.46-1.76h0a19.82,19.82,0,0,1-4.12-2.72l0,0-.08-.07a19.73,19.73,0,0,1-5.94-9h0a19.89,19.89,0,0,1-.24-11.1,19.68,19.68,0,0,1,2.43-5.51l.39-.59Q197.31,287.54,197.55,287.22Z"/><path class="cls-8" d="M198.31,287.75l1.55-1.81a18.78,18.78,0,0,1,9.56-5.31,19,19,0,0,1,6.66-.23,18.76,18.76,0,0,1,9,3.87l.58.47a18.86,18.86,0,0,1,2.59,26l-.53.65a19,19,0,0,1-1.53,1.59l-.33.3a18.76,18.76,0,0,1-8.07,4.19,19,19,0,0,1-7.53.26h0a18.77,18.77,0,0,1-5.2-1.67h0a18.88,18.88,0,0,1-3.92-2.59h0l-.07-.06a18.79,18.79,0,0,1-5.65-8.6h0a18.94,18.94,0,0,1-.23-10.57,18.74,18.74,0,0,1,2.31-5.24l.38-.56Z"/><path class="cls-9" d="M198.31,287.75l1.55-1.81a18.78,18.78,0,0,1,9.56-5.31,19,19,0,0,1,6.66-.23,18.76,18.76,0,0,1,9,3.87l.58.47a18.78,18.78,0,0,1,5.29,7.44,2.1,2.1,0,0,1-2.87.14L219.57,285a2.1,2.1,0,0,0-3,.23h0a2.1,2.1,0,0,0,.23,3l11.78,10.06a2.1,2.1,0,0,1,.23,3h0a2.1,2.1,0,0,1-3,.23l-8-6.81a2.1,2.1,0,0,0-3,.23h0a2.1,2.1,0,0,0,.23,3L225.9,307a2.1,2.1,0,0,1,.23,3h0a2.1,2.1,0,0,1-3,.23l-12.87-11a2.1,2.1,0,0,0-3,.23h0a2.1,2.1,0,0,0,.23,3l10.69,9.13a2.1,2.1,0,0,1,.23,3h0a2.1,2.1,0,0,1-3,.23l-15-12.84a2.1,2.1,0,0,0-3,.23h0a2.1,2.1,0,0,0,.23,3l8.52,7.28a2.1,2.1,0,0,1,.23,3h0a2.08,2.08,0,0,1-1.48.73h0a18.88,18.88,0,0,1-3.92-2.59h0l-.07-.06a18.79,18.79,0,0,1-5.65-8.6h0a18.94,18.94,0,0,1-.23-10.57,18.74,18.74,0,0,1,2.31-5.24l.38-.56Z"/></g><path class="cls-10" d="M1400,875V831.45c-215.39-90.16-451.88-140-700-140s-484.61,49.81-700,140V875Z"/><g class="cls-2"><path class="cls-11" d="M265.15,741.09l-14.77,3.44a3,3,0,0,0-1.08.49,3.05,3.05,0,0,0-.81.87l-22,35.52-4.69,1.09a3.05,3.05,0,0,0,1.38,5.94L238,785a3.05,3.05,0,0,0-1.38-5.94l-1.73.4L253,750.19,266.54,747a3.05,3.05,0,0,0-1.38-5.94Z"/><path class="cls-11" d="M381.39,745.36l-4.69,1.09-35.39-22.17a3.06,3.06,0,0,0-2.3-.39l-14.77,3.44a3.05,3.05,0,0,0,1.38,5.94l13.55-3.15,29.17,18.27-1.73.4a3.05,3.05,0,0,0,1.38,5.94l14.77-3.44a3.05,3.05,0,0,0-1.38-5.94Z"/><path class="cls-11" d="M307.52,762.56l-3,.69-4.84-20.8a3,3,0,1,0-5.91,1.38l4.84,20.8-3,.69a3.05,3.05,0,0,0,1.38,5.94l11.82-2.75a3.05,3.05,0,0,0-1.38-5.94Z"/><rect class="cls-12" x="261.97" y="719.23" width="60.67" height="9.39" transform="translate(-156.5 85.11) rotate(-13.1)"/><path class="cls-13" d="M262.19,594.53h0a31.51,31.51,0,0,0-18.75,12.75h0A64.94,64.94,0,0,0,233.59,659L252,737.9l11.82-2.75-2.08-8.92,59.09-13.75,2.08,8.92,11.82-2.75-18.36-78.89a65,65,0,0,0-31.68-42.06h0A31.51,31.51,0,0,0,262.19,594.53Z"/><polygon class="cls-14" points="314.62 632.46 231.89 651.71 233.27 657.65 289.41 644.59 292.87 659.45 298.78 658.07 295.32 643.21 316 638.4 314.62 632.46"/><rect class="cls-14" x="302.82" y="688.12" width="6.07" height="27.46" transform="translate(-151.14 87.61) rotate(-13.1)"/><ellipse class="cls-15" cx="258.93" cy="714.34" rx="3.03" ry="3.05" transform="translate(-155.2 77.29) rotate(-13.1)"/><ellipse class="cls-15" cx="270.74" cy="711.59" rx="3.03" ry="3.05" transform="translate(-154.27 79.9) rotate(-13.1)"/><ellipse class="cls-15" cx="282.56" cy="708.84" rx="3.03" ry="3.05" transform="translate(-153.33 82.51) rotate(-13.1)"/><ellipse class="cls-15" cx="294.38" cy="706.09" rx="3.03" ry="3.05" transform="translate(-152.4 85.12) rotate(-13.1)"/><ellipse class="cls-15" cx="318.02" cy="700.59" rx="3.03" ry="3.05" transform="translate(-150.54 90.33) rotate(-13.1)"/><polygon class="cls-11" points="249.88 728.98 234.41 729.45 233.03 723.5 247.11 717.09 249.88 728.98"/><polygon class="cls-11" points="329.84 697.84 345.3 697.37 346.68 703.32 332.6 709.73 329.84 697.84"/><ellipse class="cls-11" cx="299.28" cy="673.62" rx="15.17" ry="15.26" transform="translate(-144.91 85.38) rotate(-13.1)"/><path class="cls-14" d="M303.43,691.45a18.31,18.31,0,1,1,13.58-22A18.27,18.27,0,0,1,303.43,691.45Zm-6.92-29.72a12.21,12.21,0,1,0,14.59,9.14A12.18,12.18,0,0,0,296.52,661.73Z"/><polygon class="cls-12" points="236.73 672.51 238.12 678.46 258.8 673.64 259.49 676.62 238.81 681.43 240.19 687.37 260.87 682.56 261.56 685.53 240.88 690.35 242.27 696.29 262.95 691.48 263.64 694.45 242.96 699.26 244.34 705.21 270.93 699.01 263.32 666.32 236.73 672.51"/><rect class="cls-11" x="264.7" y="727.97" width="60.67" height="15.35" transform="translate(-159.09 86.03) rotate(-13.1)"/></g><path class="cls-16" d="M1400,855.71V875H0V855.71c214.24-94.05,451-146.24,700-146.24S1185.76,761.66,1400,855.71Z"/><rect class="cls-17" x="648.48" y="591.05" width="6.87" height="20.61"/><rect class="cls-17" x="744.65" y="591.05" width="6.87" height="20.61"/><path class="cls-17" d="M727.48,553.27h-10.3v6.87a13.93,13.93,0,0,1-.07,1.4,13.63,13.63,0,0,1-.66,3q-.09.27-.19.53t-.28.68c-.14.3-.28.61-.44.9l-.1.18a13.76,13.76,0,0,1-1.16,1.74l-.4.49c-.23.27-.47.53-.72.78l0,0q-.42.42-.88.8t-.81.63q-.5.36-1,.67l-.62.34c-.31.16-.63.32-1,.45l-.28.11a13.67,13.67,0,0,1-4.42,1l-.71,0h-6.87a13.74,13.74,0,0,1-13.74-13.74v-6.87h-10.3a24.07,24.07,0,0,0-24,24v6.87h6.87a6.87,6.87,0,0,1,6.87-6.87h3.43v34.35h6.87a3.43,3.43,0,1,1,6.87,0h6.87a3.43,3.43,0,0,1,6.87,0h41.21V577.31h3.43a6.87,6.87,0,0,1,6.87,6.87h6.87v-6.87A24.07,24.07,0,0,0,727.48,553.27Zm-10.3,41.21H710.3a3.43,3.43,0,0,1,0-6.87h6.87a3.43,3.43,0,1,1,0,6.87Zm0-10.3H710.3a3.43,3.43,0,0,1,0-6.87h6.87a3.43,3.43,0,0,1,0,6.87Z"/><path class="cls-17" d="M744.65,633.78a20.47,20.47,0,0,1-10.3,5V625.39H693.13v3.43a3.43,3.43,0,1,1-6.87,0v-3.43h-6.87v3.43a3.43,3.43,0,1,1-6.87,0v-3.43h-6.87v13.42a20.47,20.47,0,0,1-10.3-5V618.52h-6.87A20.64,20.64,0,0,0,666,638.9l6.09,48.75a17.21,17.21,0,0,1,3.84-.44h17.17a3.43,3.43,0,0,1,3.43,3.43V649.43a3.43,3.43,0,0,1,6.87,0v41.21a3.43,3.43,0,0,1,3.43-3.43H724a17.22,17.22,0,0,1,3.84.44L734,638.9a20.64,20.64,0,0,0,17.55-20.38h-6.87Z"/><path class="cls-18" d="M737.78,622q0,.18,0,.35a3.35,3.35,0,0,1-.1.51c0,.08,0,.16-.07.24a3.45,3.45,0,0,1-3.25,2.33v13.42a20.47,20.47,0,0,0,10.3-5V618.52h-6.87Z"/><path class="cls-18" d="M737.78,577.31h-3.43v6.87h10.3A6.87,6.87,0,0,0,737.78,577.31Z"/><rect class="cls-18" x="734.35" y="591.05" width="10.3" height="20.61"/><path class="cls-18" d="M662.22,622v-3.43h-6.87v15.26a20.47,20.47,0,0,0,10.3,5V625.39A3.43,3.43,0,0,1,662.22,622Z"/><rect class="cls-18" x="655.35" y="591.05" width="10.3" height="20.61"/><path class="cls-18" d="M665.65,577.31h-3.43a6.87,6.87,0,0,0-6.87,6.87h10.3Z"/><path class="cls-19" d="M676,543h24V491.45a34.35,34.35,0,0,0-28.56,53.43,3.43,3.43,0,0,0,1.12,1A3.43,3.43,0,0,1,676,543Z"/><path class="cls-20" d="M724,543a3.43,3.43,0,0,1,3.4,3,3.42,3.42,0,0,0,1.12-1A34.35,34.35,0,0,0,700,491.45V543Z"/><path class="cls-21" d="M686.26,549.83H700V543H676a3.46,3.46,0,0,0-3.43,3.43v6.87h10.3A3.43,3.43,0,0,1,686.26,549.83Z"/><path class="cls-20" d="M717.17,577.31H710.3a3.43,3.43,0,0,0,0,6.87h6.87a3.43,3.43,0,0,0,0-6.87Z"/><path class="cls-20" d="M717.17,587.61H710.3a3.43,3.43,0,0,0,0,6.87h6.87a3.43,3.43,0,1,0,0-6.87Z"/><path class="cls-18" d="M724,543H700v6.87h13.74a3.43,3.43,0,0,1,3.43,3.43h10.3V546.4a3.47,3.47,0,0,0,0-.48A3.43,3.43,0,0,0,724,543Z"/><path class="cls-22" d="M693.13,556.7v-6.87h-6.87a3.43,3.43,0,0,0-3.43,3.43v6.87a13.74,13.74,0,0,0,13.74,13.74H700v-10.3A6.87,6.87,0,0,1,693.13,556.7Z"/><path class="cls-22" d="M717.17,560.14a13.93,13.93,0,0,1-.07,1.4A13.94,13.94,0,0,0,717.17,560.14Z"/><path class="cls-22" d="M708.84,572.77l-.28.11Z"/><path class="cls-22" d="M712.25,570.67q-.39.33-.81.63C711.71,571.1,712,570.89,712.25,570.67Z"/><path class="cls-22" d="M717.1,561.54a13.63,13.63,0,0,1-.66,3A13.66,13.66,0,0,0,717.1,561.54Z"/><path class="cls-22" d="M710.41,572l-.62.34Z"/><path class="cls-22" d="M714.27,568.58l-.4.49Z"/><path class="cls-22" d="M716.25,565.08q-.13.35-.28.68Q716.12,565.42,716.25,565.08Z"/><path class="cls-22" d="M715.53,566.66l-.1.18Z"/><path class="cls-22" d="M713.15,569.85l0,0Z"/><path class="cls-21" d="M713.74,549.83h-6.87v6.87a6.87,6.87,0,0,1-6.87,6.87v10.3h3.43l.71,0a13.67,13.67,0,0,0,4.42-1l.28-.11c.32-.14.64-.29,1-.45l.62-.34q.53-.31,1-.67c.28-.2.55-.41.81-.63s.6-.52.88-.8l0,0c.25-.25.49-.51.72-.78l.4-.49a13.76,13.76,0,0,0,1.16-1.74l.1-.18c.16-.29.3-.59.44-.9s.2-.45.28-.68.13-.35.19-.53a13.66,13.66,0,0,0,.66-3,13.93,13.93,0,0,0,.07-1.4v-6.87A3.43,3.43,0,0,0,713.74,549.83Z"/><path class="cls-20" d="M700,563.57a6.87,6.87,0,0,0,6.87-6.87v-6.87H700v13.74Z"/><path class="cls-19" d="M693.13,556.7a6.87,6.87,0,0,0,6.87,6.87V549.83h-6.87Z"/><rect class="cls-19" x="734.35" y="584.18" width="10.3" height="6.87"/><rect class="cls-19" x="655.35" y="584.18" width="10.3" height="6.87"/><rect class="cls-20" x="744.65" y="584.18" width="6.87" height="6.87"/><rect class="cls-20" x="648.48" y="584.18" width="6.87" height="6.87"/><path class="cls-22" d="M655.35,618.52h6.87V622a3.43,3.43,0,0,0,3.43,3.43h6.87V611.65H655.35Z"/><rect class="cls-21" x="648.48" y="611.65" width="6.87" height="6.87"/><path class="cls-22" d="M737.78,615.09v3.43h6.87v-6.87h-10.3A3.43,3.43,0,0,1,737.78,615.09Z"/><rect class="cls-21" x="744.65" y="611.65" width="6.87" height="6.87"/><rect class="cls-22" x="679.39" y="611.65" width="6.87" height="13.74"/><rect class="cls-22" x="693.13" y="611.65" width="6.87" height="13.74"/><path class="cls-22" d="M737.59,623.06a3.44,3.44,0,0,1-2.11,2.13A3.44,3.44,0,0,0,737.59,623.06Z"/><path class="cls-22" d="M737.67,622.82a3.44,3.44,0,0,0,.1-.51A3.44,3.44,0,0,1,737.67,622.82Z"/><path class="cls-21" d="M734.35,625.39a3.45,3.45,0,0,0,3.25-2.33c0-.08.05-.16.07-.24a3.44,3.44,0,0,0,.1-.51,3.52,3.52,0,0,0,0-.35v-6.87a3.43,3.43,0,0,0-3.43-3.43H700v13.74Z"/><path class="cls-19" d="M672.52,628.83a3.43,3.43,0,1,0,6.87,0V611.65a3.43,3.43,0,1,0-6.87,0v17.17Z"/><path class="cls-20" d="M686.26,628.83a3.43,3.43,0,1,0,6.87,0V611.65a3.43,3.43,0,0,0-6.87,0v17.17Z"/><path class="cls-21" d="M659,708.93a3.44,3.44,0,0,0,2.11,2.13A3.44,3.44,0,0,1,659,708.93Z"/><path class="cls-21" d="M696.55,708.17a3.35,3.35,0,0,1-.1.51A3.46,3.46,0,0,0,696.55,708.17Z"/><path class="cls-21" d="M658.9,708.68a3.45,3.45,0,0,1-.1-.51A3.44,3.44,0,0,0,658.9,708.68Z"/><path class="cls-21" d="M694.27,711.06a3.44,3.44,0,0,0,2.11-2.13A3.44,3.44,0,0,1,694.27,711.06Z"/><path class="cls-21" d="M693.13,687.21H676a17.18,17.18,0,0,0-17.17,17.17,17.24,17.24,0,0,1,.35-3.43h37.43v-10.3A3.43,3.43,0,0,0,693.13,687.21Z"/><path class="cls-21" d="M703.55,708.68a3.44,3.44,0,0,1-.1-.51A3.44,3.44,0,0,0,703.55,708.68Z"/><path class="cls-21" d="M738.92,711.06a3.44,3.44,0,0,0,2.11-2.13A3.44,3.44,0,0,1,738.92,711.06Z"/><path class="cls-21" d="M741.2,708.17a3.35,3.35,0,0,1-.1.51A3.36,3.36,0,0,0,741.2,708.17Z"/><path class="cls-21" d="M703.62,708.93a3.44,3.44,0,0,0,2.11,2.13A3.44,3.44,0,0,1,703.62,708.93Z"/><path class="cls-21" d="M706.87,687.21a3.43,3.43,0,0,0-3.43,3.43V701h37.43a17.24,17.24,0,0,1,.35,3.43A17.18,17.18,0,0,0,724,687.21Z"/><path class="cls-18" d="M658.79,704.39v3.43q0,.18,0,.35a3.35,3.35,0,0,0,.1.51c0,.08,0,.16.07.24a3.45,3.45,0,0,0,3.25,2.33h30.91a3.45,3.45,0,0,0,3.25-2.33c0-.08.05-.16.07-.24a3.45,3.45,0,0,0,.1-.51q0-.17,0-.35V701H659.13A17.24,17.24,0,0,0,658.79,704.39Z"/><path class="cls-18" d="M703.43,701v6.87q0,.18,0,.35a3.35,3.35,0,0,0,.1.51c0,.08,0,.16.07.24a3.45,3.45,0,0,0,3.25,2.33h30.91a3.45,3.45,0,0,0,3.25-2.33c0-.08.05-.16.07-.24a3.44,3.44,0,0,0,.1-.51,3.52,3.52,0,0,0,0-.35v-3.43a17.24,17.24,0,0,0-.35-3.43Z"/><path class="cls-23" d="M1218.18,248.78l-143.48,30.47a4.76,4.76,0,0,1-5.65-3.67l-16.11-75.87a4.76,4.76,0,0,1,3.67-5.65l136.24-28.93a4.76,4.76,0,0,1,5.65,3.67v.07a4.76,4.76,0,0,1-3.67,5.65l-47.37,10.06a4.76,4.76,0,0,0-3.67,5.65v.07a4.76,4.76,0,0,0,5.65,3.67l83.6-17.75a4.76,4.76,0,0,1,5.65,3.67l0,.23a4.76,4.76,0,0,1-3.67,5.65l-61.87,13.14a4.76,4.76,0,0,0-3.67,5.65v.07a4.76,4.76,0,0,0,5.65,3.67L1219,199a4.76,4.76,0,0,1,5.65,3.67l0,.23a4.76,4.76,0,0,1-3.67,5.65l-32.88,7a4.76,4.76,0,0,0-3.67,5.65v.07a4.76,4.76,0,0,0,5.65,3.67l3.9-.83a4.76,4.76,0,0,1,5.65,3.67l.1.47a4.76,4.76,0,0,1-3.67,5.65l-58.24,12.37a4.76,4.76,0,0,0-3.67,5.65v.07a4.76,4.76,0,0,0,5.65,3.67l76.36-16.22a4.76,4.76,0,0,1,5.65,3.67v.07A4.76,4.76,0,0,1,1218.18,248.78Z"/><circle class="cls-23" cx="1060.99" cy="237.64" r="43.55" transform="translate(-26.22 225.58) rotate(-11.99)"/><path class="cls-24" d="M1122.56,259.28l-49.86,10.59a4.76,4.76,0,0,1-5.65-3.67l-12.13-57.11a4.76,4.76,0,0,1,3.67-5.65l46.23-9.82a4.76,4.76,0,0,1,5.65,3.67v.07a4.76,4.76,0,0,1-3.67,5.65l-5.78,1.23a4.76,4.76,0,0,0-3.67,5.65l.06.27a4.76,4.76,0,0,0,5.65,3.67L1156,202.59a4.76,4.76,0,0,1,5.65,3.67h0a4.76,4.76,0,0,1-3.67,5.65l-45.63,9.69a4.76,4.76,0,0,0-3.67,5.65l.06.26a4.76,4.76,0,0,0,5.65,3.67l31.14-6.61a4.76,4.76,0,0,1,5.65,3.67v.07a4.76,4.76,0,0,1-3.67,5.65l-45.27,9.61a4.76,4.76,0,0,0-3.67,5.65l.06.27a4.76,4.76,0,0,0,5.65,3.67l16.28-3.46a4.76,4.76,0,0,1,5.65,3.67l.06.26A4.76,4.76,0,0,1,1122.56,259.28Z"/><rect class="cls-24" x="1122.9" y="184.1" width="9.59" height="19.14" rx="4.8" ry="4.8" transform="translate(1082.89 -949.66) rotate(78.01)"/><circle class="cls-6" cx="1060.99" cy="237.64" r="33.95" transform="translate(-26.22 225.58) rotate(-11.99)"/><rect class="cls-24" x="1162.41" y="215.39" width="9.59" height="18.93" rx="4.8" ry="4.8" transform="translate(1144.69 -963.59) rotate(78.01)"/><rect class="cls-23" x="1254.14" y="205.1" width="9.59" height="60.23" rx="4.8" ry="4.8" transform="translate(1227.51 -1045.12) rotate(78.01)"/><rect class="cls-23" x="1246.55" y="171.71" width="9.59" height="11.02" rx="4.8" ry="4.8" transform="translate(1164.75 -1083.65) rotate(78.01)"/><rect class="cls-23" x="1270.16" y="161.07" width="9.59" height="22.26" rx="4.8" ry="4.8" transform="translate(1178.56 -1110.72) rotate(78.01)"/><rect class="cls-23" x="1211.75" y="153.86" width="9.59" height="22.26" rx="4.8" ry="4.8" transform="translate(1125.23 -1059.29) rotate(78.01)"/><path class="cls-25" d="M1278.6,471.83A74.08,74.08,0,0,1,1289,574q-.9,1.15-1.85,2.27a74.08,74.08,0,1,1-112.94-95.89l.25-.29A74.08,74.08,0,0,1,1278.6,471.83Z"/><path class="cls-26" d="M1294,553.21a68,68,0,0,1-85.68,39.33q-1.27-.44-2.52-.94A68,68,0,1,1,1255.57,465l.32.13A68,68,0,0,1,1294,553.21Z"/><path class="cls-27" d="M1168.29,555.44a68,68,0,0,1,32.78-88.4,4.53,4.53,0,0,1,5.31,2.57h0a4.53,4.53,0,0,1-2.35,6l-2.89,1.26a4.53,4.53,0,0,0-2.35,6h0a4.53,4.53,0,0,0,6,2.35l29.13-12.68a4.53,4.53,0,0,1,6,2.35h0a4.53,4.53,0,0,1-2.35,6l-39.9,17.37a4.53,4.53,0,0,0-2.35,6h0a4.53,4.53,0,0,0,6,2.35l32.51-14.15a4.53,4.53,0,0,1,3.62,8.31l-48.67,21.18a4.53,4.53,0,0,0-2.35,6h0a4.53,4.53,0,0,0,6,2.35l64.83-28.22a4.53,4.53,0,0,1,6,2.35h0a4.53,4.53,0,0,1-2.35,6l-43.29,18.84a4.53,4.53,0,0,0-2.35,6h0a4.53,4.53,0,0,0,6,2.35l21.74-9.46a4.53,4.53,0,0,1,6,2.35h0a4.53,4.53,0,0,1-2.35,6l-19.39,8.44a4.53,4.53,0,0,0-2.35,6h0a4.53,4.53,0,0,0,6,2.35l37.9-16.49a4.53,4.53,0,0,1,3.62,8.31l-49.45,21.52a4.53,4.53,0,0,0-2.35,6h0a4.53,4.53,0,0,0,6,2.35l40.15-17.48a4.53,4.53,0,0,1,6,2.35h0a4.53,4.53,0,0,1-2.35,6L1250,574.3a4.53,4.53,0,0,0-2.35,6h0a4.53,4.53,0,0,0,6,2.35l.19-.08a4.53,4.53,0,0,1,6,2.35h0a4.53,4.53,0,0,1-2.26,5.92A68,68,0,0,1,1168.29,555.44Z"/></g></g></svg>